<svg width="512" height="141" viewBox="0 0 512 141" fill="none" xmlns="http://www.w3.org/2000/svg">
<path fill-rule="evenodd" clip-rule="evenodd" d="M480 50.0474H32V49.2021H480V50.0474Z" fill="black"/>
<path fill-rule="evenodd" clip-rule="evenodd" d="M480 60.637H32V59.7917H480V60.637Z" fill="black"/>
<path fill-rule="evenodd" clip-rule="evenodd" d="M480 71.227H32V70.3817H480V71.227Z" fill="black"/>
<path fill-rule="evenodd" clip-rule="evenodd" d="M480 81.8166H32V80.9712H480V81.8166Z" fill="black"/>
<path fill-rule="evenodd" clip-rule="evenodd" d="M480 92.4062H32V91.5608H480V92.4062Z" fill="black"/>
<path fill-rule="evenodd" clip-rule="evenodd" d="M468.773 92.4071V49.2012H470.468V92.4071H468.773Z" fill="black"/>
<path fill-rule="evenodd" clip-rule="evenodd" d="M474.706 92.4071V49.2012H480V92.4071H474.706Z" fill="black"/>
<path fill-rule="evenodd" clip-rule="evenodd" d="M146.762 101.726H168.753V103.421H146.762V101.726Z" fill="black"/>
<path fill-rule="evenodd" clip-rule="evenodd" d="M164.04 64.8219C164.42 64.8219 164.727 65.1297 164.727 65.5093V100.584C164.727 100.964 164.42 101.272 164.04 101.272C163.66 101.272 163.353 100.964 163.353 100.584V65.5093C163.353 65.1297 163.66 64.8219 164.04 64.8219Z" fill="black"/>
<path fill-rule="evenodd" clip-rule="evenodd" d="M243.537 59.5269C243.917 59.5269 244.224 59.8346 244.224 60.2143V95.2893C244.224 95.669 243.917 95.9767 243.537 95.9767C243.157 95.9767 242.85 95.669 242.85 95.2893V60.2143C242.85 59.8346 243.157 59.5269 243.537 59.5269Z" fill="black"/>
<path fill-rule="evenodd" clip-rule="evenodd" d="M323.034 54.2324C323.414 54.2324 323.721 54.5401 323.721 54.9197V89.9948C323.721 90.3744 323.414 90.6822 323.034 90.6822C322.654 90.6822 322.347 90.3744 322.347 89.9948V54.9197C322.347 54.5401 322.654 54.2324 323.034 54.2324Z" fill="black"/>
<path d="M160.092 96.7422C161.416 96.7422 162.534 97.0864 163.447 97.7747C164.299 98.5204 164.725 99.458 164.725 100.588C164.725 102.489 163.747 104.268 161.793 105.922C159.807 107.577 157.683 108.404 155.419 108.404C154.095 108.404 152.979 108.06 152.07 107.372C151.214 106.626 150.786 105.688 150.786 104.559C150.786 102.657 151.779 100.879 153.764 99.2242C155.697 97.5696 157.806 96.7422 160.092 96.7422Z" fill="black"/>
<path d="M239.589 91.4476C240.913 91.4476 242.031 91.7918 242.944 92.4801C243.796 93.2258 244.222 94.1634 244.222 95.293C244.222 97.1947 243.245 98.9729 241.29 100.627C239.304 102.282 237.18 103.109 234.916 103.109C233.592 103.109 232.476 102.765 231.567 102.077C230.711 101.331 230.283 100.394 230.283 99.2641C230.283 97.3624 231.276 95.5842 233.262 93.9295C235.194 92.2749 237.303 91.4476 239.589 91.4476Z" fill="black"/>
<path d="M319.086 86.1526C320.41 86.1526 321.528 86.4967 322.442 87.185C323.293 87.9307 323.719 88.8684 323.719 89.9979C323.719 91.8996 322.742 93.6778 320.787 95.3325C318.801 96.9871 316.677 97.8144 314.413 97.8144C313.09 97.8144 311.973 97.4702 311.064 96.7819C310.208 96.0362 309.78 95.0986 309.78 93.969C309.78 92.0673 310.773 90.2891 312.759 88.6345C314.691 86.9799 316.8 86.1526 319.086 86.1526Z" fill="black"/>
<path d="M56.0256 70.5528C56.0256 70.5528 56.1095 70.5528 56.2771 70.5528C56.3874 70.5263 56.4823 70.5131 56.5617 70.5131C59.6504 70.5131 62.1875 71.6029 64.173 73.7826C66.1586 75.9315 67.1514 78.4399 67.1514 81.3079C67.1514 84.8687 65.6776 87.7654 62.7302 89.9981C61.9581 90.607 60.9498 91.1034 59.7055 91.4872C59.8467 93.2787 59.9173 94.7259 59.9173 95.829C59.9173 96.0496 59.8886 96.8505 59.8313 98.2315C59.721 100.795 58.8385 103.015 57.1839 104.89C55.5866 106.739 53.601 107.663 51.2272 107.663C48.9945 107.663 47.0928 106.878 45.522 105.307C43.9468 103.705 43.1592 101.775 43.1592 99.5155C43.1592 98.3286 43.6159 97.3204 44.5292 96.4908C45.4647 95.6657 46.5523 95.2532 47.7922 95.2532C48.8952 95.2532 49.8196 95.6812 50.5653 96.5372C51.3375 97.3358 51.7236 98.3286 51.7236 99.5155C51.7236 100.588 51.3375 101.51 50.5653 102.282C49.7932 103.054 48.8688 103.44 47.7922 103.44C47.3509 103.44 46.9251 103.359 46.5148 103.195C47.7282 104.987 49.3409 105.883 51.3529 105.883C53.2547 105.883 54.8122 105.11 56.0256 103.566C57.2964 101.969 57.9869 100.107 58.0972 97.98C58.1502 96.6563 58.1767 95.8996 58.1767 95.7099C58.1767 94.1655 58.1215 92.897 58.0112 91.9042C56.6345 92.1248 55.4079 92.2351 54.3313 92.2351C50.497 92.2351 47.2296 90.7173 44.5292 87.6816C41.8818 84.6194 40.5581 80.9792 40.5581 76.761C40.5581 75.8785 40.6397 74.9828 40.803 74.0738C40.9707 73.3282 41.178 72.5141 41.4251 71.6316C41.5619 71.133 41.9348 70.3322 42.5437 69.2291C42.7643 68.8982 43.0125 68.4845 43.2883 67.9881C43.564 67.4917 43.7571 67.1619 43.8674 66.9986C44.1409 66.4471 44.677 65.7014 45.4757 64.7616C45.6963 64.5145 45.9246 64.2398 46.1607 63.9376C46.3968 63.6353 46.5975 63.3871 46.763 63.193C46.9285 62.9988 47.052 62.8466 47.1336 62.7363C47.2153 62.626 47.8363 61.8957 48.9967 60.5456C49.2703 60.2676 49.5383 59.9709 49.8009 59.6554C50.0634 59.3399 50.2774 59.0917 50.4429 58.9108C50.6084 58.7299 50.733 58.5997 50.8168 58.5203C49.824 55.2375 49.2019 52.6166 48.9504 50.6575C48.7607 49.0867 48.6658 46.9357 48.6658 44.2044C48.6658 41.8041 49.2173 39.556 50.3204 37.46C51.3927 35.2849 52.895 33.5067 54.8277 32.1254C54.938 32.0419 55.0748 32 55.238 32C55.4322 32 55.5711 32.0419 55.655 32.1254C57.142 33.9172 58.4237 36.2469 59.5004 39.1148C60.6034 41.9828 61.155 44.5905 61.155 46.9379C61.155 49.5853 60.5218 52.0672 59.2555 54.3837C57.8214 56.837 55.9727 59.3741 53.7091 61.995C54.2872 63.8129 55.0593 66.6655 56.0256 70.5528ZM59.5401 89.7929C60.9741 89.2678 62.0926 88.3721 62.8957 87.1058C63.7781 85.8924 64.2194 84.5267 64.2194 83.0089C64.2194 81.0498 63.5575 79.3113 62.2338 77.7935C60.8792 76.2227 59.154 75.3402 57.0581 75.1461C58.245 80.966 59.0724 85.8482 59.5401 89.7929ZM43.5364 80.2357C43.5364 82.967 44.6395 85.3673 46.8457 87.4367C49.1048 89.4487 51.6419 90.4547 54.457 90.4547C55.6131 90.4547 56.7426 90.3709 57.8457 90.2032C57.4045 86.0115 56.5353 80.9924 55.238 75.1461C53.6672 75.3137 52.4141 75.8653 51.4787 76.8007C50.5653 77.767 50.1087 78.8569 50.1087 80.0703C50.1087 82.1661 51.2272 83.8627 53.4643 85.1599C53.654 85.3541 53.7489 85.5614 53.7489 85.7821C53.7489 86.0027 53.654 86.2079 53.4643 86.3976C53.2966 86.5917 53.0892 86.6888 52.8421 86.6888C52.8156 86.6888 52.6921 86.6623 52.4715 86.6094C50.8963 85.7534 49.6829 84.6503 48.8313 83.3001C48.0282 81.8617 47.6267 80.4122 47.6267 78.9517C47.6267 77.05 48.2202 75.327 49.4071 73.7826C50.6469 72.2383 52.2597 71.2456 54.2452 70.8043C53.4731 67.7156 52.8399 65.3021 52.3457 63.5636C51.9045 64.0622 51.3739 64.6623 50.7539 65.3639C50.134 66.0654 49.7689 66.4868 49.6586 66.628C48.6658 67.9208 47.9069 68.9269 47.3818 69.6461C46.442 70.9433 45.7514 72.0596 45.3102 72.9951C44.8425 74.0452 44.4299 75.1902 44.0725 76.43C43.7151 77.617 43.5364 78.8855 43.5364 80.2357ZM57.3493 38.1683C55.2799 39.1876 53.654 40.6481 52.4715 42.5498C51.2581 44.5089 50.6514 46.618 50.6514 48.8771C50.6514 50.8627 51.1478 53.5388 52.1406 56.9054C54.1261 54.5051 55.6153 52.2856 56.6081 50.2471C57.6538 48.0939 58.1767 45.8458 58.1767 43.5029C58.1767 41.7379 57.9009 39.9597 57.3493 38.1683Z" fill="black"/>
<path d="M101.094 74.3583V77.6278C101.094 78.7883 101.149 79.7127 101.26 80.401C102.169 79.6288 102.817 79.0508 103.205 78.6669C103.647 78.2257 104.088 77.6179 104.529 76.8435C104.97 76.0692 105.191 75.2959 105.191 74.5237C105.191 73.7516 105.026 73.0897 104.695 72.5382C104.364 71.9866 103.922 71.7108 103.371 71.7108C102.709 71.7108 102.158 71.9601 101.716 72.4587C101.302 73.0103 101.094 73.6435 101.094 74.3583ZM99.3535 81.9299L98.8174 56.7397C99.2057 56.5191 99.5929 56.4088 99.9789 56.4088C100.365 56.4088 100.75 56.5191 101.134 56.7397L100.803 71.3402C101.933 70.3739 103.23 69.8907 104.695 69.8907C105.767 69.8907 106.661 70.332 107.378 71.2144C108.095 72.0969 108.454 73.1052 108.454 74.2391C108.454 74.9539 108.22 75.7129 107.752 76.5159C107.311 77.2572 106.843 77.8352 106.349 78.25C106.071 78.4706 105.368 79.0221 104.238 79.9046C103.907 80.1517 103.514 80.4407 103.06 80.7716C102.605 81.1025 102.323 81.3099 102.213 81.3938C102.019 81.5041 101.838 81.7247 101.67 82.0556C101.48 82.3336 101.26 82.5674 101.008 82.7572C100.818 82.9249 100.586 83.0087 100.31 83.0087C100.034 83.0087 99.8124 82.9116 99.6447 82.7175C99.4506 82.5233 99.3535 82.2608 99.3535 81.9299Z" fill="black"/>
<path d="M90.5043 53.1791V56.4487C90.5043 57.6091 90.5595 58.5335 90.6698 59.2218C91.5787 58.4497 92.2273 57.8716 92.6156 57.4878C93.0569 57.0465 93.4981 56.4387 93.9393 55.6644C94.3806 54.89 94.6012 54.1167 94.6012 53.3446C94.6012 52.5724 94.4357 51.9105 94.1048 51.359C93.7739 50.8075 93.3326 50.5317 92.7811 50.5317C92.1192 50.5317 91.5677 50.781 91.1265 51.2796C90.7117 51.8311 90.5043 52.4643 90.5043 53.1791ZM88.7636 60.7507L88.2275 35.5606C88.6158 35.3399 89.003 35.2296 89.3891 35.2296C89.7752 35.2296 90.1602 35.3399 90.544 35.5606L90.2131 50.161C91.3427 49.1947 92.6399 48.7116 94.1048 48.7116C95.177 48.7116 96.0716 49.1528 96.7886 50.0353C97.5056 50.9178 97.8641 51.926 97.8641 53.06C97.8641 53.7748 97.6303 54.5337 97.1626 55.3367C96.7213 56.078 96.2536 56.656 95.7594 57.0708C95.4815 57.2914 94.7777 57.843 93.6481 58.7254C93.3172 58.9725 92.9245 59.2615 92.47 59.5925C92.0155 59.9234 91.7332 60.1308 91.6228 60.2146C91.4287 60.3249 91.2478 60.5455 91.0801 60.8764C90.8904 61.1544 90.6698 61.3883 90.4183 61.578C90.2285 61.7457 89.9958 61.8295 89.72 61.8295C89.4442 61.8295 89.2225 61.7324 89.0549 61.5383C88.8607 61.3442 88.7636 61.0816 88.7636 60.7507Z" fill="black"/>
<path d="M79.9154 69.0636V72.3332C79.9154 73.4937 79.9706 74.418 80.0809 75.1064C80.9899 74.3342 81.6385 73.7562 82.0268 73.3723C82.468 72.9311 82.9092 72.3233 83.3505 71.5489C83.7917 70.7745 84.0123 70.0013 84.0123 69.2291C84.0123 68.4569 83.8469 67.7951 83.516 67.2435C83.185 66.692 82.7438 66.4162 82.1922 66.4162C81.5304 66.4162 80.9788 66.6655 80.5376 67.1641C80.1228 67.7157 79.9154 68.3488 79.9154 69.0636ZM78.1748 76.6352L77.6387 51.4451C78.027 51.2245 78.4141 51.1142 78.8002 51.1142C79.1863 51.1142 79.5713 51.2245 79.9552 51.4451L79.6242 66.0456C80.7538 65.0793 82.051 64.5961 83.516 64.5961C84.5881 64.5961 85.4827 65.0374 86.1998 65.9198C86.9168 66.8023 87.2753 67.8105 87.2753 68.9445C87.2753 69.6593 87.0414 70.4182 86.5737 71.2213C86.1324 71.9626 85.6648 72.5406 85.1706 72.9553C84.8926 73.176 84.1888 73.7275 83.0592 74.61C82.7283 74.8571 82.3356 75.1461 81.8812 75.477C81.4267 75.8079 81.1443 76.0153 81.034 76.0991C80.8398 76.2094 80.6589 76.4301 80.4913 76.761C80.3015 77.039 80.0809 77.2728 79.8294 77.4626C79.6397 77.6302 79.4069 77.7141 79.1312 77.7141C78.8554 77.7141 78.6337 77.617 78.466 77.4229C78.2718 77.2287 78.1748 76.9662 78.1748 76.6352Z" fill="black"/>
<path d="M128.786 50.1245C129.611 50.1245 130.314 50.0285 130.894 49.8366C131.474 49.6446 131.846 49.5486 132.009 49.5486C132.203 49.5486 132.356 49.6038 132.466 49.7141C132.55 49.7936 132.605 49.8884 132.631 49.9987C132.631 50.0561 132.603 50.1399 132.545 50.2502L120.513 64.2352H127.582V58.6889C127.582 58.3315 127.679 58.027 127.873 57.7755C128.204 57.5019 128.479 57.3365 128.7 57.2791C129.057 57.1159 129.499 56.7298 130.024 56.1209C130.465 55.6267 130.99 54.7596 131.599 53.5198C131.678 53.3521 131.802 53.2683 131.97 53.2683C132.301 53.2683 132.493 53.4624 132.545 53.8507V64.2352H135.57C135.954 64.2352 136.175 64.4404 136.232 64.8507C136.232 65.2655 136.011 65.4729 135.57 65.4729H132.545V65.8038C132.545 66.9069 132.821 67.8445 133.373 68.6167C134.008 69.3888 134.754 69.7749 135.61 69.7749C135.941 69.7749 136.106 69.9404 136.106 70.2713C136.106 70.6022 135.941 70.7677 135.61 70.7677C135.032 70.7677 134.094 70.6861 132.797 70.5228C131.61 70.3286 130.686 70.2316 130.024 70.2316C129.335 70.2316 128.411 70.3286 127.251 70.5228C126.011 70.6861 125.089 70.7677 124.484 70.7677C124.153 70.7677 123.988 70.6022 123.988 70.2713C123.988 69.9404 124.153 69.7749 124.484 69.7749C125.336 69.7749 126.079 69.3888 126.714 68.6167C127.293 67.818 127.582 66.8804 127.582 65.8038V65.4729H120.513C120.041 65.4729 119.71 65.3626 119.52 65.142C119.295 64.9787 119.183 64.7581 119.183 64.4801C119.183 64.3962 119.39 64.1072 119.805 63.6131C120.277 63.0615 120.773 62.3864 121.294 61.5878C121.903 60.648 122.483 59.6816 123.035 58.6889C123.639 57.5593 124.122 56.2621 124.484 54.7972C124.894 53.3102 125.1 51.7945 125.1 50.2502C125.1 49.809 125.294 49.5884 125.682 49.5884C125.766 49.5884 125.945 49.6303 126.218 49.7141C126.302 49.7406 126.475 49.7814 126.738 49.8366C127 49.8917 127.213 49.9458 127.376 49.9987C127.875 50.0826 128.345 50.1245 128.786 50.1245Z" fill="black"/>
<path d="M128.786 71.3767C129.611 71.3767 130.314 71.2808 130.894 71.0888C131.474 70.8969 131.846 70.8009 132.009 70.8009C132.203 70.8009 132.356 70.8561 132.466 70.9664C132.55 71.0458 132.605 71.1406 132.631 71.2509C132.631 71.3083 132.603 71.3922 132.545 71.5025L120.513 85.4874H127.582V79.9411C127.582 79.5837 127.679 79.2792 127.873 79.0277C128.204 78.7542 128.479 78.5887 128.7 78.5313C129.057 78.3681 129.499 77.982 130.024 77.3731C130.465 76.8789 130.99 76.0119 131.599 74.772C131.678 74.6043 131.802 74.5205 131.97 74.5205C132.301 74.5205 132.493 74.7146 132.545 75.1029V85.4874H135.57C135.954 85.4874 136.175 85.6926 136.232 86.103C136.232 86.5177 136.011 86.7251 135.57 86.7251H132.545V87.056C132.545 88.1591 132.821 89.0967 133.373 89.8689C134.008 90.6411 134.754 91.0272 135.61 91.0272C135.941 91.0272 136.106 91.1926 136.106 91.5235C136.106 91.8545 135.941 92.0199 135.61 92.0199C135.032 92.0199 134.094 91.9383 132.797 91.775C131.61 91.5809 130.686 91.4838 130.024 91.4838C129.335 91.4838 128.411 91.5809 127.251 91.775C126.011 91.9383 125.089 92.0199 124.484 92.0199C124.153 92.0199 123.988 91.8545 123.988 91.5235C123.988 91.1926 124.153 91.0272 124.484 91.0272C125.336 91.0272 126.079 90.6411 126.714 89.8689C127.293 89.0703 127.582 88.1326 127.582 87.056V86.7251H120.513C120.041 86.7251 119.71 86.6148 119.52 86.3942C119.295 86.2309 119.183 86.0103 119.183 85.7323C119.183 85.6485 119.39 85.3595 119.805 84.8653C120.277 84.3137 120.773 83.6386 121.294 82.84C121.903 81.9002 122.483 80.9339 123.035 79.9411C123.639 78.8115 124.122 77.5143 124.484 76.0494C124.894 74.5624 125.1 73.0468 125.1 71.5025C125.1 71.0612 125.294 70.8406 125.682 70.8406C125.766 70.8406 125.945 70.8825 126.218 70.9664C126.302 70.9928 126.475 71.0336 126.738 71.0888C127 71.1439 127.213 71.198 127.376 71.2509C127.875 71.3348 128.345 71.3767 128.786 71.3767Z" fill="black"/>
</svg>
