<svg width="512" height="140" viewBox="0 0 512 140" fill="none" xmlns="http://www.w3.org/2000/svg">
<path fill-rule="evenodd" clip-rule="evenodd" d="M480 49.7254H32V48.8952H480V49.7254Z" fill="black"/>
<path fill-rule="evenodd" clip-rule="evenodd" d="M480 60.1261H32V59.2958H480V60.1261Z" fill="black"/>
<path fill-rule="evenodd" clip-rule="evenodd" d="M480 70.5272H32V69.6969H480V70.5272Z" fill="black"/>
<path fill-rule="evenodd" clip-rule="evenodd" d="M480 80.9279H32V80.0976H480V80.9279Z" fill="black"/>
<path fill-rule="evenodd" clip-rule="evenodd" d="M480 91.3285H32V90.4982H480V91.3285Z" fill="black"/>
<path fill-rule="evenodd" clip-rule="evenodd" d="M283.978 91.3294V48.8944H285.643V91.3294H283.978Z" fill="black"/>
<path fill-rule="evenodd" clip-rule="evenodd" d="M468.974 91.3294V48.8944H470.638V91.3294H468.974Z" fill="black"/>
<path fill-rule="evenodd" clip-rule="evenodd" d="M474.8 91.3294V48.8944H480V91.3294H474.8Z" fill="black"/>
<path fill-rule="evenodd" clip-rule="evenodd" d="M102.845 100.482H124.444V102.146H102.845V100.482Z" fill="black"/>
<path fill-rule="evenodd" clip-rule="evenodd" d="M119.815 69.4369C120.188 69.4369 120.49 69.7391 120.49 70.112V99.3608C120.49 99.7336 120.188 100.036 119.815 100.036C119.442 100.036 119.14 99.7336 119.14 99.3608V70.112C119.14 69.7391 119.442 69.4369 119.815 69.4369Z" fill="black"/>
<path fill-rule="evenodd" clip-rule="evenodd" d="M178.875 64.2364C179.248 64.2364 179.55 64.5387 179.55 64.9115V94.1603C179.55 94.5331 179.248 94.8354 178.875 94.8354C178.502 94.8354 178.2 94.5331 178.2 94.1603V64.9115C178.2 64.5387 178.502 64.2364 178.875 64.2364Z" fill="black"/>
<path fill-rule="evenodd" clip-rule="evenodd" d="M237.935 59.0358C238.308 59.0358 238.61 59.3381 238.61 59.7109V88.9601C238.61 89.333 238.308 89.6352 237.935 89.6352C237.562 89.6352 237.26 89.333 237.26 88.9601V59.7109C237.26 59.3381 237.562 59.0358 237.935 59.0358Z" fill="black"/>
<path fill-rule="evenodd" clip-rule="evenodd" d="M309.06 46.0353C309.433 46.0353 309.736 46.3376 309.736 46.7104V83.7596C309.736 84.1325 309.433 84.4347 309.06 84.4347C308.688 84.4347 308.385 84.1325 308.385 83.7596V46.7104C308.385 46.3376 308.688 46.0353 309.06 46.0353Z" fill="black"/>
<path fill-rule="evenodd" clip-rule="evenodd" d="M366.704 43.4351C367.077 43.4351 367.379 43.7373 367.379 44.1102V78.5591C367.379 78.9319 367.077 79.2342 366.704 79.2342C366.331 79.2342 366.029 78.9319 366.029 78.5591V44.1102C366.029 43.7373 366.331 43.4351 366.704 43.4351Z" fill="black"/>
<path fill-rule="evenodd" clip-rule="evenodd" d="M424.347 40.8347C424.719 40.8347 425.022 41.137 425.022 41.5098V73.3589C425.022 73.7317 424.719 74.034 424.347 74.034C423.974 74.034 423.671 73.7317 423.671 73.3589V41.5098C423.671 41.137 423.974 40.8347 424.347 40.8347Z" fill="black"/>
<path d="M115.938 95.5872C117.238 95.5872 118.336 95.9253 119.233 96.6013C120.07 97.3337 120.488 98.2546 120.488 99.364C120.488 101.232 119.528 102.978 117.608 104.603C115.658 106.228 113.571 107.041 111.348 107.041C110.048 107.041 108.952 106.703 108.059 106.027C107.218 105.295 106.798 104.374 106.798 103.264C106.798 101.396 107.773 99.65 109.723 98.0249C111.621 96.3998 113.693 95.5872 115.938 95.5872Z" fill="black"/>
<path d="M174.998 90.3871C176.298 90.3871 177.396 90.7251 178.293 91.4011C179.13 92.1335 179.548 93.0544 179.548 94.1638C179.548 96.0316 178.588 97.7781 176.668 99.4032C174.718 101.028 172.631 101.841 170.408 101.841C169.108 101.841 168.012 101.503 167.119 100.827C166.278 100.094 165.858 99.1735 165.858 98.0641C165.858 96.1963 166.833 94.4498 168.783 92.8247C170.681 91.1996 172.753 90.3871 174.998 90.3871Z" fill="black"/>
<path d="M234.058 85.1865C235.358 85.1865 236.456 85.5245 237.353 86.2005C238.19 86.9329 238.608 87.8538 238.608 88.9632C238.608 90.831 237.648 92.5775 235.728 94.2026C233.778 95.8277 231.691 96.6403 229.468 96.6403C228.168 96.6403 227.072 96.3022 226.179 95.6262C225.338 94.8938 224.918 93.9729 224.918 92.8635C224.918 90.9957 225.893 89.2492 227.843 87.6241C229.741 85.999 231.813 85.1865 234.058 85.1865Z" fill="black"/>
<path d="M305.183 79.986C306.483 79.986 307.581 80.324 308.478 81.0001C309.315 81.7324 309.733 82.6533 309.733 83.7627C309.733 85.6305 308.773 87.377 306.853 89.0021C304.903 90.6272 302.816 91.4398 300.593 91.4398C299.293 91.4398 298.197 91.1018 297.304 90.4257C296.463 89.6933 296.043 88.7724 296.043 87.663C296.043 85.7952 297.018 84.0488 298.968 82.4237C300.866 80.7985 302.938 79.986 305.183 79.986Z" fill="black"/>
<path d="M362.826 74.7858C364.126 74.7858 365.225 75.1238 366.122 75.7999C366.958 76.5323 367.377 77.4532 367.377 78.5626C367.377 80.4304 366.417 82.1768 364.497 83.8019C362.547 85.4271 360.46 86.2396 358.237 86.2396C356.937 86.2396 355.84 85.9016 354.948 85.2255C354.107 84.4932 353.687 83.5723 353.687 82.4628C353.687 80.595 354.662 78.8486 356.612 77.2235C358.51 75.5984 360.581 74.7858 362.826 74.7858Z" fill="black"/>
<path d="M420.47 69.5853C421.77 69.5853 422.868 69.9234 423.765 70.5994C424.602 71.3318 425.02 72.2527 425.02 73.3621C425.02 75.2299 424.06 76.9763 422.14 78.6015C420.19 80.2266 418.104 81.0391 415.88 81.0391C414.58 81.0391 413.484 80.7011 412.591 80.025C411.75 79.2927 411.33 78.3718 411.33 77.2624C411.33 75.3946 412.305 73.6481 414.255 72.023C416.153 70.3979 418.225 69.5853 420.47 69.5853Z" fill="black"/>
<path d="M55.5969 69.865C55.5969 69.865 55.6792 69.865 55.8439 69.865C55.9522 69.839 56.0454 69.826 56.1234 69.826C59.1569 69.826 61.6488 70.8964 63.5989 73.0372C65.549 75.1477 66.5241 77.6114 66.5241 80.4283C66.5241 83.9255 65.0767 86.7706 62.1818 88.9634C61.4234 89.5614 60.4332 90.049 59.2111 90.426C59.3498 92.1854 59.4191 93.6069 59.4191 94.6903C59.4191 94.907 59.3909 95.6935 59.3346 97.0499C59.2263 99.5678 58.3596 101.748 56.7344 103.589C55.1657 105.405 53.2155 106.313 50.884 106.313C48.6912 106.313 46.8234 105.542 45.2806 103.999C43.7335 102.426 42.96 100.53 42.96 98.3111C42.96 97.1453 43.4085 96.1551 44.3056 95.3403C45.2243 94.5299 46.2925 94.1248 47.5103 94.1248C48.5937 94.1248 49.5016 94.5451 50.234 95.3858C50.9923 96.1702 51.3715 97.1453 51.3715 98.3111C51.3715 99.3641 50.9923 100.27 50.234 101.028C49.4756 101.787 48.5677 102.166 47.5103 102.166C47.0769 102.166 46.6587 102.086 46.2557 101.925C47.4474 103.685 49.0314 104.564 51.0075 104.564C52.8753 104.564 54.4051 103.806 55.5969 102.289C56.845 100.721 57.5232 98.8917 57.6315 96.8029C57.6835 95.5028 57.7095 94.7596 57.7095 94.5733C57.7095 93.0565 57.6553 91.8106 57.547 90.8355C56.1949 91.0522 54.9901 91.1605 53.9327 91.1605C50.1668 91.1605 46.9577 89.6697 44.3056 86.6882C41.7054 83.6807 40.4053 80.1054 40.4053 75.9624C40.4053 75.0957 40.4854 74.216 40.6458 73.3232C40.8105 72.5909 41.0142 71.7913 41.2568 70.9246C41.3912 70.4349 41.7574 69.6483 42.3554 68.5649C42.5721 68.2399 42.8159 67.8336 43.0867 67.3461C43.3576 66.8586 43.5472 66.5346 43.6555 66.3743C43.9242 65.8325 44.4507 65.1002 45.2351 64.1771C45.4518 63.9344 45.6761 63.6647 45.9079 63.3678C46.1398 63.0709 46.3369 62.8272 46.4995 62.6365C46.662 62.4458 46.7833 62.2963 46.8635 62.188C46.9437 62.0796 47.5536 61.3624 48.6934 60.0363C48.962 59.7633 49.2253 59.4719 49.4831 59.162C49.741 58.8522 49.9512 58.6084 50.1137 58.4307C50.2762 58.253 50.3987 58.1252 50.481 58.0472C49.5059 54.823 48.8949 52.2488 48.6478 50.3246C48.4615 48.7819 48.3684 46.6692 48.3684 43.9867C48.3684 41.6292 48.91 39.4212 49.9935 37.3626C51.0465 35.2263 52.5221 33.4798 54.4203 32.1231C54.5286 32.0412 54.663 32 54.8233 32C55.014 32 55.1505 32.0412 55.2328 32.1231C56.6933 33.8829 57.9522 36.1711 59.0096 38.9878C60.093 41.8047 60.6347 44.3659 60.6347 46.6714C60.6347 49.2715 60.0128 51.7092 58.7691 53.9844C57.3606 56.3939 55.5449 58.8857 53.3217 61.4599C53.8894 63.2454 54.6478 66.0471 55.5969 69.865ZM59.0486 88.7618C60.457 88.2461 61.5556 87.3664 62.3443 86.1227C63.211 84.9309 63.6444 83.5897 63.6444 82.0989C63.6444 80.1747 62.9944 78.4673 61.6943 76.9765C60.3639 75.4338 58.6694 74.567 56.6109 74.3763C57.7767 80.0924 58.5892 84.8876 59.0486 88.7618ZM43.3305 79.3752C43.3305 82.0577 44.4139 84.4152 46.5807 86.4477C48.7995 88.4238 51.2914 89.4119 54.0562 89.4119C55.1917 89.4119 56.3011 89.3296 57.3845 89.1649C56.9511 85.0479 56.0974 80.1184 54.8233 74.3763C53.2805 74.541 52.0498 75.0827 51.131 76.0014C50.234 76.9505 49.7854 78.0209 49.7854 79.2127C49.7854 81.2712 50.884 82.9374 53.0812 84.2115C53.2675 84.4022 53.3607 84.6059 53.3607 84.8226C53.3607 85.0393 53.2675 85.2408 53.0812 85.4271C52.9165 85.6178 52.7128 85.7131 52.4701 85.7131C52.4441 85.7131 52.3228 85.6871 52.1061 85.6351C50.559 84.7944 49.3672 83.711 48.5309 82.3849C47.7421 80.9721 47.3478 79.5485 47.3478 78.1141C47.3478 76.2463 47.9307 74.554 49.0964 73.0372C50.3141 71.5205 51.8981 70.5454 53.8482 70.112C53.0898 67.0785 52.468 64.708 51.9826 63.0005C51.5492 63.4902 51.0281 64.0796 50.4192 64.7686C49.8104 65.4577 49.4517 65.8716 49.3434 66.0102C48.3684 67.28 47.623 68.2681 47.1072 68.9744C46.1842 70.2485 45.5059 71.3449 45.0726 72.2637C44.6132 73.2951 44.208 74.4197 43.857 75.6374C43.506 76.8032 43.3305 78.0491 43.3305 79.3752ZM56.897 38.0582C54.8644 39.0594 53.2675 40.4938 52.1061 42.3616C50.9143 44.2857 50.3185 46.3572 50.3185 48.576C50.3185 50.5262 50.806 53.1545 51.7811 56.4611C53.7312 54.1036 55.1938 51.9237 56.1689 49.9216C57.196 47.8068 57.7095 45.5988 57.7095 43.2977C57.7095 41.5642 57.4386 39.8177 56.897 38.0582Z" fill="black"/>
<path d="M88.6582 59.0999C88.6582 59.3729 88.8077 59.6308 89.1068 59.8735C89.5401 60.1985 89.8781 60.4433 90.1209 60.608C90.4459 60.7944 90.786 61.2277 91.1414 61.9081C91.4361 62.5581 91.5834 63.3555 91.5834 64.3003C91.5834 66.1724 90.8944 67.609 89.5163 68.6101C88.1079 69.6112 86.3202 70.1117 84.1534 70.1117C82.3896 70.1117 80.8988 69.6783 79.6811 68.8116C78.381 68.0012 77.731 66.8636 77.731 65.3989C77.731 64.6968 78.0018 64.0468 78.5435 63.4487C79.1112 62.933 79.7613 62.6752 80.4937 62.6752C81.252 62.6752 81.8761 62.946 82.3658 63.4877C82.9075 64.0034 83.1784 64.6405 83.1784 65.3989C83.1784 65.7499 82.9075 66.1291 82.3658 66.5364C81.7937 66.9178 81.5077 67.284 81.5077 67.635C81.5077 68.1507 81.7656 68.5299 82.2813 68.7726C82.797 69.0153 83.421 69.1366 84.1534 69.1366C85.0981 69.1366 85.7742 68.6773 86.1816 67.7585C86.5629 66.7531 86.7536 65.6004 86.7536 64.3003V63.6112C86.7536 62.8268 86.7254 62.1356 86.6691 61.5376C86.6171 61.0782 86.4286 60.66 86.1035 60.283C85.8045 59.9016 85.33 59.7109 84.6799 59.7109H81.3452C80.9682 59.7109 80.7797 59.5073 80.7797 59.0999C80.7797 58.7489 80.9682 58.5452 81.3452 58.4889H84.6799C85.4383 58.4889 85.98 58.2462 86.3051 57.7608C86.5737 57.3794 86.7233 56.7012 86.7536 55.7262V54.3871V54.0621C86.7536 51.5442 85.8327 50.2853 83.9909 50.2853C82.3658 50.2853 81.5381 50.7317 81.5077 51.6244C81.5077 51.9234 81.7656 52.2484 82.2813 52.5994C82.771 52.9505 83.0158 53.2755 83.0158 53.5745C83.0158 54.2506 82.771 54.8334 82.2813 55.3231C81.8219 55.7825 81.2542 56.0122 80.5782 56.0122C79.9281 56.0122 79.3712 55.7825 78.9075 55.3231C78.4482 54.8074 78.2185 54.2246 78.2185 53.5745C78.2185 52.3004 78.7884 51.2582 79.9281 50.4478C81.1199 49.6894 82.4741 49.3102 83.9909 49.3102C86.0191 49.3102 87.6983 49.7024 89.0288 50.4868C90.3549 51.2452 91.0179 52.4369 91.0179 54.0621C91.0179 55.2278 90.8965 56.1075 90.6539 56.7012C90.4069 57.3253 90.136 57.7045 89.8413 57.8388C89.5163 57.9775 89.2454 58.14 89.0288 58.3263C88.7817 58.517 88.6582 58.7749 88.6582 59.0999Z" fill="black"/>
<path d="M87.67 78.9267C89.0265 77.4359 89.7047 76.0274 89.7047 74.7013C89.7047 73.592 89.2301 72.7122 88.2811 72.0622C87.3623 71.4121 86.2247 71.0871 84.8683 71.0871C83.9193 71.0871 83.1609 71.3851 82.5932 71.9809C82.0255 72.5768 81.7416 73.2539 81.7416 74.0123C81.7416 74.9614 82.162 75.6916 83.0027 76.203L87.67 78.9267ZM88.9311 79.6157C91.2323 80.9461 92.3829 82.7208 92.3829 84.9396C92.3829 86.595 91.6938 87.9905 90.3157 89.1259C88.9333 90.3176 86.9961 90.9135 84.5043 90.9135C82.3895 90.9135 80.6149 90.3718 79.1804 89.2884C77.6637 88.205 76.9053 86.8096 76.9053 85.1021C76.9053 84.4824 77.096 83.8193 77.4773 83.113C77.8283 82.4889 78.1794 82.0014 78.5304 81.6504C78.6951 81.4337 79.2108 80.918 80.0775 80.1033C78.396 78.9115 77.5423 77.4359 77.5163 75.6764C77.5163 74.1857 78.1794 72.8726 79.5055 71.7371C80.8316 70.6538 82.6192 70.112 84.8683 70.112C86.6581 70.112 88.2291 70.5173 89.5812 71.3276C90.8813 72.1424 91.5313 73.2669 91.5313 74.7013C91.4793 76.1661 90.6126 77.8043 88.9311 79.6157ZM81.3321 80.8378C79.655 82.3286 78.7882 83.75 78.7319 85.1021C78.7319 86.4845 79.3148 87.6373 80.4805 88.5604C81.5899 89.4791 82.9312 89.9385 84.5043 89.9385C85.6137 89.9385 86.4804 89.5874 87.1045 88.8854C87.7545 88.2353 88.0796 87.4358 88.0796 86.4867C88.0796 85.321 87.605 84.4672 86.656 83.9255L81.3321 80.8378Z" fill="black"/>
<path fill-rule="evenodd" clip-rule="evenodd" d="M119.139 67.6209L238.611 57.1011V62.3213L119.139 72.8411V67.6209Z" fill="black"/>
<path fill-rule="evenodd" clip-rule="evenodd" d="M308.384 44.1685L425.026 38.9071V44.1127L308.384 49.374V44.1685Z" fill="black"/>
</svg>
