<svg width="512" height="140" viewBox="0 0 512 140" fill="none" xmlns="http://www.w3.org/2000/svg">
<path fill-rule="evenodd" clip-rule="evenodd" d="M480 47.6693H32V46.9354H480V47.6693Z" fill="black"/>
<path fill-rule="evenodd" clip-rule="evenodd" d="M480 56.8635H32V56.1296H480V56.8635Z" fill="black"/>
<path fill-rule="evenodd" clip-rule="evenodd" d="M480 66.0581H32V65.3242H480V66.0581Z" fill="black"/>
<path fill-rule="evenodd" clip-rule="evenodd" d="M480 75.2523H32V74.5184H480V75.2523Z" fill="black"/>
<path fill-rule="evenodd" clip-rule="evenodd" d="M480 84.4465H32V83.7126H480V84.4465Z" fill="black"/>
<path fill-rule="evenodd" clip-rule="evenodd" d="M470.253 84.4473V46.9347H471.725V84.4473H470.253Z" fill="black"/>
<path fill-rule="evenodd" clip-rule="evenodd" d="M475.403 84.4473V46.9347H480V84.4473H475.403Z" fill="black"/>
<path d="M103.624 104.732C103.624 105.188 103.397 105.416 102.943 105.416C102.489 105.416 102.262 105.188 102.262 104.732V99.4167L99.2105 100.566V106.381C99.2105 106.837 98.9826 107.065 98.5267 107.065C98.0708 107.065 97.8429 106.837 97.8429 106.381V101.031L96.6936 101.462C96.6706 101.485 96.5749 101.497 96.4063 101.497C96.2147 101.497 96.0471 101.425 95.9035 101.281C95.7598 101.138 95.688 100.97 95.688 100.779V98.5548C95.688 98.1946 95.8431 97.9667 96.1535 97.8709L97.8429 97.2963V91.4062L96.6936 91.8027C96.6706 91.8257 96.5749 91.8372 96.4063 91.8372C96.2147 91.8372 96.0471 91.7654 95.9035 91.6217C95.7598 91.478 95.688 91.3104 95.688 91.1189V88.8893C95.688 88.556 95.8431 88.3414 96.1535 88.2457L97.8429 87.5963V81.8154C97.8429 81.3596 98.0708 81.1316 98.5267 81.1316C98.9826 81.1316 99.2105 81.3596 99.2105 81.8154V87.1309L102.262 85.9816V80.1662C102.262 79.7103 102.489 79.4824 102.943 79.4824C103.397 79.4824 103.624 79.7103 103.624 80.1662V85.5161L104.813 85.0852C104.836 85.0622 104.919 85.0507 105.06 85.0507C105.229 85.0507 105.409 85.1215 105.601 85.2633C105.746 85.4089 105.819 85.5774 105.819 85.769V87.9928C105.819 88.33 105.65 88.5579 105.313 88.6767L103.624 89.2513V95.1414L104.813 94.7449C104.836 94.7219 104.919 94.7104 105.06 94.7104C105.229 94.7104 105.409 94.7832 105.601 94.9288C105.746 95.0705 105.819 95.2372 105.819 95.4287V97.6583C105.819 97.9686 105.65 98.1832 105.313 98.3019L103.624 98.9513V104.732ZM102.262 89.7915L99.2105 90.866V96.7561L102.262 95.6815V89.7915Z" fill="black"/>
<path d="M192 93.2738C192.694 93.9672 193.784 94.3139 195.27 94.3139C195.508 94.3139 195.626 94.4346 195.626 94.6759L195.954 97.8709C195.977 97.9667 195.952 98.051 195.879 98.1238C195.806 98.1965 195.722 98.2329 195.626 98.2329L192.397 97.9054C192.156 97.8824 192.035 97.7636 192.035 97.5491C192.035 96.0627 191.688 94.9728 190.995 94.2794C190.301 94.9728 189.955 96.0627 189.955 97.5491C189.955 97.7636 189.847 97.8824 189.633 97.9054L186.363 98.2329C186.267 98.2329 186.183 98.1965 186.11 98.1238C186.038 98.051 186.013 97.9667 186.036 97.8709L186.363 94.6759C186.363 94.4346 186.482 94.3139 186.719 94.3139C188.206 94.3139 189.296 93.9672 189.989 93.2738C189.296 92.5804 188.206 92.2337 186.719 92.2337C186.482 92.2337 186.363 92.113 186.363 91.8716L186.036 88.6766C186.013 88.5809 186.038 88.4966 186.11 88.4238C186.183 88.351 186.267 88.3146 186.363 88.3146L189.633 88.6421C189.847 88.6651 189.955 88.7839 189.955 88.9984C189.955 90.4848 190.301 91.5748 190.995 92.2681C191.688 91.5748 192.035 90.4848 192.035 88.9984C192.035 88.7839 192.156 88.6651 192.397 88.6421L195.626 88.3146C195.722 88.3146 195.806 88.351 195.879 88.4238C195.952 88.4966 195.977 88.5809 195.954 88.6766L195.626 91.8716C195.626 92.113 195.508 92.2337 195.27 92.2337C193.784 92.2337 192.694 92.5804 192 93.2738Z" fill="black"/>
<path d="M281.478 87.1656V90.0043C281.478 91.0118 281.526 91.8144 281.621 92.4121C282.411 91.7416 282.974 91.2398 283.311 90.9065C283.694 90.5234 284.077 89.9957 284.46 89.3233C284.843 88.651 285.035 87.9796 285.035 87.3092C285.035 86.6388 284.891 86.0642 284.604 85.5853C284.316 85.1064 283.933 84.867 283.455 84.867C282.88 84.867 282.401 85.0834 282.018 85.5163C281.658 85.9952 281.478 86.5449 281.478 87.1656ZM279.966 93.7394L279.501 71.8686C279.838 71.677 280.174 71.5813 280.509 71.5813C280.845 71.5813 281.179 71.677 281.512 71.8686L281.225 84.5452C282.206 83.7062 283.332 83.2867 284.604 83.2867C285.535 83.2867 286.311 83.6698 286.934 84.436C287.557 85.2022 287.868 86.0776 287.868 87.0621C287.868 87.6827 287.665 88.3417 287.259 89.0389C286.876 89.6825 286.469 90.1843 286.04 90.5445C285.799 90.736 285.188 91.2149 284.207 91.9811C283.92 92.1956 283.579 92.4465 283.184 92.7339C282.79 93.0212 282.545 93.2012 282.449 93.274C282.28 93.3698 282.123 93.5613 281.978 93.8486C281.813 94.09 281.621 94.293 281.403 94.4578C281.238 94.6033 281.036 94.6761 280.797 94.6761C280.557 94.6761 280.365 94.5918 280.219 94.4233C280.051 94.2547 279.966 94.0268 279.966 93.7394Z" fill="black"/>
<path d="M371.723 87.1656L371.649 90.0043C371.649 91.0118 371.697 91.8144 371.792 92.4121C373.926 90.6153 374.993 88.9144 374.993 87.3092C374.993 86.6158 374.872 86.0412 374.631 85.5853C374.367 85.1064 373.995 84.867 373.516 84.867C372.968 84.867 372.537 85.0834 372.223 85.5163C371.936 85.9454 371.769 86.4951 371.723 87.1656ZM370.143 93.7394L370.034 89.8606C369.509 90.4851 368.839 91.144 368.023 91.8374C367.184 92.5806 366.657 93.0595 366.442 93.274C366.347 93.3698 366.228 93.5613 366.086 93.8486C365.845 94.1858 365.676 94.3888 365.58 94.4578C365.389 94.6033 365.197 94.6761 365.006 94.6761C364.768 94.6761 364.577 94.5918 364.431 94.4233C364.263 94.2547 364.178 94.0268 364.178 93.7394L363.713 71.8686C364.05 71.677 364.386 71.5813 364.721 71.5813C365.057 71.5813 365.391 71.677 365.724 71.8686L365.437 84.5452C366.13 83.7062 366.992 83.2867 368.023 83.2867C368.766 83.2867 369.4 83.5511 369.925 84.0797L369.678 71.8686C370.011 71.677 370.345 71.5813 370.68 71.5813C371.016 71.5813 371.352 71.677 371.689 71.8686L371.436 84.5452C372.417 83.7062 373.482 83.2867 374.631 83.2867C375.589 83.2867 376.403 83.6583 377.073 84.4015C377.721 85.1447 378.044 86.0182 378.044 87.0219C378.044 87.6923 377.841 88.3646 377.435 89.0389C377.002 89.6825 376.594 90.1728 376.211 90.51C375.805 90.8433 375.183 91.3221 374.344 91.9466C373.673 92.4484 373.099 92.8909 372.62 93.274C372.547 93.3238 372.403 93.5039 372.189 93.8142C372.02 94.0517 371.829 94.2547 371.614 94.4233C371.446 94.5918 371.243 94.6761 371.005 94.6761C370.791 94.6761 370.588 94.5804 370.396 94.3888C370.227 94.2202 370.143 94.0038 370.143 93.7394ZM365.328 90.0043C365.328 90.8203 365.389 91.6478 365.512 92.4867C367.235 90.8088 368.097 89.0829 368.097 87.3092C368.097 85.6811 367.689 84.867 366.873 84.867C365.916 84.867 365.425 85.6332 365.402 87.1656L365.328 90.0043Z" fill="black"/>
<path fill-rule="evenodd" clip-rule="evenodd" d="M106.183 92.538H125.276V94.0096H106.183V92.538Z" fill="black"/>
<path fill-rule="evenodd" clip-rule="evenodd" d="M196.327 92.538H215.42V94.0096H196.327V92.538Z" fill="black"/>
<path fill-rule="evenodd" clip-rule="evenodd" d="M121.185 60.497C121.514 60.497 121.782 60.7642 121.782 61.0939V91.5471C121.782 91.8767 121.514 92.1439 121.185 92.1439C120.855 92.1439 120.588 91.8767 120.588 91.5471V61.0939C120.588 60.7642 120.855 60.497 121.185 60.497Z" fill="black"/>
<path fill-rule="evenodd" clip-rule="evenodd" d="M211.329 60.497C211.658 60.497 211.926 60.7642 211.926 61.0939V91.5471C211.926 91.8767 211.658 92.1439 211.329 92.1439C210.999 92.1439 210.732 91.8767 210.732 91.5471V61.0939C210.732 60.7642 210.999 60.497 211.329 60.497Z" fill="black"/>
<path fill-rule="evenodd" clip-rule="evenodd" d="M301.473 55.8997C301.802 55.8997 302.07 56.1669 302.07 56.4965V86.9498C302.07 87.2794 301.802 87.5466 301.473 87.5466C301.143 87.5466 300.876 87.2794 300.876 86.9498V56.4965C300.876 56.1669 301.143 55.8997 301.473 55.8997Z" fill="black"/>
<path fill-rule="evenodd" clip-rule="evenodd" d="M391.616 55.8997C391.946 55.8997 392.213 56.1669 392.213 56.4965V86.9498C392.213 87.2794 391.946 87.5466 391.616 87.5466C391.287 87.5466 391.02 87.2794 391.02 86.9498V56.4965C391.02 56.1669 391.287 55.8997 391.616 55.8997Z" fill="black"/>
<path d="M117.757 88.2112C118.906 88.2112 119.877 88.5101 120.67 89.1077C121.41 89.7551 121.779 90.5692 121.779 91.5499C121.779 93.201 120.931 94.7449 119.234 96.1815C117.51 97.6181 115.665 98.3364 113.7 98.3364C112.55 98.3364 111.581 98.0376 110.792 97.44C110.049 96.7926 109.677 95.9785 109.677 94.9978C109.677 93.3466 110.539 91.8027 112.263 90.3661C113.941 88.9295 115.772 88.2112 117.757 88.2112Z" fill="black"/>
<path d="M207.901 88.2112C209.05 88.2112 210.021 88.5101 210.814 89.1077C211.554 89.7551 211.923 90.5692 211.923 91.5499C211.923 93.201 211.075 94.7449 209.378 96.1815C207.654 97.6181 205.809 98.3364 203.844 98.3364C202.694 98.3364 201.725 98.0376 200.936 97.44C200.193 96.7926 199.821 95.9785 199.821 94.9978C199.821 93.3466 200.683 91.8027 202.407 90.3661C204.085 88.9295 205.916 88.2112 207.901 88.2112Z" fill="black"/>
<path d="M298.045 83.6143C299.194 83.6143 300.165 83.9131 300.958 84.5107C301.698 85.1581 302.067 85.9722 302.067 86.9529C302.067 88.6041 301.219 90.148 299.522 91.5846C297.798 93.0212 295.953 93.7395 293.988 93.7395C292.839 93.7395 291.869 93.4406 291.08 92.843C290.337 92.1956 289.965 91.3815 289.965 90.4008C289.965 88.7497 290.827 87.2058 292.551 85.7692C294.229 84.3326 296.06 83.6143 298.045 83.6143Z" fill="black"/>
<path d="M388.19 83.6143C389.339 83.6143 390.31 83.9131 391.103 84.5107C391.843 85.1581 392.212 85.9722 392.212 86.9529C392.212 88.6041 391.364 90.148 389.667 91.5846C387.943 93.0212 386.098 93.7395 384.133 93.7395C382.984 93.7395 382.014 93.4406 381.225 92.843C380.482 92.1956 380.11 91.3815 380.11 90.4008C380.11 88.7497 380.972 87.2058 382.696 85.7692C384.374 84.3326 386.205 83.6143 388.19 83.6143Z" fill="black"/>
<path d="M52.8596 65.4727C52.8596 65.4727 52.9324 65.4727 53.0779 65.4727C53.1737 65.4498 53.2561 65.4383 53.325 65.4383C56.0067 65.4383 58.2095 66.3845 59.9334 68.277C61.6573 70.1427 62.5193 72.3206 62.5193 74.8107C62.5193 77.9023 61.2398 80.4173 58.6807 82.3557C58.0103 82.8844 57.1349 83.3154 56.0546 83.6487C56.1772 85.2041 56.2385 86.4606 56.2385 87.4183C56.2385 87.6099 56.2135 88.3052 56.1637 89.5043C56.068 91.7301 55.3018 93.657 53.8652 95.2852C52.4784 96.8903 50.7545 97.6929 48.6934 97.6929C46.7549 97.6929 45.1038 97.011 43.74 95.6472C42.3723 94.2566 41.6885 92.5805 41.6885 90.6191C41.6885 89.5886 42.085 88.7132 42.878 87.993C43.6902 87.2766 44.6345 86.9184 45.711 86.9184C46.6687 86.9184 47.4713 87.29 48.1188 88.0332C48.7892 88.7266 49.1244 89.5886 49.1244 90.6191C49.1244 91.55 48.7892 92.3507 48.1188 93.0211C47.4483 93.6915 46.6458 94.0267 45.711 94.0267C45.3279 94.0267 44.9582 93.9559 44.6019 93.8141C45.6555 95.3695 47.0557 96.1472 48.8026 96.1472C50.4537 96.1472 51.8061 95.4767 52.8596 94.1359C53.9629 92.7491 54.5624 91.1324 54.6582 89.2859C54.7042 88.1367 54.7272 87.4796 54.7272 87.3149C54.7272 85.9741 54.6793 84.8727 54.5835 84.0107C53.3882 84.2022 52.3232 84.2981 51.3885 84.2981C48.0594 84.2981 45.2226 82.9802 42.878 80.3445C40.5795 77.6858 39.4302 74.5253 39.4302 70.8629C39.4302 70.0967 39.501 69.319 39.6428 68.5298C39.7884 67.8824 39.9684 67.1756 40.183 66.4094C40.3017 65.9765 40.6254 65.2812 41.1541 64.3235C41.3456 64.0362 41.5611 63.677 41.8006 63.246C42.04 62.815 42.2076 62.5287 42.3034 62.3869C42.5409 61.908 43.0064 61.2606 43.6998 60.4447C43.8913 60.2301 44.0896 59.9916 44.2945 59.7292C44.4995 59.4668 44.6738 59.2513 44.8175 59.0827C44.9611 58.9142 45.0684 58.782 45.1393 58.6862C45.2101 58.5905 45.7493 57.9564 46.7569 56.7842C46.9944 56.5428 47.2271 56.2852 47.455 56.0113C47.683 55.7374 47.8688 55.5219 48.0125 55.3648C48.1561 55.2077 48.2644 55.0947 48.3371 55.0258C47.4752 52.1755 46.935 49.9 46.7166 48.199C46.5519 46.8352 46.4696 44.9676 46.4696 42.5963C46.4696 40.5122 46.9484 38.5604 47.9061 36.7406C48.8371 34.8521 50.1415 33.3082 51.8194 32.1089C51.9152 32.0364 52.034 32 52.1757 32C52.3443 32 52.465 32.0364 52.5378 32.1089C53.8288 33.6645 54.9417 35.6873 55.8764 38.1773C56.8342 40.6674 57.313 42.9315 57.313 44.9695C57.313 47.2681 56.7633 49.423 55.6638 51.4343C54.4187 53.5642 52.8136 55.767 50.8483 58.0426C51.3502 59.621 52.0206 62.0977 52.8596 65.4727ZM55.9109 82.1776C57.1559 81.7217 58.1271 80.9441 58.8243 79.8446C59.5905 78.791 59.9736 77.6054 59.9736 76.2875C59.9736 74.5866 59.399 73.0772 58.2497 71.7593C57.0736 70.3955 55.5757 69.6293 53.756 69.4608C54.7865 74.5138 55.5048 78.7527 55.9109 82.1776ZM42.0161 73.8798C42.0161 76.2511 42.9738 78.3352 44.8893 80.1319C46.8507 81.8788 49.0535 82.7522 51.4976 82.7522C52.5014 82.7522 53.4821 82.6794 54.4398 82.5339C54.0567 78.8945 53.302 74.5368 52.1757 69.4608C50.8119 69.6063 49.7239 70.0852 48.9118 70.8974C48.1188 71.7364 47.7223 72.6826 47.7223 73.7361C47.7223 75.5558 48.6934 77.0288 50.6357 78.1551C50.8004 78.3237 50.8828 78.5037 50.8828 78.6953C50.8828 78.8868 50.8004 79.065 50.6357 79.2297C50.4901 79.3982 50.3101 79.4825 50.0955 79.4825C50.0725 79.4825 49.9653 79.4595 49.7737 79.4136C48.4061 78.6704 47.3526 77.7126 46.6132 76.5404C45.916 75.2915 45.5673 74.033 45.5673 72.765C45.5673 71.1138 46.0826 69.6178 47.1132 68.277C48.1896 66.9362 49.5898 66.0742 51.3138 65.6911C50.6434 63.0094 50.0936 60.9139 49.6646 59.4045C49.2815 59.8374 48.8208 60.3584 48.2825 60.9675C47.7443 61.5767 47.4273 61.9425 47.3315 62.0651C46.4696 63.1876 45.8106 64.0611 45.3547 64.6855C44.5388 65.8118 43.9392 66.781 43.5561 67.5932C43.15 68.5049 42.7918 69.4991 42.4815 70.5756C42.1712 71.6061 42.0161 72.7075 42.0161 73.8798ZM54.0089 37.3555C52.2121 38.2405 50.8004 39.5085 49.7737 41.1597C48.7202 42.8606 48.1935 44.6918 48.1935 46.6532C48.1935 48.3772 48.6244 50.7006 49.4864 53.6236C51.2103 51.5396 52.5033 49.6126 53.3653 47.8427C54.2732 45.9732 54.7272 44.0214 54.7272 41.9871C54.7272 40.4548 54.4877 38.9109 54.0089 37.3555Z" fill="black"/>
<path d="M80.0803 47.7362C80.7966 47.7362 81.4067 47.6529 81.9105 47.4863C82.4142 47.3196 82.737 47.2363 82.8787 47.2363C83.0473 47.2363 83.1795 47.2842 83.2753 47.38C83.3481 47.4489 83.3959 47.5313 83.4189 47.6271C83.4189 47.6769 83.394 47.7497 83.3442 47.8454L72.8972 59.9876H79.0344V55.1721C79.0344 54.8618 79.1187 54.5975 79.2872 54.3791C79.5746 54.1416 79.814 53.9979 80.0055 53.9481C80.3159 53.8064 80.6989 53.4712 81.1548 52.9425C81.5379 52.5134 81.9938 51.7607 82.5225 50.6841C82.5914 50.5386 82.6987 50.4658 82.8443 50.4658C83.1316 50.4658 83.2983 50.6344 83.3442 50.9715V59.9876H85.9703C86.3036 59.9876 86.4952 60.1658 86.545 60.5221C86.545 60.8821 86.3534 61.0622 85.9703 61.0622H83.3442V61.3495C83.3442 62.3073 83.5836 63.1214 84.0625 63.7918C84.6142 64.4622 85.2616 64.7974 86.0048 64.7974C86.2921 64.7974 86.4358 64.941 86.4358 65.2283C86.4358 65.5157 86.2921 65.6593 86.0048 65.6593C85.5029 65.6593 84.6889 65.5885 83.5626 65.4467C82.532 65.2781 81.7295 65.1939 81.1548 65.1939C80.5572 65.1939 79.7546 65.2781 78.7471 65.4467C77.6706 65.5885 76.8699 65.6593 76.3451 65.6593C76.0578 65.6593 75.9141 65.5157 75.9141 65.2283C75.9141 64.941 76.0578 64.7974 76.3451 64.7974C77.0844 64.7974 77.7299 64.4622 78.2816 63.7918C78.7835 63.0984 79.0344 62.2843 79.0344 61.3495V61.0622H72.8972C72.4873 61.0622 72.2 60.9664 72.0353 60.7749C71.8399 60.6331 71.7422 60.4416 71.7422 60.2003C71.7422 60.1274 71.9222 59.8765 72.2824 59.4475C72.6923 58.9686 73.1232 58.3825 73.5753 57.6891C74.104 56.8731 74.6077 56.0341 75.0866 55.1721C75.6114 54.1914 76.0309 53.0651 76.3451 51.7932C76.7014 50.5022 76.8795 49.1863 76.8795 47.8454C76.8795 47.4623 77.0481 47.2708 77.3852 47.2708C77.4579 47.2708 77.6131 47.3072 77.8506 47.38C77.9234 47.403 78.0738 47.4384 78.3017 47.4863C78.5297 47.5342 78.7145 47.5811 78.8562 47.6271C79.2891 47.6999 79.6972 47.7362 80.0803 47.7362Z" fill="black"/>
<path d="M80.0803 66.1881C80.7966 66.1881 81.4067 66.1048 81.9105 65.9381C82.4142 65.7715 82.737 65.6881 82.8787 65.6881C83.0473 65.6881 83.1795 65.7361 83.2753 65.8318C83.3481 65.9008 83.3959 65.9831 83.4189 66.0789C83.4189 66.1287 83.394 66.2015 83.3442 66.2973L72.8972 78.4395H79.0344V73.624C79.0344 73.3137 79.1187 73.0493 79.2872 72.831C79.5746 72.5934 79.814 72.4498 80.0055 72.4C80.3159 72.2582 80.6989 71.923 81.1548 71.3944C81.5379 70.9653 81.9938 70.2125 82.5225 69.136C82.5914 68.9904 82.6987 68.9176 82.8443 68.9176C83.1316 68.9176 83.2983 69.0862 83.3442 69.4233V78.4395H85.9703C86.3036 78.4395 86.4952 78.6176 86.545 78.9739C86.545 79.334 86.3534 79.514 85.9703 79.514H83.3442V79.8014C83.3442 80.7591 83.5836 81.5732 84.0625 82.2436C84.6142 82.914 85.2616 83.2492 86.0048 83.2492C86.2921 83.2492 86.4358 83.3929 86.4358 83.6802C86.4358 83.9675 86.2921 84.1112 86.0048 84.1112C85.5029 84.1112 84.6889 84.0403 83.5626 83.8986C82.532 83.73 81.7295 83.6457 81.1548 83.6457C80.5572 83.6457 79.7546 83.73 78.7471 83.8986C77.6706 84.0403 76.8699 84.1112 76.3451 84.1112C76.0578 84.1112 75.9141 83.9675 75.9141 83.6802C75.9141 83.3929 76.0578 83.2492 76.3451 83.2492C77.0844 83.2492 77.7299 82.914 78.2816 82.2436C78.7835 81.5502 79.0344 80.7361 79.0344 79.8014V79.514H72.8972C72.4873 79.514 72.2 79.4183 72.0353 79.2267C71.8399 79.085 71.7422 78.8934 71.7422 78.6521C71.7422 78.5793 71.9222 78.3284 72.2824 77.8993C72.6923 77.4204 73.1232 76.8343 73.5753 76.1409C74.104 75.3249 74.6077 74.4859 75.0866 73.624C75.6114 72.6432 76.0309 71.5169 76.3451 70.2451C76.7014 68.9541 76.8795 67.6381 76.8795 66.2973C76.8795 65.9142 77.0481 65.7226 77.3852 65.7226C77.4579 65.7226 77.6131 65.759 77.8506 65.8318C77.9234 65.8548 78.0738 65.8902 78.3017 65.9381C78.5297 65.986 78.7145 66.0329 78.8562 66.0789C79.2891 66.1517 79.6972 66.1881 80.0803 66.1881Z" fill="black"/>
</svg>
