<svg width="512" height="168" viewBox="0 0 512 168" fill="none" xmlns="http://www.w3.org/2000/svg">
<path fill-rule="evenodd" clip-rule="evenodd" d="M480 49.9504H32V49.1096H480V49.9504Z" fill="black"/>
<path fill-rule="evenodd" clip-rule="evenodd" d="M480 60.4831H32V59.6423H480V60.4831Z" fill="black"/>
<path fill-rule="evenodd" clip-rule="evenodd" d="M480 71.0162H32V70.1754H480V71.0162Z" fill="black"/>
<path fill-rule="evenodd" clip-rule="evenodd" d="M480 81.5489H32V80.708H480V81.5489Z" fill="black"/>
<path fill-rule="evenodd" clip-rule="evenodd" d="M480 92.0815H32V91.2407H480V92.0815Z" fill="black"/>
<path fill-rule="evenodd" clip-rule="evenodd" d="M468.834 92.0824V49.1088H470.52V92.0824H468.834Z" fill="black"/>
<path fill-rule="evenodd" clip-rule="evenodd" d="M474.734 92.0824V49.1088H480V92.0824H474.734Z" fill="black"/>
<path fill-rule="evenodd" clip-rule="evenodd" d="M104.959 101.351H126.832V103.037H104.959V101.351Z" fill="black"/>
<path fill-rule="evenodd" clip-rule="evenodd" d="M122.144 64.6455C122.521 64.6455 122.827 64.9516 122.827 65.3292V100.216C122.827 100.593 122.521 100.899 122.144 100.899C121.766 100.899 121.46 100.593 121.46 100.216V65.3292C121.46 64.9516 121.766 64.6455 122.144 64.6455Z" fill="black"/>
<path fill-rule="evenodd" clip-rule="evenodd" d="M212.112 59.379C212.49 59.379 212.796 59.6851 212.796 60.0626V94.9492C212.796 95.3268 212.49 95.6329 212.112 95.6329C211.735 95.6329 211.429 95.3268 211.429 94.9492V60.0626C211.429 59.6851 211.735 59.379 212.112 59.379Z" fill="black"/>
<path fill-rule="evenodd" clip-rule="evenodd" d="M302.081 54.1129C302.458 54.1129 302.764 54.419 302.764 54.7966V89.6831C302.764 90.0607 302.458 90.3668 302.081 90.3668C301.703 90.3668 301.397 90.0607 301.397 89.6831V54.7966C301.397 54.419 301.703 54.1129 302.081 54.1129Z" fill="black"/>
<path d="M118.218 96.3943C119.534 96.3943 120.647 96.7366 121.555 97.4212C122.402 98.1629 122.826 99.0955 122.826 100.219C122.826 102.11 121.854 103.879 119.909 105.525C117.935 107.171 115.821 107.993 113.57 107.993C112.253 107.993 111.143 107.651 110.239 106.967C109.388 106.225 108.962 105.292 108.962 104.169C108.962 102.277 109.949 100.509 111.924 98.8629C113.846 97.2171 115.944 96.3943 118.218 96.3943Z" fill="black"/>
<path d="M208.186 91.1281C209.502 91.1281 210.615 91.4704 211.523 92.1551C212.37 92.8967 212.794 93.8293 212.794 94.9528C212.794 96.8443 211.822 98.6129 209.878 100.259C207.903 101.904 205.79 102.727 203.538 102.727C202.222 102.727 201.111 102.385 200.207 101.7C199.356 100.959 198.93 100.026 198.93 98.9026C198.93 97.0111 199.918 95.2425 201.893 93.5967C203.815 91.951 205.912 91.1281 208.186 91.1281Z" fill="black"/>
<path d="M298.154 85.8615C299.471 85.8615 300.583 86.2038 301.492 86.8885C302.339 87.6301 302.762 88.5627 302.762 89.6862C302.762 91.5777 301.79 93.3463 299.846 94.9921C297.871 96.6378 295.758 97.4607 293.507 97.4607C292.19 97.4607 291.08 97.1184 290.176 96.4337C289.324 95.6921 288.898 94.7595 288.898 93.636C288.898 91.7445 289.886 89.9759 291.861 88.3301C293.783 86.6844 295.881 85.8615 298.154 85.8615Z" fill="black"/>
<path d="M55.8966 70.3456C55.8966 70.3456 55.98 70.3456 56.1467 70.3456C56.2565 70.3193 56.3508 70.3061 56.4298 70.3061C59.5018 70.3061 62.0253 71.3901 64.0002 73.5581C65.9751 75.6954 66.9626 78.1903 66.9626 81.0429C66.9626 84.5846 65.4967 87.4657 62.5651 89.6864C61.7971 90.292 60.7943 90.7857 59.5567 91.1675C59.6972 92.9493 59.7674 94.3888 59.7674 95.4859C59.7674 95.7054 59.7388 96.5019 59.6818 97.8756C59.5721 100.425 58.6944 102.633 57.0486 104.498C55.4599 106.337 53.485 107.256 51.1239 107.256C48.9033 107.256 47.0118 106.475 45.4494 104.913C43.8827 103.32 43.0993 101.4 43.0993 99.1527C43.0993 97.9721 43.5535 96.9693 44.462 96.1442C45.3924 95.3236 46.4742 94.9132 47.7074 94.9132C48.8045 94.9132 49.724 95.3389 50.4656 96.1903C51.2336 96.9847 51.6177 97.9721 51.6177 99.1527C51.6177 100.219 51.2336 101.136 50.4656 101.904C49.6976 102.672 48.7782 103.056 47.7074 103.056C47.2685 103.056 46.845 102.975 46.4369 102.813C47.6437 104.595 49.2478 105.485 51.249 105.485C53.1405 105.485 54.6897 104.717 55.8966 103.181C57.1605 101.593 57.8474 99.7407 57.9571 97.6254C58.0097 96.3088 58.0361 95.5562 58.0361 95.3675C58.0361 93.8314 57.9812 92.5697 57.8715 91.5822C56.5022 91.8017 55.2822 91.9114 54.2114 91.9114C50.3976 91.9114 47.1478 90.4017 44.462 87.3823C41.8288 84.3366 40.5122 80.716 40.5122 76.5204C40.5122 75.6427 40.5934 74.7518 40.7558 73.8477C40.9225 73.106 41.1288 72.2964 41.3746 71.4186C41.5106 70.9227 41.8815 70.1262 42.4871 69.029C42.7065 68.6999 42.9534 68.2884 43.2277 67.7947C43.502 67.301 43.694 66.9729 43.8037 66.8105C44.0758 66.262 44.609 65.5203 45.4033 64.5855C45.6228 64.3397 45.8499 64.0666 46.0847 63.7659C46.3195 63.4653 46.5191 63.2185 46.6838 63.0253C46.8483 62.8322 46.9712 62.6808 47.0524 62.5711C47.1336 62.4614 47.7513 61.7351 48.9055 60.3921C49.1776 60.1157 49.4442 59.8205 49.7053 59.5068C49.9664 59.193 50.1793 58.9461 50.3439 58.7662C50.5084 58.5862 50.6324 58.4568 50.7158 58.3778C49.7283 55.1126 49.1096 52.5058 48.8594 50.5572C48.6707 48.9949 48.5764 46.8554 48.5764 44.1388C48.5764 41.7514 49.1249 39.5154 50.2221 37.4307C51.2885 35.2673 52.7828 33.4986 54.7051 32.1247C54.8148 32.0417 54.9509 32 55.1132 32C55.3063 32 55.4445 32.0417 55.528 32.1247C57.0069 33.9068 58.2818 36.2241 59.3527 39.0765C60.4498 41.9291 60.9984 44.5228 60.9984 46.8576C60.9984 49.4908 60.3686 51.9594 59.1091 54.2634C57.6828 56.7035 55.844 59.227 53.5926 61.8338C54.1675 63.642 54.9355 66.4792 55.8966 70.3456ZM59.3921 89.4823C60.8184 88.96 61.931 88.0692 62.7297 86.8096C63.6074 85.6027 64.0463 84.2444 64.0463 82.7347C64.0463 80.7862 63.388 79.0571 62.0714 77.5474C60.7241 75.985 59.0082 75.1073 56.9236 74.9142C58.1041 80.7028 58.927 85.5588 59.3921 89.4823ZM43.4745 79.9765C43.4745 82.693 44.5717 85.0805 46.766 87.1387C49.013 89.14 51.5365 90.1406 54.3364 90.1406C55.4863 90.1406 56.6098 90.0572 57.7069 89.8904C57.2681 85.7212 56.4035 80.7291 55.1132 74.9142C53.5508 75.0809 52.3045 75.6295 51.3741 76.5599C50.4656 77.521 50.0114 78.605 50.0114 79.8119C50.0114 81.8965 51.1239 83.5839 53.349 84.8742C53.5377 85.0673 53.6321 85.2736 53.6321 85.493C53.6321 85.7124 53.5377 85.9165 53.349 86.1052C53.1822 86.2983 52.976 86.3949 52.7302 86.3949C52.7038 86.3949 52.581 86.3685 52.3615 86.3159C50.7948 85.4645 49.5879 84.3673 48.7409 83.0244C47.9422 81.5937 47.5428 80.152 47.5428 78.6994C47.5428 76.8079 48.1331 75.0941 49.3136 73.5581C50.5468 72.0221 52.1509 71.0346 54.1258 70.5958C53.3578 67.5237 52.728 65.1231 52.2365 63.394C51.7976 63.8899 51.2699 64.4868 50.6532 65.1845C50.0367 65.8824 49.6735 66.3015 49.5638 66.4419C48.5764 67.7278 47.8215 68.7284 47.2992 69.4437C46.3645 70.734 45.6776 71.8443 45.2388 72.7747C44.7736 73.8192 44.3632 74.9581 44.0078 76.1913C43.6523 77.3718 43.4745 78.6336 43.4745 79.9765ZM57.2132 38.1351C55.1549 39.149 53.5377 40.6016 52.3615 42.4931C51.1546 44.4417 50.5512 46.5394 50.5512 48.7864C50.5512 50.7613 51.0449 53.423 52.0324 56.7715C54.0073 54.3841 55.4884 52.1766 56.4759 50.149C57.516 48.0074 58.0361 45.7714 58.0361 43.441C58.0361 41.6856 57.7618 39.917 57.2132 38.1351Z" fill="black"/>
<path d="M87.0797 50.0271C87.9004 50.0271 88.5993 49.9316 89.1764 49.7407C89.7535 49.5498 90.1232 49.4543 90.2856 49.4543C90.4787 49.4543 90.6301 49.5092 90.7399 49.6189C90.8232 49.6979 90.8781 49.7923 90.9044 49.902C90.9044 49.9591 90.8759 50.0424 90.8189 50.1521L78.851 64.0619H85.8816V58.5454C85.8816 58.1899 85.9782 57.8871 86.1713 57.637C86.5004 57.3649 86.7747 57.2003 86.9941 57.1433C87.3496 56.9809 87.7885 56.5969 88.3107 55.9912C88.7496 55.4997 89.2718 54.6373 89.8775 53.4041C89.9565 53.2374 90.0793 53.154 90.2461 53.154C90.5753 53.154 90.7662 53.3471 90.8189 53.7333V64.0619H93.8273C94.2091 64.0619 94.4285 64.266 94.4856 64.6742C94.4856 65.0867 94.2661 65.293 93.8273 65.293H90.8189V65.6221C90.8189 66.7193 91.0931 67.6519 91.6417 68.4199C92.2737 69.1879 93.0154 69.5719 93.8667 69.5719C94.1959 69.5719 94.3605 69.7365 94.3605 70.0656C94.3605 70.3948 94.1959 70.5593 93.8667 70.5593C93.2918 70.5593 92.3592 70.4781 91.069 70.3158C89.8884 70.1226 88.969 70.0261 88.3107 70.0261C87.6261 70.0261 86.7067 70.1226 85.5525 70.3158C84.3193 70.4781 83.402 70.5593 82.8008 70.5593C82.4717 70.5593 82.3071 70.3948 82.3071 70.0656C82.3071 69.7365 82.4717 69.5719 82.8008 69.5719C83.6478 69.5719 84.3873 69.1879 85.0192 68.4199C85.5942 67.6255 85.8816 66.6929 85.8816 65.6221V65.293H78.851C78.3814 65.293 78.0523 65.1833 77.8636 64.9638C77.6397 64.8014 77.5278 64.582 77.5278 64.3055C77.5278 64.2221 77.7341 63.9347 78.1466 63.4431C78.6162 62.8946 79.1099 62.2231 79.6278 61.4288C80.2334 60.494 80.8105 59.5329 81.3591 58.5454C81.9604 57.4219 82.4409 56.1317 82.8008 54.6747C83.209 53.1957 83.413 51.6882 83.413 50.1521C83.413 49.7133 83.6061 49.4938 83.9923 49.4938C84.0757 49.4938 84.2534 49.5356 84.5255 49.6189C84.6089 49.6453 84.7812 49.6858 85.0423 49.7407C85.3034 49.7955 85.5152 49.8493 85.6775 49.902C86.1735 49.9854 86.6409 50.0271 87.0797 50.0271Z" fill="black"/>
<path d="M87.0797 71.1651C87.9004 71.1651 88.5993 71.0696 89.1764 70.8787C89.7535 70.6878 90.1232 70.5923 90.2856 70.5923C90.4787 70.5923 90.6301 70.6472 90.7399 70.757C90.8232 70.8359 90.8781 70.9303 90.9044 71.04C90.9044 71.0971 90.8759 71.1805 90.8189 71.2902L78.851 85.2H85.8816V79.6834C85.8816 79.328 85.9782 79.0251 86.1713 78.775C86.5004 78.5029 86.7747 78.3383 86.9941 78.2813C87.3496 78.1189 87.7885 77.7349 88.3107 77.1292C88.7496 76.6377 89.2718 75.7753 89.8775 74.5421C89.9565 74.3754 90.0793 74.292 90.2461 74.292C90.5753 74.292 90.7662 74.4851 90.8189 74.8713V85.2H93.8273C94.2091 85.2 94.4285 85.404 94.4856 85.8122C94.4856 86.2247 94.2661 86.431 93.8273 86.431H90.8189V86.7601C90.8189 87.8573 91.0931 88.7899 91.6417 89.5579C92.2737 90.3259 93.0154 90.7099 93.8667 90.7099C94.1959 90.7099 94.3605 90.8745 94.3605 91.2036C94.3605 91.5328 94.1959 91.6973 93.8667 91.6973C93.2918 91.6973 92.3592 91.6162 91.069 91.4538C89.8884 91.2607 88.969 91.1641 88.3107 91.1641C87.6261 91.1641 86.7067 91.2607 85.5525 91.4538C84.3193 91.6162 83.402 91.6973 82.8008 91.6973C82.4717 91.6973 82.3071 91.5328 82.3071 91.2036C82.3071 90.8745 82.4717 90.7099 82.8008 90.7099C83.6478 90.7099 84.3873 90.3259 85.0192 89.5579C85.5942 88.7636 85.8816 87.8309 85.8816 86.7601V86.431H78.851C78.3814 86.431 78.0523 86.3213 77.8636 86.1018C77.6397 85.9394 77.5278 85.72 77.5278 85.4436C77.5278 85.3601 77.7341 85.0727 78.1466 84.5812C78.6162 84.0326 79.1099 83.3611 79.6278 82.5668C80.2334 81.632 80.8105 80.6709 81.3591 79.6834C81.9604 78.5599 82.4409 77.2697 82.8008 75.8127C83.209 74.3337 83.413 72.8262 83.413 71.2902C83.413 70.8513 83.6061 70.6319 83.9923 70.6319C84.0757 70.6319 84.2534 70.6736 84.5255 70.757C84.6089 70.7833 84.7812 70.8239 85.0423 70.8787C85.3034 70.9336 85.5152 70.9873 85.6775 71.04C86.1735 71.1234 86.6409 71.1651 87.0797 71.1651Z" fill="black"/>
<path d="M104.336 126.375H111.41V121.85C111.41 121.009 111.293 120.468 111.058 120.227C110.824 119.986 110.255 119.826 109.353 119.746V119.302H115.849V119.746C114.946 119.826 114.378 119.986 114.143 120.227C113.909 120.468 113.792 121.009 113.792 121.85V132.214C113.792 133.041 113.917 133.58 114.167 133.83C114.416 134.079 114.977 134.242 115.849 134.317V134.762H109.353V134.317C110.255 134.255 110.824 134.092 111.058 133.826C111.293 133.561 111.41 132.939 111.41 131.962V127.403H104.336V132.214C104.336 133.041 104.46 133.58 104.708 133.83C104.956 134.079 105.516 134.242 106.387 134.317V134.762H99.8975V134.317C100.8 134.255 101.368 134.092 101.603 133.826C101.837 133.561 101.954 132.939 101.954 131.962V121.85C101.954 121.009 101.837 120.468 101.603 120.227C101.368 119.986 100.8 119.826 99.8975 119.746V119.302H106.387V119.746C105.485 119.826 104.917 119.986 104.685 120.227C104.453 120.468 104.336 121.009 104.336 121.85V126.375ZM118.37 128.293C118.401 129.274 118.534 130.119 118.768 130.827C119.003 131.535 119.307 132.064 119.68 132.413C120.054 132.763 120.432 133.011 120.812 133.16C121.192 133.308 121.593 133.382 122.013 133.382C122.76 133.382 123.411 133.195 123.963 132.821C124.516 132.447 125.074 131.818 125.636 130.933L126.007 131.092C125.525 132.358 124.856 133.324 124 133.992C123.144 134.66 122.163 134.994 121.057 134.994C119.717 134.994 118.654 134.523 117.869 133.581C117.084 132.638 116.691 131.367 116.691 129.765C116.691 128.036 117.147 126.646 118.058 125.595C118.969 124.545 120.142 124.019 121.575 124.019C122.756 124.019 123.674 124.373 124.329 125.081C124.983 125.789 125.394 126.859 125.563 128.293H118.37ZM118.417 127.596H123.18C123.026 126.583 122.785 125.882 122.457 125.492C122.13 125.103 121.61 124.909 120.898 124.909C119.496 124.909 118.668 125.804 118.417 127.596ZM126.531 120.211V119.839C128.075 119.467 129.314 119.125 130.247 118.811L130.34 118.857V132.798C130.34 133.439 130.445 133.857 130.655 134.052C130.865 134.246 131.344 134.366 132.092 134.41V134.762H126.578V134.41C127.312 134.348 127.795 134.209 128.028 133.992C128.26 133.775 128.376 133.355 128.376 132.732V121.591C128.376 121.047 128.306 120.673 128.167 120.47C128.028 120.266 127.77 120.164 127.394 120.164C127.084 120.164 126.797 120.18 126.531 120.211Z" fill="black"/>
<path d="M197.603 120.211V119.839C199.147 119.467 200.385 119.125 201.318 118.811L201.411 118.857V132.798C201.411 133.439 201.516 133.857 201.726 134.052C201.937 134.246 202.416 134.366 203.163 134.41V134.762H197.649V134.41C198.383 134.348 198.867 134.209 199.099 133.992C199.331 133.775 199.447 133.355 199.447 132.732V121.591C199.447 121.047 199.378 120.673 199.238 120.47C199.099 120.266 198.841 120.164 198.465 120.164C198.155 120.164 197.868 120.18 197.603 120.211ZM209.062 124.019C210.557 124.019 211.786 124.518 212.751 125.516C213.715 126.513 214.197 127.775 214.197 129.301C214.197 130.92 213.7 132.274 212.704 133.362C211.709 134.45 210.479 134.994 209.015 134.994C207.551 134.994 206.333 134.469 205.359 133.418C204.386 132.368 203.899 131.057 203.899 129.487C203.899 127.881 204.378 126.569 205.336 125.549C206.293 124.529 207.536 124.019 209.062 124.019ZM206.003 128.352C206.003 130.002 206.306 131.405 206.912 132.562C207.518 133.719 208.312 134.297 209.294 134.297C210.165 134.297 210.85 133.927 211.347 133.186C211.845 132.445 212.094 131.42 212.094 130.111C212.094 128.522 211.783 127.228 211.162 126.225C210.54 125.224 209.738 124.723 208.756 124.723C207.934 124.723 207.269 125.053 206.763 125.715C206.256 126.376 206.003 127.255 206.003 128.352Z" fill="black"/>
<path d="M288.201 119.302V119.746C287.577 119.87 287.153 120.026 286.927 120.214C286.702 120.402 286.481 120.799 286.264 121.405C284.972 124.878 284.1 127.259 283.646 128.551C283.193 129.843 282.477 131.999 281.5 135.02H281.148L277.413 125.141L273.816 135.02H273.465L268.959 122.48C268.57 121.387 268.223 120.674 267.917 120.34C267.612 120.006 267.157 119.808 266.55 119.746V119.302H272.27V119.746C271.682 119.777 271.283 119.844 271.072 119.945C270.862 120.047 270.757 120.231 270.757 120.496C270.757 120.775 270.841 121.131 271.009 121.564L274.373 130.349L276.875 123.761L276.105 121.85C275.729 120.916 275.409 120.336 275.147 120.108C274.883 119.88 274.415 119.76 273.743 119.746V119.302H279.98V119.746C278.782 119.76 278.182 120.031 278.182 120.562C278.182 120.735 278.392 121.365 278.812 122.454L281.898 130.416L284.81 122.5C285.063 121.801 285.189 121.217 285.189 120.748C285.189 120.439 285.068 120.21 284.827 120.062C284.586 119.913 284.169 119.808 283.576 119.746V119.302H288.201ZM294.146 124.019C295.642 124.019 296.871 124.518 297.835 125.516C298.8 126.513 299.282 127.775 299.282 129.301C299.282 130.92 298.784 132.274 297.789 133.362C296.794 134.45 295.564 134.994 294.1 134.994C292.636 134.994 291.417 134.469 290.444 133.418C289.471 132.368 288.984 131.057 288.984 129.487C288.984 127.881 289.463 126.569 290.42 125.549C291.379 124.529 292.62 124.019 294.146 124.019ZM291.088 128.352C291.088 130.002 291.39 131.405 291.996 132.562C292.602 133.719 293.396 134.297 294.379 134.297C295.25 134.297 295.935 133.927 296.432 133.186C296.93 132.445 297.178 131.42 297.178 130.111C297.178 128.522 296.868 127.228 296.246 126.225C295.625 125.224 294.823 124.723 293.841 124.723C293.019 124.723 292.354 125.053 291.847 125.715C291.341 126.376 291.088 127.255 291.088 128.352ZM306.892 126.309C306.663 126.309 306.376 126.172 306.033 125.901C305.691 125.628 305.464 125.492 305.353 125.492C305.043 125.492 304.694 125.718 304.305 126.169C303.916 126.62 303.721 127.032 303.721 127.403V132.658C303.721 133.331 303.853 133.783 304.116 134.015C304.379 134.248 304.909 134.379 305.705 134.41V134.762H300.098V134.41C300.846 134.273 301.309 134.118 301.488 133.946C301.667 133.773 301.757 133.391 301.757 132.798V126.959C301.757 126.446 301.698 126.084 301.581 125.874C301.464 125.664 301.257 125.559 300.961 125.559C300.713 125.559 300.441 125.59 300.145 125.652V125.28C301.392 124.878 302.544 124.457 303.601 124.019L303.721 124.066V126.216C304.296 125.388 304.786 124.816 305.191 124.497C305.595 124.179 306.039 124.019 306.521 124.019C306.928 124.019 307.244 124.129 307.47 124.348C307.695 124.567 307.808 124.871 307.808 125.26C307.808 125.583 307.726 125.839 307.563 126.027C307.399 126.214 307.176 126.309 306.892 126.309ZM308.166 120.211V119.839C309.71 119.467 310.949 119.125 311.882 118.811L311.975 118.857V132.798C311.975 133.439 312.08 133.857 312.29 134.052C312.5 134.246 312.979 134.366 313.727 134.41V134.762H308.213V134.41C308.947 134.348 309.431 134.209 309.663 133.992C309.895 133.775 310.011 133.355 310.011 132.732V121.591C310.011 121.047 309.941 120.673 309.802 120.47C309.663 120.266 309.405 120.164 309.029 120.164C308.72 120.164 308.432 120.18 308.166 120.211ZM321.868 134.994L321.775 134.921V133.388C321.028 134.459 320.03 134.994 318.783 134.994C317.491 134.994 316.448 134.531 315.654 133.604C314.86 132.677 314.464 131.464 314.464 129.964C314.464 128.319 314.938 126.917 315.887 125.758C316.835 124.599 317.98 124.019 319.32 124.019C320.161 124.019 320.979 124.369 321.775 125.068V121.392C321.775 120.905 321.705 120.583 321.563 120.426C321.421 120.269 321.134 120.191 320.7 120.191C320.479 120.191 320.307 120.197 320.183 120.211V119.839C321.603 119.467 322.748 119.125 323.62 118.811L323.733 118.857V132.061C323.733 132.605 323.799 132.963 323.932 133.133C324.064 133.303 324.341 133.388 324.761 133.388C324.841 133.388 325.02 133.38 325.299 133.362V133.733L321.868 134.994ZM319.692 133.733C320.285 133.733 320.78 133.567 321.178 133.236C321.576 132.904 321.775 132.608 321.775 132.346V127.032C321.775 126.417 321.533 125.878 321.049 125.416C320.565 124.954 320.012 124.723 319.393 124.723C318.504 124.723 317.795 125.115 317.267 125.901C316.738 126.686 316.474 127.733 316.474 129.042C316.474 130.458 316.769 131.593 317.36 132.45C317.95 133.305 318.727 133.733 319.692 133.733Z" fill="black"/>
<path fill-rule="evenodd" clip-rule="evenodd" d="M169.02 129.317H160.594V127.737H169.02V129.317Z" fill="black"/>
</svg>
