<svg width="512" height="229" viewBox="0 0 512 229" fill="none" xmlns="http://www.w3.org/2000/svg">
<path fill-rule="evenodd" clip-rule="evenodd" d="M480 77.4548H32V76.859H480V77.4548Z" fill="black"/>
<path fill-rule="evenodd" clip-rule="evenodd" d="M480 84.918H32V84.3223H480V84.918Z" fill="black"/>
<path fill-rule="evenodd" clip-rule="evenodd" d="M480 92.3816H32V91.7858H480V92.3816Z" fill="black"/>
<path fill-rule="evenodd" clip-rule="evenodd" d="M480 99.8446H32V99.2488H480V99.8446Z" fill="black"/>
<path fill-rule="evenodd" clip-rule="evenodd" d="M480 107.308H32V106.712H480V107.308Z" fill="black"/>
<path fill-rule="evenodd" clip-rule="evenodd" d="M281.788 107.308V76.8585H282.983V107.308H281.788Z" fill="black"/>
<path fill-rule="evenodd" clip-rule="evenodd" d="M472.088 107.308V76.8585H473.282V107.308H472.088Z" fill="black"/>
<path fill-rule="evenodd" clip-rule="evenodd" d="M476.269 107.308V76.8585H480V107.308H476.269Z" fill="black"/>
<path fill-rule="evenodd" clip-rule="evenodd" d="M83.6967 188.508H99.195V189.703H83.6967V188.508Z" fill="black"/>
<path fill-rule="evenodd" clip-rule="evenodd" d="M83.6967 181.045H99.195V182.239H83.6967V181.045Z" fill="black"/>
<path fill-rule="evenodd" clip-rule="evenodd" d="M83.6967 173.581H99.195V174.776H83.6967V173.581Z" fill="black"/>
<path fill-rule="evenodd" clip-rule="evenodd" d="M83.6967 166.118H99.195V167.313H83.6967V166.118Z" fill="black"/>
<path fill-rule="evenodd" clip-rule="evenodd" d="M83.6967 158.655H99.195V159.85H83.6967V158.655Z" fill="black"/>
<path fill-rule="evenodd" clip-rule="evenodd" d="M83.6967 151.192H99.195V152.386H83.6967V151.192Z" fill="black"/>
<path fill-rule="evenodd" clip-rule="evenodd" d="M83.6967 143.729H99.195V144.923H83.6967V143.729Z" fill="black"/>
<path fill-rule="evenodd" clip-rule="evenodd" d="M83.6967 136.266H99.195V137.46H83.6967V136.266Z" fill="black"/>
<path fill-rule="evenodd" clip-rule="evenodd" d="M83.6967 128.802H99.195V129.997H83.6967V128.802Z" fill="black"/>
<path fill-rule="evenodd" clip-rule="evenodd" d="M83.6967 121.339H99.195V122.534H83.6967V121.339Z" fill="black"/>
<path fill-rule="evenodd" clip-rule="evenodd" d="M83.6967 113.876H99.195V115.071H83.6967V113.876Z" fill="black"/>
<path fill-rule="evenodd" clip-rule="evenodd" d="M132.511 166.118H148.009V167.313H132.511V166.118Z" fill="black"/>
<path fill-rule="evenodd" clip-rule="evenodd" d="M132.511 158.655H148.009V159.85H132.511V158.655Z" fill="black"/>
<path fill-rule="evenodd" clip-rule="evenodd" d="M132.511 151.192H148.009V152.386H132.511V151.192Z" fill="black"/>
<path fill-rule="evenodd" clip-rule="evenodd" d="M132.511 143.729H148.009V144.923H132.511V143.729Z" fill="black"/>
<path fill-rule="evenodd" clip-rule="evenodd" d="M132.511 136.266H148.009V137.46H132.511V136.266Z" fill="black"/>
<path fill-rule="evenodd" clip-rule="evenodd" d="M132.511 128.802H148.009V129.997H132.511V128.802Z" fill="black"/>
<path fill-rule="evenodd" clip-rule="evenodd" d="M132.511 121.339H148.009V122.534H132.511V121.339Z" fill="black"/>
<path fill-rule="evenodd" clip-rule="evenodd" d="M132.511 113.876H148.009V115.071H132.511V113.876Z" fill="black"/>
<path fill-rule="evenodd" clip-rule="evenodd" d="M181.324 136.266H196.823V137.46H181.324V136.266Z" fill="black"/>
<path fill-rule="evenodd" clip-rule="evenodd" d="M181.324 128.802H196.823V129.997H181.324V128.802Z" fill="black"/>
<path fill-rule="evenodd" clip-rule="evenodd" d="M181.324 121.339H196.823V122.534H181.324V121.339Z" fill="black"/>
<path fill-rule="evenodd" clip-rule="evenodd" d="M181.324 113.876H196.823V115.071H181.324V113.876Z" fill="black"/>
<path fill-rule="evenodd" clip-rule="evenodd" d="M230.138 113.876H245.637V115.071H230.138V113.876Z" fill="black"/>
<path fill-rule="evenodd" clip-rule="evenodd" d="M333.019 69.0966H348.518V70.2911H333.019V69.0966Z" fill="black"/>
<path fill-rule="evenodd" clip-rule="evenodd" d="M333.019 61.6333H348.518V62.8278H333.019V61.6333Z" fill="black"/>
<path fill-rule="evenodd" clip-rule="evenodd" d="M378.431 69.0966H393.93V70.2911H378.431V69.0966Z" fill="black"/>
<path fill-rule="evenodd" clip-rule="evenodd" d="M378.431 61.6333H393.93V62.8278H378.431V61.6333Z" fill="black"/>
<path fill-rule="evenodd" clip-rule="evenodd" d="M378.431 54.1703H393.93V55.3648H378.431V54.1703Z" fill="black"/>
<path fill-rule="evenodd" clip-rule="evenodd" d="M378.431 46.707H393.93V47.9015H378.431V46.707Z" fill="black"/>
<path fill-rule="evenodd" clip-rule="evenodd" d="M378.431 39.2439H393.93V40.4385H378.431V39.2439Z" fill="black"/>
<path fill-rule="evenodd" clip-rule="evenodd" d="M95.8735 91.5992C96.141 91.5992 96.3579 91.8161 96.3579 92.0836V191.435C96.3579 191.703 96.141 191.92 95.8735 191.92C95.6059 191.92 95.389 191.703 95.389 191.435V92.0836C95.389 91.8161 95.6059 91.5992 95.8735 91.5992Z" fill="black"/>
<path fill-rule="evenodd" clip-rule="evenodd" d="M144.687 91.5992C144.955 91.5992 145.172 91.8161 145.172 92.0836V165.314C145.172 165.582 144.955 165.798 144.687 165.798C144.42 165.798 144.203 165.582 144.203 165.314V92.0836C144.203 91.8161 144.42 91.5992 144.687 91.5992Z" fill="black"/>
<path fill-rule="evenodd" clip-rule="evenodd" d="M193.501 91.5992C193.769 91.5992 193.986 91.8161 193.986 92.0836V139.193C193.986 139.46 193.769 139.677 193.501 139.677C193.234 139.677 193.017 139.46 193.017 139.193V92.0836C193.017 91.8161 193.234 91.5992 193.501 91.5992Z" fill="black"/>
<path fill-rule="evenodd" clip-rule="evenodd" d="M242.315 87.8675C242.583 87.8675 242.8 88.0844 242.8 88.3519V113.072C242.8 113.339 242.583 113.556 242.315 113.556C242.048 113.556 241.831 113.339 241.831 113.072V88.3519C241.831 88.0844 242.048 87.8675 242.315 87.8675Z" fill="black"/>
<path fill-rule="evenodd" clip-rule="evenodd" d="M290.931 89.269C291.199 89.269 291.415 89.4859 291.415 89.7534V112.607C291.415 112.875 291.199 113.092 290.931 113.092C290.663 113.092 290.447 112.875 290.447 112.607V89.7534C290.447 89.4859 290.663 89.269 290.931 89.269Z" fill="black"/>
<path fill-rule="evenodd" clip-rule="evenodd" d="M336.342 63.1479C336.61 63.1479 336.827 63.3648 336.827 63.6323V92.0837C336.827 92.3513 336.61 92.5682 336.342 92.5682C336.075 92.5682 335.858 92.3513 335.858 92.0837V63.6323C335.858 63.3648 336.075 63.1479 336.342 63.1479Z" fill="black"/>
<path fill-rule="evenodd" clip-rule="evenodd" d="M381.754 37.0266C382.021 37.0266 382.238 37.2435 382.238 37.511V92.0836C382.238 92.3512 382.021 92.5681 381.754 92.5681C381.486 92.5681 381.269 92.3512 381.269 92.0836V37.511C381.269 37.2435 381.486 37.0266 381.754 37.0266Z" fill="black"/>
<path d="M93.0913 188.727C94.0242 188.727 94.8125 188.97 95.4562 189.455C96.0564 189.98 96.3565 190.641 96.3565 191.437C96.3565 192.778 95.6677 194.031 94.2901 195.197C92.8907 196.363 91.3935 196.946 89.7982 196.946C88.8653 196.946 88.0785 196.704 87.4379 196.218C86.8347 195.693 86.533 195.032 86.533 194.236C86.533 192.896 87.2327 191.643 88.632 190.476C89.9941 189.31 91.4805 188.727 93.0913 188.727Z" fill="black"/>
<path d="M141.905 162.606C142.838 162.606 143.626 162.849 144.27 163.334C144.87 163.859 145.17 164.52 145.17 165.316C145.17 166.657 144.482 167.91 143.104 169.076C141.705 170.242 140.207 170.825 138.612 170.825C137.679 170.825 136.892 170.583 136.252 170.097C135.649 169.572 135.347 168.911 135.347 168.115C135.347 166.775 136.047 165.522 137.446 164.355C138.808 163.189 140.294 162.606 141.905 162.606Z" fill="black"/>
<path d="M190.719 136.485C191.652 136.485 192.44 136.727 193.084 137.213C193.684 137.738 193.984 138.399 193.984 139.195C193.984 140.535 193.295 141.788 191.918 142.955C190.518 144.121 189.021 144.704 187.426 144.704C186.493 144.704 185.706 144.461 185.066 143.976C184.462 143.451 184.161 142.79 184.161 141.994C184.161 140.653 184.86 139.4 186.26 138.234C187.622 137.068 189.108 136.485 190.719 136.485Z" fill="black"/>
<path d="M239.533 110.364C240.466 110.364 241.254 110.606 241.898 111.091C242.498 111.617 242.798 112.278 242.798 113.074C242.798 114.414 242.109 115.667 240.732 116.833C239.332 118 237.835 118.583 236.24 118.583C235.307 118.583 234.52 118.34 233.88 117.855C233.276 117.329 232.975 116.669 232.975 115.873C232.975 114.532 233.674 113.279 235.074 112.113C236.436 110.947 237.922 110.364 239.533 110.364Z" fill="black"/>
<path d="M297.005 84.2424C297.938 84.2424 298.726 84.485 299.37 84.9701C299.97 85.4956 300.27 86.1564 300.27 86.9525C300.27 88.2928 299.581 89.546 298.204 90.7121C296.804 91.8782 295.307 92.4613 293.712 92.4613C292.779 92.4613 291.992 92.2187 291.351 91.7336C290.748 91.2081 290.447 90.5473 290.447 89.7512C290.447 88.4109 291.146 87.1577 292.546 85.9916C293.908 84.8255 295.394 84.2424 297.005 84.2424Z" fill="black"/>
<path d="M342.416 58.1213C343.349 58.1213 344.137 58.3639 344.781 58.849C345.381 59.3745 345.681 60.0353 345.681 60.8314C345.681 62.1717 344.993 63.4249 343.615 64.591C342.216 65.7571 340.718 66.3402 339.123 66.3402C338.19 66.3402 337.403 66.0976 336.763 65.6125C336.16 65.087 335.858 64.4262 335.858 63.6301C335.858 62.2898 336.558 61.0366 337.957 59.8705C339.319 58.7044 340.805 58.1213 342.416 58.1213Z" fill="black"/>
<path d="M387.825 32C388.758 32 389.546 32.2426 390.19 32.7277C390.79 33.2532 391.09 33.914 391.09 34.7101C391.09 36.0503 390.401 37.3035 389.023 38.4697C387.624 39.6358 386.127 40.2188 384.532 40.2188C383.599 40.2188 382.812 39.9763 382.171 39.4912C381.568 38.9657 381.266 38.3049 381.266 37.5088C381.266 36.1685 381.966 34.9153 383.365 33.7492C384.727 32.5831 386.214 32 387.825 32Z" fill="black"/>
<path d="M48.9324 91.9064C48.9324 91.9064 48.9915 91.9064 49.1096 91.9064C49.1874 91.8878 49.2542 91.8785 49.3102 91.8785C51.487 91.8785 53.275 92.6465 54.6744 94.1827C56.0737 95.6971 56.7734 97.465 56.7734 99.4863C56.7734 101.996 55.7348 104.037 53.6575 105.611C53.1133 106.04 52.4028 106.39 51.5259 106.66C51.6254 107.923 51.6751 108.943 51.6751 109.72C51.6751 109.876 51.6549 110.44 51.6145 111.413C51.5367 113.22 50.9148 114.784 49.7487 116.106C48.623 117.409 47.2236 118.06 45.5506 118.06C43.9771 118.06 42.6369 117.507 41.5298 116.4C40.4197 115.271 39.8646 113.91 39.8646 112.318C39.8646 111.482 40.1864 110.771 40.8301 110.187C41.4894 109.605 42.2559 109.314 43.1298 109.314C43.9072 109.314 44.5586 109.616 45.0842 110.219C45.6283 110.782 45.9005 111.482 45.9005 112.318C45.9005 113.074 45.6283 113.724 45.0842 114.268C44.54 114.812 43.8885 115.084 43.1298 115.084C42.8188 115.084 42.5187 115.027 42.2295 114.912C43.0846 116.174 44.2212 116.806 45.6392 116.806C46.9795 116.806 48.0772 116.261 48.9324 115.173C49.828 114.047 50.3146 112.735 50.3924 111.236C50.4297 110.303 50.4484 109.77 50.4484 109.636C50.4484 108.548 50.4095 107.654 50.3317 106.954C49.3615 107.11 48.497 107.187 47.7383 107.187C45.036 107.187 42.7332 106.118 40.8301 103.978C38.9643 101.82 38.0314 99.2546 38.0314 96.2818C38.0314 95.6598 38.089 95.0286 38.204 94.3879C38.3222 93.8624 38.4683 93.2887 38.6425 92.6668C38.7389 92.3154 39.0017 91.751 39.4308 90.9735C39.5863 90.7403 39.7612 90.4488 39.9555 90.099C40.1499 89.7491 40.2859 89.5167 40.3637 89.4016C40.5565 89.0129 40.9343 88.4874 41.4972 87.825C41.6526 87.6508 41.8136 87.4573 41.9799 87.2443C42.1463 87.0313 42.2878 86.8563 42.4044 86.7195C42.521 86.5827 42.6081 86.4754 42.6656 86.3977C42.7232 86.3199 43.1608 85.8053 43.9787 84.8537C44.1715 84.6578 44.3604 84.4487 44.5454 84.2263C44.7304 84.004 44.8812 83.8291 44.9979 83.7016C45.1145 83.5741 45.2023 83.4823 45.2614 83.4264C44.5617 81.1128 44.1233 79.2656 43.946 77.8849C43.8123 76.7779 43.7455 75.2619 43.7455 73.337C43.7455 71.6454 44.1342 70.061 44.9116 68.5838C45.6672 67.0509 46.7261 65.7977 48.0881 64.8242C48.1658 64.7654 48.2623 64.7358 48.3773 64.7358C48.5141 64.7358 48.6121 64.7654 48.6712 64.8242C49.7191 66.0869 50.6225 67.7289 51.3813 69.75C52.1587 71.7713 52.5474 73.6091 52.5474 75.2635C52.5474 77.1293 52.1011 78.8785 51.2087 80.5111C50.198 82.24 48.8951 84.0281 47.2998 85.8752C47.7072 87.1564 48.2514 89.1668 48.9324 91.9064ZM51.4092 105.466C52.4199 105.096 53.2082 104.465 53.7741 103.572C54.3961 102.717 54.707 101.755 54.707 100.685C54.707 99.3044 54.2406 98.0791 53.3077 97.0094C52.353 95.9024 51.1372 95.2804 49.6601 95.1436C50.4965 99.2453 51.0796 102.686 51.4092 105.466ZM40.1305 98.7306C40.1305 100.656 40.9079 102.347 42.4627 103.806C44.0549 105.224 45.8429 105.933 47.8269 105.933C48.6416 105.933 49.4377 105.874 50.2151 105.755C49.9042 102.801 49.2916 99.2639 48.3773 95.1436C47.2703 95.2618 46.3871 95.6505 45.7279 96.3097C45.0842 96.9908 44.7623 97.7588 44.7623 98.614C44.7623 100.091 45.5506 101.287 47.1272 102.201C47.2609 102.338 47.3278 102.484 47.3278 102.639C47.3278 102.795 47.2609 102.94 47.1272 103.073C47.009 103.21 46.8629 103.279 46.6887 103.279C46.6701 103.279 46.583 103.26 46.4275 103.223C45.3174 102.619 44.4622 101.842 43.8621 100.89C43.2961 99.8765 43.0131 98.855 43.0131 97.8257C43.0131 96.4854 43.4314 95.2711 44.2679 94.1827C45.1417 93.0943 46.2783 92.3947 47.6776 92.0837C47.1334 89.9069 46.6872 88.2059 46.3389 86.9807C46.028 87.3321 45.654 87.755 45.2171 88.2495C44.7802 88.7439 44.5229 89.0409 44.4451 89.1404C43.7455 90.0515 43.2106 90.7605 42.8405 91.2674C42.1782 92.1816 41.6915 92.9684 41.3806 93.6277C41.0509 94.3677 40.7602 95.1747 40.5083 96.0485C40.2564 96.885 40.1305 97.7791 40.1305 98.7306ZM49.8653 69.083C48.4068 69.8014 47.2609 70.8307 46.4275 72.1709C45.5724 73.5516 45.1448 75.038 45.1448 76.6302C45.1448 78.0295 45.4946 79.9156 46.1943 82.2882C47.5937 80.5966 48.6432 79.0324 49.3429 77.5957C50.0799 76.0782 50.4484 74.4938 50.4484 72.8426C50.4484 71.5987 50.254 70.3455 49.8653 69.083Z" fill="black"/>
<path d="M71.028 77.5091C71.6095 77.5091 72.1047 77.4414 72.5136 77.3062C72.9225 77.1709 73.1845 77.1032 73.2996 77.1032C73.4364 77.1032 73.5437 77.1421 73.6214 77.2199C73.6805 77.2758 73.7194 77.3427 73.7381 77.4204C73.7381 77.4609 73.7178 77.52 73.6774 77.5977L65.1973 87.4538H70.179V83.5449C70.179 83.2931 70.2474 83.0785 70.3843 82.9012C70.6175 82.7084 70.8118 82.5918 70.9673 82.5514C71.2192 82.4363 71.5302 82.1642 71.9002 81.7351C72.2112 81.3868 72.5813 80.7758 73.0104 79.9019C73.0664 79.7838 73.1534 79.7247 73.2716 79.7247C73.5048 79.7247 73.6401 79.8615 73.6774 80.1352V87.4538H75.8091C76.0796 87.4538 76.2351 87.5984 76.2755 87.8876C76.2755 88.1799 76.12 88.3261 75.8091 88.3261H73.6774V88.5593C73.6774 89.3367 73.8718 89.9975 74.2605 90.5417C74.7083 91.0859 75.2338 91.358 75.8371 91.358C76.0703 91.358 76.1869 91.4746 76.1869 91.7078C76.1869 91.9411 76.0703 92.0577 75.8371 92.0577C75.4297 92.0577 74.7689 92.0001 73.8547 91.8851C73.0181 91.7482 72.3667 91.6798 71.9002 91.6798C71.4151 91.6798 70.7636 91.7482 69.9458 91.8851C69.072 92.0001 68.4221 92.0577 67.996 92.0577C67.7628 92.0577 67.6462 91.9411 67.6462 91.7078C67.6462 91.4746 67.7628 91.358 67.996 91.358C68.5962 91.358 69.1202 91.0859 69.568 90.5417C69.9753 89.9789 70.179 89.318 70.179 88.5593V88.3261H65.1973C64.8646 88.3261 64.6314 88.2483 64.4977 88.0928C64.3391 87.9778 64.2598 87.8223 64.2598 87.6264C64.2598 87.5673 64.4059 87.3636 64.6982 87.0153C65.031 86.6266 65.3808 86.1508 65.7477 85.588C66.1769 84.9256 66.5858 84.2446 66.9745 83.5449C67.4005 82.7489 67.741 81.8346 67.996 80.8022C68.2852 79.7543 68.4298 78.6861 68.4298 77.5977C68.4298 77.2867 68.5667 77.1312 68.8403 77.1312C68.8994 77.1312 69.0253 77.1608 69.2182 77.2199C69.2772 77.2385 69.3993 77.2673 69.5843 77.3062C69.7693 77.345 69.9194 77.3831 70.0344 77.4204C70.3858 77.4795 70.717 77.5091 71.028 77.5091Z" fill="black"/>
<path d="M71.028 92.487C71.6095 92.487 72.1047 92.4193 72.5136 92.2841C72.9225 92.1488 73.1845 92.0811 73.2996 92.0811C73.4364 92.0811 73.5437 92.12 73.6214 92.1978C73.6805 92.2538 73.7194 92.3206 73.7381 92.3983C73.7381 92.4388 73.7178 92.4979 73.6774 92.5756L65.1973 102.432H70.179V98.5228C70.179 98.271 70.2474 98.0564 70.3843 97.8791C70.6175 97.6863 70.8118 97.5697 70.9673 97.5293C71.2192 97.4142 71.5302 97.1421 71.9002 96.713C72.2112 96.3647 72.5813 95.7537 73.0104 94.8799C73.0664 94.7617 73.1534 94.7026 73.2716 94.7026C73.5048 94.7026 73.6401 94.8394 73.6774 95.1131V102.432H75.8091C76.0796 102.432 76.2351 102.576 76.2755 102.866C76.2755 103.158 76.12 103.304 75.8091 103.304H73.6774V103.537C73.6774 104.315 73.8718 104.975 74.2605 105.52C74.7083 106.064 75.2338 106.336 75.8371 106.336C76.0703 106.336 76.1869 106.453 76.1869 106.686C76.1869 106.919 76.0703 107.036 75.8371 107.036C75.4297 107.036 74.7689 106.978 73.8547 106.863C73.0181 106.726 72.3667 106.658 71.9002 106.658C71.4151 106.658 70.7636 106.726 69.9458 106.863C69.072 106.978 68.4221 107.036 67.996 107.036C67.7628 107.036 67.6462 106.919 67.6462 106.686C67.6462 106.453 67.7628 106.336 67.996 106.336C68.5962 106.336 69.1202 106.064 69.568 105.52C69.9753 104.957 70.179 104.296 70.179 103.537V103.304H65.1973C64.8646 103.304 64.6314 103.226 64.4977 103.071C64.3391 102.956 64.2598 102.8 64.2598 102.604C64.2598 102.545 64.4059 102.342 64.6982 101.993C65.031 101.605 65.3808 101.129 65.7477 100.566C66.1769 99.9035 66.5858 99.2225 66.9745 98.5228C67.4005 97.7268 67.741 96.8125 67.996 95.7801C68.2852 94.7322 68.4298 93.664 68.4298 92.5756C68.4298 92.2646 68.5667 92.1091 68.8403 92.1091C68.8994 92.1091 69.0253 92.1387 69.2182 92.1978C69.2772 92.2164 69.3993 92.2452 69.5843 92.2841C69.7693 92.3229 69.9194 92.361 70.0344 92.3983C70.3858 92.4574 70.717 92.487 71.028 92.487Z" fill="black"/>
</svg>
