<svg width="512" height="156" viewBox="0 0 512 156" fill="none" xmlns="http://www.w3.org/2000/svg">
<path fill-rule="evenodd" clip-rule="evenodd" d="M480 53.5069H32V52.4995H480V53.5069Z" fill="black"/>
<path fill-rule="evenodd" clip-rule="evenodd" d="M480 66.1265H32V65.1191H480V66.1265Z" fill="black"/>
<path fill-rule="evenodd" clip-rule="evenodd" d="M480 78.7465H32V77.7391H480V78.7465Z" fill="black"/>
<path fill-rule="evenodd" clip-rule="evenodd" d="M480 91.3661H32V90.3587H480V91.3661Z" fill="black"/>
<path fill-rule="evenodd" clip-rule="evenodd" d="M480 103.986H32V102.978H480V103.986Z" fill="black"/>
<path fill-rule="evenodd" clip-rule="evenodd" d="M466.623 103.987V52.4985H468.643V103.987H466.623Z" fill="black"/>
<path fill-rule="evenodd" clip-rule="evenodd" d="M473.691 103.987V52.4985H480V103.987H473.691Z" fill="black"/>
<path fill-rule="evenodd" clip-rule="evenodd" d="M119.415 115.092H145.621V117.112H119.415V115.092Z" fill="black"/>
<path fill-rule="evenodd" clip-rule="evenodd" d="M140.004 67.9587C140.457 67.9587 140.823 68.3255 140.823 68.7779V113.732C140.823 114.184 140.457 114.551 140.004 114.551C139.552 114.551 139.185 114.184 139.185 113.732V68.7779C139.185 68.3255 139.552 67.9587 140.004 67.9587Z" fill="black"/>
<path fill-rule="evenodd" clip-rule="evenodd" d="M224.025 64.8039C224.477 64.8039 224.844 65.1706 224.844 65.623V107.422C224.844 107.874 224.477 108.241 224.025 108.241C223.572 108.241 223.206 107.874 223.206 107.422V65.623C223.206 65.1706 223.572 64.8039 224.025 64.8039Z" fill="black"/>
<path fill-rule="evenodd" clip-rule="evenodd" d="M267.09 58.4942C267.543 58.4942 267.909 58.8609 267.909 59.3133V101.112C267.909 101.564 267.543 101.931 267.09 101.931C266.638 101.931 266.271 101.564 266.271 101.112V59.3133C266.271 58.8609 266.638 58.4942 267.09 58.4942Z" fill="black"/>
<path d="M135.3 109.153C136.877 109.153 138.21 109.563 139.299 110.383C140.314 111.272 140.821 112.389 140.821 113.735C140.821 116.002 139.656 118.121 137.327 120.093C134.961 122.064 132.429 123.05 129.732 123.05C128.154 123.05 126.824 122.64 125.741 121.82C124.72 120.931 124.21 119.814 124.21 118.468C124.21 116.202 125.394 114.082 127.76 112.111C130.063 110.139 132.576 109.153 135.3 109.153Z" fill="black"/>
<path d="M219.32 102.843C220.897 102.843 222.23 103.254 223.319 104.074C224.333 104.963 224.841 106.08 224.841 107.426C224.841 109.692 223.676 111.811 221.347 113.783C218.981 115.755 216.449 116.741 213.751 116.741C212.174 116.741 210.844 116.331 209.76 115.51C208.74 114.622 208.23 113.504 208.23 112.158C208.23 109.892 209.413 107.773 211.779 105.801C214.083 103.829 216.596 102.843 219.32 102.843Z" fill="black"/>
<path d="M262.385 96.5333C263.963 96.5333 265.296 96.9434 266.384 97.7637C267.399 98.6523 267.907 99.7697 267.907 101.116C267.907 103.382 266.742 105.501 264.412 107.473C262.046 109.445 259.514 110.431 256.817 110.431C255.24 110.431 253.909 110.02 252.826 109.2C251.806 108.312 251.296 107.194 251.296 105.848C251.296 103.582 252.479 101.463 254.845 99.491C257.148 97.5192 259.662 96.5333 262.385 96.5333Z" fill="black"/>
<path d="M60.6311 77.9431C60.6311 77.9431 60.731 77.9431 60.9307 77.9431C61.0622 77.9116 61.1753 77.8958 61.2699 77.8958C64.9506 77.8958 67.9741 79.1946 70.3402 81.7921C72.7064 84.3529 73.8895 87.3421 73.8895 90.76C73.8895 95.0033 72.1333 98.4553 68.6208 101.116C67.7007 101.842 66.4992 102.433 65.0164 102.891C65.1846 105.025 65.2688 106.75 65.2688 108.065C65.2688 108.328 65.2345 109.282 65.1662 110.928C65.0348 113.983 63.9831 116.628 62.0113 118.862C60.1078 121.065 57.7417 122.167 54.9128 122.167C52.2521 122.167 49.9858 121.231 48.1139 119.359C46.2368 117.451 45.2982 115.15 45.2982 112.458C45.2982 111.043 45.8424 109.842 46.9308 108.853C48.0456 107.87 49.3417 107.378 50.8193 107.378C52.1338 107.378 53.2354 107.889 54.124 108.909C55.0442 109.86 55.5043 111.043 55.5043 112.458C55.5043 113.736 55.0442 114.835 54.124 115.755C53.2039 116.675 52.1023 117.135 50.8193 117.135C50.2935 117.135 49.7861 117.038 49.297 116.843C50.743 118.978 52.6649 120.045 55.0626 120.045C57.3289 120.045 59.185 119.125 60.6311 117.285C62.1454 115.381 62.9683 113.162 63.0998 110.628C63.1629 109.051 63.1944 108.149 63.1944 107.923C63.1944 106.082 63.1287 104.571 62.9972 103.387C61.3567 103.65 59.8949 103.782 58.6119 103.782C54.0426 103.782 50.1488 101.973 46.9308 98.3554C43.7759 94.7062 42.1985 90.3682 42.1985 85.3414C42.1985 84.2898 42.2958 83.2224 42.4903 82.1392C42.6901 81.2505 42.9373 80.2804 43.2317 79.2288C43.3947 78.6346 43.839 77.6802 44.5647 76.3657C44.8276 75.9713 45.1234 75.4784 45.452 74.8869C45.7806 74.2953 46.0107 73.9022 46.1421 73.7077C46.4681 73.0504 47.107 72.1618 48.0587 71.0418C48.3216 70.7473 48.5937 70.42 48.8751 70.0598C49.1564 69.6996 49.3956 69.4039 49.5928 69.1725C49.79 68.9411 49.9372 68.7597 50.0345 68.6283C50.1318 68.4968 50.8718 67.6266 52.2548 66.0176C52.5807 65.6863 52.9002 65.3327 53.213 64.9568C53.5259 64.5808 53.7809 64.2851 53.9781 64.0695C54.1753 63.8539 54.3239 63.6987 54.4238 63.6041C53.2406 59.692 52.4993 56.5687 52.1995 54.234C51.9734 52.3621 51.8604 49.7987 51.8604 46.5439C51.8604 43.6835 52.5176 41.0045 53.8322 38.5067C55.11 35.9146 56.9003 33.7955 59.2034 32.1494C59.3349 32.05 59.4979 32 59.6925 32C59.9238 32 60.0894 32.05 60.1894 32.1494C61.9614 34.2847 63.4888 37.061 64.7719 40.4786C66.0864 43.8964 66.7437 47.004 66.7437 49.8014C66.7437 52.9563 65.9891 55.914 64.48 58.6746C62.7711 61.5981 60.568 64.6215 57.8705 67.7449C58.5593 69.9113 59.4795 73.3107 60.6311 77.9431ZM64.8192 100.871C66.5281 100.246 67.861 99.1783 68.818 97.6692C69.8696 96.2232 70.3955 94.5958 70.3955 92.787C70.3955 90.4524 69.6067 88.3806 68.0293 86.5718C66.415 84.6999 64.3591 83.6483 61.8615 83.4169C63.2759 90.3525 64.2618 96.1706 64.8192 100.871ZM45.7478 89.4822C45.7478 92.737 47.0623 95.5975 49.6914 98.0636C52.3836 100.461 55.407 101.66 58.7617 101.66C60.1394 101.66 61.4855 101.56 62.8 101.36C62.2742 96.3652 61.2384 90.384 59.6925 83.4169C57.8205 83.6167 56.3272 84.274 55.2125 85.3887C54.124 86.5403 53.5798 87.839 53.5798 89.285C53.5798 91.7827 54.9127 93.8045 57.5787 95.3504C57.8048 95.5817 57.9178 95.8288 57.9178 96.0918C57.9178 96.3547 57.8048 96.5992 57.5787 96.8253C57.3788 97.0566 57.1317 97.1723 56.8372 97.1723C56.8057 97.1723 56.6585 97.1408 56.3956 97.0777C54.5184 96.0576 53.0724 94.743 52.0576 93.134C51.1006 91.4199 50.6221 89.6926 50.6221 87.9521C50.6221 85.6858 51.3293 83.6325 52.7438 81.7921C54.2213 79.9518 56.1432 78.7687 58.5093 78.2429C57.5892 74.5621 56.8346 71.6859 56.2457 69.6142C55.7199 70.2084 55.0876 70.9235 54.3488 71.7595C53.6101 72.5956 53.1749 73.0977 53.0435 73.266C51.8604 74.8066 50.956 76.0055 50.3303 76.8626C49.2103 78.4085 48.3873 79.7388 47.8616 80.8536C47.3042 82.105 46.8125 83.4695 46.3866 84.947C45.9607 86.3615 45.7478 87.8732 45.7478 89.4822ZM62.2085 39.3507C59.7424 40.5654 57.8048 42.3058 56.3956 44.5721C54.9495 46.9068 54.2266 49.4201 54.2266 52.1124C54.2266 54.4785 54.8181 57.6676 56.0012 61.6796C58.3674 58.8191 60.142 56.1743 61.3251 53.745C62.5713 51.179 63.1944 48.5 63.1944 45.7079C63.1944 43.6046 62.8657 41.4856 62.2085 39.3507Z" fill="black"/>
<path d="M97.9928 53.5988C98.9761 53.5988 99.8134 53.4845 100.505 53.2557C101.196 53.027 101.639 52.9126 101.834 52.9126C102.065 52.9126 102.247 52.9784 102.378 53.1098C102.478 53.2045 102.544 53.3175 102.575 53.449C102.575 53.5174 102.541 53.6173 102.473 53.7487L88.1337 70.4145H96.5573V63.805C96.5573 63.3791 96.673 63.0162 96.9043 62.7165C97.2987 62.3905 97.6273 62.1933 97.8902 62.125C98.3162 61.9304 98.8419 61.4703 99.4677 60.7447C99.9935 60.1558 100.619 59.1225 101.345 57.645C101.44 57.4452 101.587 57.3453 101.787 57.3453C102.181 57.3453 102.41 57.5766 102.473 58.0394V70.4145H106.077C106.535 70.4145 106.798 70.659 106.866 71.148C106.866 71.6423 106.603 71.8894 106.077 71.8894H102.473V72.2838C102.473 73.5983 102.801 74.7157 103.459 75.6359C104.216 76.5561 105.104 77.0162 106.125 77.0162C106.519 77.0162 106.716 77.2133 106.716 77.6077C106.716 78.0021 106.519 78.1992 106.125 78.1992C105.436 78.1992 104.318 78.102 102.772 77.9074C101.358 77.676 100.256 77.5604 99.4677 77.5604C98.6474 77.5604 97.5458 77.676 96.1629 77.9074C94.6854 78.102 93.5864 78.1992 92.866 78.1992C92.4717 78.1992 92.2745 78.0021 92.2745 77.6077C92.2745 77.2133 92.4717 77.0162 92.866 77.0162C93.8809 77.0162 94.7669 76.5561 95.524 75.6359C96.2129 74.6842 96.5573 73.5668 96.5573 72.2838V71.8894H88.1337C87.5711 71.8894 87.1767 71.758 86.9506 71.4951C86.6824 71.3005 86.5483 71.0376 86.5483 70.7064C86.5483 70.6064 86.7955 70.262 87.2897 69.6731C87.8524 69.0158 88.4439 68.2113 89.0644 67.2596C89.79 66.1396 90.4815 64.9881 91.1387 63.805C91.8591 62.4589 92.4349 60.913 92.866 59.1673C93.3551 57.3953 93.5995 55.589 93.5995 53.7487C93.5995 53.2229 93.8309 52.96 94.2936 52.96C94.3935 52.96 94.6065 53.01 94.9325 53.1098C95.0324 53.1414 95.2388 53.19 95.5516 53.2557C95.8645 53.3215 96.1182 53.3859 96.3128 53.449C96.9069 53.5489 97.467 53.5988 97.9928 53.5988Z" fill="black"/>
<path d="M97.9928 78.9249C98.9761 78.9249 99.8134 78.8105 100.505 78.5817C101.196 78.353 101.639 78.2386 101.834 78.2386C102.065 78.2386 102.247 78.3044 102.378 78.4359C102.478 78.5305 102.544 78.6435 102.575 78.775C102.575 78.8434 102.541 78.9433 102.473 79.0747L88.1337 95.7405H96.5573V89.131C96.5573 88.7051 96.673 88.3423 96.9043 88.0425C97.2987 87.7165 97.6273 87.5194 97.8902 87.451C98.3162 87.2564 98.8419 86.7964 99.4677 86.0707C99.9935 85.4818 100.619 84.4486 101.345 82.971C101.44 82.7712 101.587 82.6713 101.787 82.6713C102.181 82.6713 102.41 82.9027 102.473 83.3654V95.7405H106.077C106.535 95.7405 106.798 95.985 106.866 96.4741C106.866 96.9683 106.603 97.2154 106.077 97.2154H102.473V97.6098C102.473 98.9243 102.801 100.042 103.459 100.962C104.216 101.882 105.104 102.342 106.125 102.342C106.519 102.342 106.716 102.539 106.716 102.934C106.716 103.328 106.519 103.525 106.125 103.525C105.436 103.525 104.318 103.428 102.772 103.233C101.358 103.002 100.256 102.886 99.4677 102.886C98.6474 102.886 97.5458 103.002 96.1629 103.233C94.6854 103.428 93.5864 103.525 92.866 103.525C92.4717 103.525 92.2745 103.328 92.2745 102.934C92.2745 102.539 92.4717 102.342 92.866 102.342C93.8809 102.342 94.7669 101.882 95.524 100.962C96.2129 100.01 96.5573 98.8928 96.5573 97.6098V97.2154H88.1337C87.5711 97.2154 87.1767 97.084 86.9506 96.8211C86.6824 96.6265 86.5483 96.3636 86.5483 96.0324C86.5483 95.9324 86.7955 95.588 87.2897 94.9991C87.8524 94.3418 88.4439 93.5373 89.0644 92.5856C89.79 91.4656 90.4815 90.3141 91.1387 89.131C91.8591 87.7849 92.4349 86.239 92.866 84.4933C93.3551 82.7213 93.5995 80.9151 93.5995 79.0747C93.5995 78.5489 93.8309 78.286 94.2936 78.286C94.3935 78.286 94.6065 78.336 94.9325 78.4359C95.0324 78.4674 95.2388 78.516 95.5516 78.5817C95.8645 78.6475 96.1182 78.7119 96.3128 78.775C96.9069 78.8749 97.467 78.9249 97.9928 78.9249Z" fill="black"/>
<path fill-rule="evenodd" clip-rule="evenodd" d="M139.184 65.6825L224.845 62.4659V68.7805L139.184 71.9971V65.6825Z" fill="black"/>
<path fill-rule="evenodd" clip-rule="evenodd" d="M224.845 71.9309L208.187 72.5562V78.8703L224.845 78.245V71.9309Z" fill="black"/>
<path d="M146.082 111.815C145.522 111.255 145.242 110.581 145.242 109.792C145.242 109.003 145.522 108.329 146.082 107.769C146.642 107.209 147.316 106.929 148.105 106.929C148.894 106.929 149.567 107.209 150.124 107.769C150.681 108.329 150.96 109.003 150.96 109.792C150.96 110.581 150.681 111.255 150.124 111.815C149.567 112.375 148.894 112.655 148.105 112.655C147.316 112.655 146.642 112.375 146.082 111.815Z" fill="black"/>
</svg>
