<svg width="512" height="166" viewBox="0 0 512 166" fill="none" xmlns="http://www.w3.org/2000/svg">
<path fill-rule="evenodd" clip-rule="evenodd" d="M480 56.0544H32V54.9277H480V56.0544Z" fill="black"/>
<path fill-rule="evenodd" clip-rule="evenodd" d="M480 70.1689H32V69.0422H480V70.1689Z" fill="black"/>
<path fill-rule="evenodd" clip-rule="evenodd" d="M480 84.2837H32V83.1569H480V84.2837Z" fill="black"/>
<path fill-rule="evenodd" clip-rule="evenodd" d="M480 98.3982H32V97.2714H480V98.3982Z" fill="black"/>
<path fill-rule="evenodd" clip-rule="evenodd" d="M480 112.512H32V111.386H480V112.512Z" fill="black"/>
<path fill-rule="evenodd" clip-rule="evenodd" d="M465.039 112.514V54.9266H467.298V112.514H465.039Z" fill="black"/>
<path fill-rule="evenodd" clip-rule="evenodd" d="M472.943 112.514V54.9266H479.999V112.514H472.943Z" fill="black"/>
<path fill-rule="evenodd" clip-rule="evenodd" d="M129.769 124.934H159.08V127.193H129.769V124.934Z" fill="black"/>
<path fill-rule="evenodd" clip-rule="evenodd" d="M254.724 124.934H284.034V127.193H254.724V124.934Z" fill="black"/>
<path fill-rule="evenodd" clip-rule="evenodd" d="M152.798 49.2824C153.304 49.2824 153.714 49.6926 153.714 50.1986V123.413C153.714 123.919 153.304 124.329 152.798 124.329C152.292 124.329 151.881 123.919 151.881 123.413V50.1986C151.881 49.6926 152.292 49.2824 152.798 49.2824Z" fill="black"/>
<path fill-rule="evenodd" clip-rule="evenodd" d="M277.753 43.9894C278.259 43.9894 278.669 44.3996 278.669 44.9056V123.413C278.669 123.919 278.259 124.329 277.753 124.329C277.247 124.329 276.836 123.919 276.836 123.413V44.9056C276.836 44.3996 277.247 43.9894 277.753 43.9894Z" fill="black"/>
<path d="M147.536 118.292C149.3 118.292 150.791 118.751 152.008 119.668C153.143 120.662 153.711 121.912 153.711 123.417C153.711 125.952 152.408 128.322 149.803 130.527C147.157 132.733 144.325 133.835 141.308 133.835C139.544 133.835 138.056 133.377 136.844 132.459C135.703 131.465 135.133 130.216 135.133 128.71C135.133 126.175 136.456 123.805 139.103 121.6C141.678 119.395 144.49 118.292 147.536 118.292Z" fill="black"/>
<path d="M147.536 104.177C149.3 104.177 150.791 104.636 152.008 105.554C153.143 106.547 153.711 107.797 153.711 109.303C153.711 111.837 152.408 114.207 149.803 116.413C147.157 118.618 144.325 119.721 141.308 119.721C139.544 119.721 138.056 119.262 136.844 118.345C135.703 117.351 135.133 116.101 135.133 114.596C135.133 112.061 136.456 109.691 139.103 107.485C141.678 105.28 144.49 104.177 147.536 104.177Z" fill="black"/>
<path d="M147.536 90.0632C149.3 90.0632 150.791 90.5219 152.008 91.4393C153.143 92.4332 153.711 93.6829 153.711 95.1885C153.711 97.7232 152.408 100.093 149.803 102.299C147.157 104.504 144.325 105.607 141.308 105.607C139.544 105.607 138.056 105.148 136.844 104.231C135.703 103.237 135.133 101.987 135.133 100.481C135.133 97.9466 136.456 95.5766 139.103 93.3712C141.678 91.1658 144.49 90.0632 147.536 90.0632Z" fill="black"/>
<path d="M272.491 118.292C274.255 118.292 275.746 118.751 276.963 119.668C278.098 120.662 278.666 121.912 278.666 123.417C278.666 125.952 277.363 128.322 274.758 130.527C272.111 132.733 269.279 133.835 266.262 133.835C264.498 133.835 263.01 133.377 261.799 132.459C260.658 131.465 260.087 130.216 260.087 128.71C260.087 126.175 261.411 123.805 264.057 121.6C266.633 119.395 269.444 118.292 272.491 118.292Z" fill="black"/>
<path d="M272.491 97.12C274.255 97.12 275.746 97.5787 276.963 98.4962C278.098 99.49 278.666 100.74 278.666 102.245C278.666 104.78 277.363 107.15 274.758 109.355C272.111 111.561 269.279 112.664 266.262 112.664C264.498 112.664 263.01 112.205 261.799 111.287C260.658 110.293 260.087 109.044 260.087 107.538C260.087 105.003 261.411 102.633 264.057 100.428C266.633 98.2227 269.444 97.12 272.491 97.12Z" fill="black"/>
<path d="M272.491 83.0055C274.255 83.0055 275.746 83.4642 276.963 84.3817C278.098 85.3755 278.666 86.6252 278.666 88.1308C278.666 90.6655 277.363 93.0356 274.758 95.2409C272.111 97.4463 269.279 98.549 266.262 98.549C264.498 98.549 263.01 98.0903 261.799 97.1728C260.658 96.179 260.087 94.9292 260.087 93.4237C260.087 90.889 261.411 88.5189 264.057 86.3136C266.633 84.1082 269.444 83.0055 272.491 83.0055Z" fill="black"/>
<path d="M64.0222 83.3852C64.0222 83.3852 64.1339 83.3852 64.3574 83.3852C64.5044 83.3499 64.6309 83.3323 64.7367 83.3323C68.8534 83.3323 72.235 84.7849 74.8815 87.6901C77.5279 90.5542 78.8512 93.8975 78.8512 97.7202C78.8512 102.466 76.8869 106.327 72.9584 109.303C71.9292 110.114 70.5854 110.776 68.927 111.288C69.1151 113.675 69.2093 115.604 69.2093 117.075C69.2093 117.369 69.171 118.436 69.0945 120.277C68.9475 123.694 67.7713 126.652 65.5659 129.151C63.437 131.615 60.7906 132.847 57.6265 132.847C54.6508 132.847 52.116 131.801 50.0224 129.707C47.9229 127.572 46.8731 124.999 46.8731 121.988C46.8731 120.406 47.4818 119.062 48.6992 117.957C49.946 116.857 51.3956 116.307 53.0482 116.307C54.5184 116.307 55.7505 116.878 56.7444 118.019C57.7736 119.083 58.2882 120.406 58.2882 121.988C58.2882 123.417 57.7736 124.646 56.7444 125.676C55.7152 126.705 54.4831 127.219 53.0482 127.219C52.4601 127.219 51.8926 127.111 51.3456 126.893C52.9629 129.281 55.1124 130.475 57.7942 130.475C60.3289 130.475 62.4049 129.445 64.0222 127.387C65.7159 125.258 66.6363 122.776 66.7833 119.942C66.8539 118.177 66.8892 117.169 66.8892 116.916C66.8892 114.857 66.8157 113.167 66.6687 111.843C64.8338 112.137 63.1988 112.285 61.7639 112.285C56.6533 112.285 52.2983 110.261 48.6992 106.215C45.1706 102.134 43.4062 97.282 43.4062 91.6598C43.4062 90.4836 43.515 89.2898 43.7326 88.0782C43.9561 87.0843 44.2325 85.9993 44.5619 84.8231C44.7442 84.1585 45.2411 83.0911 46.0527 81.6209C46.3468 81.1798 46.6776 80.6284 47.0451 79.9669C47.4127 79.3052 47.67 78.8656 47.817 78.648C48.1816 77.9129 48.8962 76.919 49.9606 75.6664C50.2547 75.337 50.559 74.9709 50.8737 74.5681C51.1883 74.1652 51.4559 73.8344 51.6765 73.5756C51.897 73.3169 52.0617 73.114 52.1705 72.967C52.2793 72.8199 53.107 71.8466 54.6537 70.047C55.0183 69.6765 55.3756 69.2811 55.7255 68.8606C56.0754 68.4401 56.3606 68.1093 56.5812 67.8681C56.8018 67.627 56.9679 67.4535 57.0796 67.3477C55.7564 62.9722 54.9272 59.4789 54.5919 56.8677C54.3391 54.7741 54.2127 51.907 54.2127 48.2667C54.2127 45.0674 54.9477 42.0711 56.418 39.2774C57.8471 36.3783 59.8496 34.0082 62.4255 32.1671C62.5725 32.0559 62.7548 32 62.9724 32C63.2312 32 63.4164 32.0559 63.5282 32.1671C65.5101 34.5553 67.2185 37.6605 68.6535 41.4829C70.1237 45.3056 70.8588 48.7813 70.8588 51.91C70.8588 55.4386 70.0149 58.7467 68.3271 61.8342C66.4157 65.104 63.9516 68.4856 60.9346 71.9789C61.7051 74.4019 62.7342 78.204 64.0222 83.3852ZM68.7064 109.029C70.6177 108.33 72.1086 107.136 73.1789 105.448C74.3551 103.831 74.9432 102.01 74.9432 99.9873C74.9432 97.3761 74.0611 95.059 72.2968 93.036C70.4913 90.9423 68.1918 89.7661 65.3984 89.5073C66.9803 97.2644 68.083 103.772 68.7064 109.029ZM47.3759 96.2911C47.3759 99.9314 48.8462 103.131 51.7867 105.889C54.7978 108.571 58.1794 109.912 61.9314 109.912C63.4723 109.912 64.9779 109.8 66.4481 109.576C65.86 103.989 64.7014 97.2997 62.9724 89.5073C60.8787 89.7308 59.2085 90.4659 57.9618 91.7127C56.7444 93.0007 56.1357 94.4533 56.1357 96.0706C56.1357 98.864 57.6265 101.125 60.6082 102.854C60.8611 103.113 60.9876 103.389 60.9876 103.684C60.9876 103.978 60.8611 104.251 60.6082 104.504C60.3847 104.763 60.1084 104.892 59.779 104.892C59.7437 104.892 59.5791 104.857 59.285 104.786C57.1855 103.645 55.5682 102.175 54.4332 100.375C53.3628 98.4583 52.8276 96.5263 52.8276 94.5797C52.8276 92.045 53.6187 89.7485 55.2007 87.6901C56.8532 85.6317 59.0027 84.3085 61.6492 83.7204C60.62 79.6037 59.7761 76.3868 59.1174 74.0696C58.5293 74.7342 57.8221 75.534 56.9958 76.4691C56.1695 77.4042 55.6829 77.9658 55.5359 78.154C54.2127 79.8772 53.2011 81.218 52.5012 82.1766C51.2486 83.9057 50.3282 85.3935 49.7401 86.6404C49.1167 88.04 48.5668 89.5662 48.0905 91.2187C47.6141 92.8007 47.3759 94.4915 47.3759 96.2911ZM65.7865 40.2214C63.0283 41.58 60.8611 43.5266 59.285 46.0613C57.6677 48.6725 56.8591 51.4836 56.8591 54.4947C56.8591 57.1412 57.5207 60.708 58.8439 65.1952C61.4904 61.9959 63.4752 59.0377 64.7985 56.3207C66.1923 53.4508 66.8892 50.4544 66.8892 47.3316C66.8892 44.9792 66.5216 42.6092 65.7865 40.2214Z" fill="black"/>
<path d="M105.81 56.1573C106.91 56.1573 107.846 56.0294 108.619 55.7735C109.393 55.5177 109.888 55.3898 110.106 55.3898C110.365 55.3898 110.568 55.4633 110.715 55.6104C110.826 55.7162 110.9 55.8426 110.935 55.9896C110.935 56.0661 110.897 56.1779 110.82 56.3249L94.7829 74.9648H104.204V67.5723C104.204 67.096 104.334 66.6902 104.592 66.355C105.034 65.9903 105.401 65.7698 105.695 65.6933C106.172 65.4757 106.76 64.9612 107.459 64.1496C108.048 63.4909 108.747 62.3353 109.559 60.6827C109.665 60.4592 109.829 60.3475 110.053 60.3475C110.494 60.3475 110.75 60.6062 110.82 61.1238V74.9648H114.852C115.364 74.9648 115.658 75.2382 115.734 75.7852C115.734 76.338 115.44 76.6144 114.852 76.6144H110.82V77.0555C110.82 78.5257 111.188 79.7755 111.923 80.8046C112.77 81.8338 113.764 82.3484 114.905 82.3484C115.346 82.3484 115.566 82.5689 115.566 83.01C115.566 83.4511 115.346 83.6716 114.905 83.6716C114.134 83.6716 112.885 83.5628 111.156 83.3452C109.574 83.0864 108.342 82.9571 107.459 82.9571C106.542 82.9571 105.31 83.0864 103.763 83.3452C102.111 83.5628 100.882 83.6716 100.076 83.6716C99.6348 83.6716 99.4142 83.4511 99.4142 83.01C99.4142 82.5689 99.6348 82.3484 100.076 82.3484C101.211 82.3484 102.202 81.8338 103.049 80.8046C103.819 79.7402 104.204 78.4904 104.204 77.0555V76.6144H94.7829C94.1536 76.6144 93.7125 76.4674 93.4597 76.1734C93.1597 75.9557 93.0098 75.6617 93.0098 75.2912C93.0098 75.1794 93.2862 74.7942 93.839 74.1356C94.4683 73.4004 95.1299 72.5006 95.8238 71.4362C96.6354 70.1835 97.4088 68.8956 98.1439 67.5723C98.9496 66.0668 99.5935 64.3378 100.076 62.3853C100.623 60.4034 100.896 58.3832 100.896 56.3249C100.896 55.7368 101.155 55.4427 101.672 55.4427C101.784 55.4427 102.022 55.4986 102.387 55.6104C102.499 55.6456 102.73 55.7 103.08 55.7735C103.429 55.847 103.713 55.9191 103.931 55.9896C104.595 56.1014 105.222 56.1573 105.81 56.1573Z" fill="black"/>
<path d="M105.81 84.4832C106.91 84.4832 107.846 84.3553 108.619 84.0994C109.393 83.8436 109.888 83.7157 110.106 83.7157C110.365 83.7157 110.568 83.7893 110.715 83.9363C110.826 84.0421 110.9 84.1685 110.935 84.3156C110.935 84.3921 110.897 84.5038 110.82 84.6508L94.7829 103.291H104.204V95.8983C104.204 95.4219 104.334 95.0161 104.592 94.6809C105.034 94.3163 105.401 94.0957 105.695 94.0193C106.172 93.8017 106.76 93.2871 107.459 92.4755C108.048 91.8168 108.747 90.6612 109.559 89.0086C109.665 88.7852 109.829 88.6734 110.053 88.6734C110.494 88.6734 110.75 88.9322 110.82 89.4497V103.291H114.852C115.364 103.291 115.658 103.564 115.734 104.111C115.734 104.664 115.44 104.94 114.852 104.94H110.82V105.381C110.82 106.852 111.188 108.101 111.923 109.131C112.77 110.16 113.764 110.674 114.905 110.674C115.346 110.674 115.566 110.895 115.566 111.336C115.566 111.777 115.346 111.998 114.905 111.998C114.134 111.998 112.885 111.889 111.156 111.671C109.574 111.412 108.342 111.283 107.459 111.283C106.542 111.283 105.31 111.412 103.763 111.671C102.111 111.889 100.882 111.998 100.076 111.998C99.6348 111.998 99.4142 111.777 99.4142 111.336C99.4142 110.895 99.6348 110.674 100.076 110.674C101.211 110.674 102.202 110.16 103.049 109.131C103.819 108.066 104.204 106.816 104.204 105.381V104.94H94.7829C94.1536 104.94 93.7125 104.793 93.4597 104.499C93.1597 104.282 93.0098 103.988 93.0098 103.617C93.0098 103.505 93.2862 103.12 93.839 102.461C94.4683 101.726 95.1299 100.827 95.8238 99.7621C96.6354 98.5094 97.4088 97.2215 98.1439 95.8983C98.9496 94.3927 99.5935 92.6637 100.076 90.7112C100.623 88.7293 100.896 86.7091 100.896 84.6508C100.896 84.0627 101.155 83.7687 101.672 83.7687C101.784 83.7687 102.022 83.8245 102.387 83.9363C102.499 83.9716 102.73 84.0259 103.08 84.0994C103.429 84.1729 103.713 84.245 103.931 84.3156C104.595 84.4273 105.222 84.4832 105.81 84.4832Z" fill="black"/>
<path d="M276.835 59.02V44.9055H278.6C278.6 46.9992 279.006 49.0957 279.817 51.1953C280.699 53.4712 281.673 55.4561 282.737 57.1498C283.507 58.3613 284.666 60.2168 286.213 62.7162C287.389 64.6275 288.381 66.63 289.19 68.7236C289.999 70.8173 290.403 72.9139 290.403 75.0134C290.403 78.8361 289.612 82.7322 288.03 86.702C287.736 87.143 287.386 87.3635 286.98 87.3635C286.616 87.3635 286.286 87.2165 285.992 86.9225C285.769 86.699 285.657 86.4226 285.657 86.0932V85.8198C287.239 82.1794 288.03 78.5773 288.03 75.0134C288.03 73.1726 287.477 71.1878 286.372 69.0589C285.272 66.8888 284.151 65.1598 283.011 63.8718C281.723 62.3663 280.252 60.749 278.6 59.02H276.835Z" fill="black"/>
<path d="M159.595 121.269C158.968 120.643 158.655 119.889 158.655 119.007C158.655 118.125 158.968 117.37 159.595 116.744C160.221 116.118 160.975 115.804 161.857 115.804C162.74 115.804 163.492 116.118 164.116 116.744C164.739 117.37 165.051 118.125 165.051 119.007C165.051 119.889 164.739 120.643 164.116 121.269C163.492 121.896 162.74 122.209 161.857 122.209C160.975 122.209 160.221 121.896 159.595 121.269Z" fill="black"/>
<path d="M159.595 107.154C158.968 106.528 158.655 105.774 158.655 104.892C158.655 104.009 158.968 103.255 159.595 102.629C160.221 102.003 160.975 101.689 161.857 101.689C162.74 101.689 163.492 102.003 164.116 102.629C164.739 103.255 165.051 104.009 165.051 104.892C165.051 105.774 164.739 106.528 164.116 107.154C163.492 107.781 162.74 108.094 161.857 108.094C160.975 108.094 160.221 107.781 159.595 107.154Z" fill="black"/>
<path d="M159.595 93.0401C158.968 92.4138 158.655 91.6596 158.655 90.7774C158.655 89.8953 158.968 89.141 159.595 88.5147C160.221 87.8884 160.975 87.5752 161.857 87.5752C162.74 87.5752 163.492 87.8884 164.116 88.5147C164.739 89.141 165.051 89.8953 165.051 90.7774C165.051 91.6596 164.739 92.4138 164.116 93.0401C163.492 93.6665 162.74 93.9796 161.857 93.9796C160.975 93.9796 160.221 93.6665 159.595 93.0401Z" fill="black"/>
</svg>
