<svg width="512" height="135" viewBox="0 0 512 135" fill="none" xmlns="http://www.w3.org/2000/svg">
<path fill-rule="evenodd" clip-rule="evenodd" d="M480 48.6836H32V47.9021H480V48.6836Z" fill="black"/>
<path fill-rule="evenodd" clip-rule="evenodd" d="M480 58.4729H32V57.6914H480V58.4729Z" fill="black"/>
<path fill-rule="evenodd" clip-rule="evenodd" d="M480 68.2626H32V67.4811H480V68.2626Z" fill="black"/>
<path fill-rule="evenodd" clip-rule="evenodd" d="M480 78.0519H32V77.2704H480V78.0519Z" fill="black"/>
<path fill-rule="evenodd" clip-rule="evenodd" d="M480 87.8412H32V87.0597H480V87.8412Z" fill="black"/>
<path fill-rule="evenodd" clip-rule="evenodd" d="M469.626 87.842V47.9013H471.193V87.842H469.626Z" fill="black"/>
<path fill-rule="evenodd" clip-rule="evenodd" d="M475.106 87.842V47.9013H480V87.842H475.106Z" fill="black"/>
<path fill-rule="evenodd" clip-rule="evenodd" d="M99.8097 96.4564H120.139V98.0233H99.8097V96.4564Z" fill="black"/>
<path fill-rule="evenodd" clip-rule="evenodd" d="M115.782 67.2364C116.133 67.2364 116.417 67.5209 116.417 67.8718V95.4013C116.417 95.7523 116.133 96.0368 115.782 96.0368C115.431 96.0368 115.146 95.7523 115.146 95.4013V67.8718C115.146 67.5209 115.431 67.2364 115.782 67.2364Z" fill="black"/>
<path fill-rule="evenodd" clip-rule="evenodd" d="M168.081 64.7889C168.432 64.7889 168.717 65.0734 168.717 65.4244V90.5065C168.717 90.8574 168.432 91.1419 168.081 91.1419C167.73 91.1419 167.446 90.8574 167.446 90.5065V65.4244C167.446 65.0734 167.73 64.7889 168.081 64.7889Z" fill="black"/>
<path fill-rule="evenodd" clip-rule="evenodd" d="M220.38 57.4467C220.731 57.4467 221.016 57.7312 221.016 58.0821V85.612C221.016 85.963 220.731 86.2475 220.38 86.2475C220.029 86.2475 219.745 85.963 219.745 85.612V58.0821C219.745 57.7312 220.029 57.4467 220.38 57.4467Z" fill="black"/>
<path fill-rule="evenodd" clip-rule="evenodd" d="M272.68 51.4226C273.031 51.4226 273.315 51.7071 273.315 52.0581V80.7172C273.315 81.0681 273.031 81.3526 272.68 81.3526C272.329 81.3526 272.044 81.0681 272.044 80.7172V52.0581C272.044 51.7071 272.329 51.4226 272.68 51.4226Z" fill="black"/>
<path fill-rule="evenodd" clip-rule="evenodd" d="M305.367 47.6573C305.718 47.6573 306.002 47.9418 306.002 48.2928V75.8223C306.002 76.1733 305.718 76.4578 305.367 76.4578C305.016 76.4578 304.731 76.1733 304.731 75.8223V48.2928C304.731 47.9418 305.016 47.6573 305.367 47.6573Z" fill="black"/>
<path fill-rule="evenodd" clip-rule="evenodd" d="M338.054 40.3154C338.405 40.3154 338.689 40.5999 338.689 40.9509V70.9278C338.689 71.2788 338.405 71.5633 338.054 71.5633C337.703 71.5633 337.418 71.2788 337.418 70.9278V40.9509C337.418 40.5999 337.703 40.3154 338.054 40.3154Z" fill="black"/>
<path fill-rule="evenodd" clip-rule="evenodd" d="M398.348 69.0748C398.699 69.0748 398.983 69.3593 398.983 69.7102V98.4633C398.983 98.8142 398.699 99.0987 398.348 99.0987C397.997 99.0987 397.713 98.8142 397.713 98.4633V69.7102C397.713 69.3593 397.997 69.0748 398.348 69.0748Z" fill="black"/>
<path d="M112.132 91.8496C113.356 91.8496 114.39 92.1678 115.234 92.8041C116.022 93.4934 116.415 94.3602 116.415 95.4044C116.415 97.1624 115.512 98.8062 113.705 100.336C111.869 101.865 109.905 102.63 107.813 102.63C106.589 102.63 105.557 102.312 104.717 101.676C103.926 100.986 103.53 100.12 103.53 99.0754C103.53 97.3174 104.448 95.6736 106.283 94.144C108.07 92.6144 110.02 91.8496 112.132 91.8496Z" fill="black"/>
<path d="M164.432 86.9551C165.655 86.9551 166.689 87.2732 167.534 87.9096C168.321 88.5989 168.714 89.4657 168.714 90.5099C168.714 92.2679 167.811 93.9117 166.004 95.4413C164.168 96.9708 162.204 97.7356 160.112 97.7356C158.888 97.7356 157.856 97.4175 157.016 96.7812C156.225 96.0918 155.829 95.2251 155.829 94.1809C155.829 92.4229 156.747 90.7791 158.582 89.2495C160.369 87.7199 162.319 86.9551 164.432 86.9551Z" fill="black"/>
<path d="M216.731 82.0602C217.955 82.0602 218.989 82.3784 219.833 83.0147C220.62 83.704 221.014 84.5708 221.014 85.615C221.014 87.373 220.11 89.0168 218.303 90.5464C216.468 92.0759 214.504 92.8407 212.411 92.8407C211.188 92.8407 210.156 92.5226 209.316 91.8863C208.524 91.1969 208.129 90.3302 208.129 89.286C208.129 87.528 209.046 85.8842 210.882 84.3546C212.668 82.825 214.618 82.0602 216.731 82.0602Z" fill="black"/>
<path d="M269.03 77.1654C270.254 77.1654 271.288 77.4835 272.132 78.1199C272.919 78.8092 273.313 79.6759 273.313 80.7202C273.313 82.4782 272.409 84.122 270.602 85.6516C268.767 87.1811 266.803 87.9459 264.71 87.9459C263.487 87.9459 262.455 87.6278 261.615 86.9915C260.823 86.3021 260.428 85.4354 260.428 84.3912C260.428 82.6332 261.345 80.9894 263.181 79.4598C264.967 77.9302 266.917 77.1654 269.03 77.1654Z" fill="black"/>
<path d="M301.717 72.2709C302.941 72.2709 303.975 72.589 304.819 73.2253C305.607 73.9147 306 74.7814 306 75.8256C306 77.5836 305.097 79.2274 303.29 80.757C301.454 82.2866 299.49 83.0514 297.398 83.0514C296.174 83.0514 295.142 82.7333 294.302 82.0969C293.511 81.4076 293.115 80.5409 293.115 79.4967C293.115 77.7386 294.033 76.0948 295.868 74.5653C297.655 73.0357 299.604 72.2709 301.717 72.2709Z" fill="black"/>
<path d="M334.404 67.3761C335.628 67.3761 336.662 67.6942 337.506 68.3305C338.293 69.0199 338.687 69.8866 338.687 70.9308C338.687 72.6888 337.784 74.3326 335.977 75.8622C334.141 77.3918 332.177 78.1566 330.085 78.1566C328.861 78.1566 327.829 77.8385 326.989 77.2021C326.197 76.5128 325.802 75.646 325.802 74.6018C325.802 72.8438 326.72 71.2 328.555 69.6704C330.342 68.1409 332.291 67.3761 334.404 67.3761Z" fill="black"/>
<path d="M406.315 62.4816C407.539 62.4816 408.573 62.7997 409.417 63.436C410.204 64.1254 410.598 64.9921 410.598 66.0363C410.598 67.7943 409.694 69.4381 407.887 70.9677C406.052 72.4973 404.088 73.2621 401.995 73.2621C400.772 73.2621 399.74 72.944 398.899 72.3076C398.108 71.6183 397.713 70.7515 397.713 69.7073C397.713 67.9493 398.63 66.3055 400.466 64.7759C402.252 63.2464 404.202 62.4816 406.315 62.4816Z" fill="black"/>
<path d="M54.2099 67.6393C54.2099 67.6393 54.2874 67.6393 54.4424 67.6393C54.5443 67.6148 54.6321 67.6026 54.7055 67.6026C57.5607 67.6026 59.9061 68.6101 61.7416 70.6251C63.5771 72.6115 64.4949 74.9304 64.4949 77.5817C64.4949 80.8734 63.1325 83.5512 60.4078 85.6151C59.694 86.178 58.762 86.6369 57.6117 86.9917C57.7422 88.6478 57.8075 89.9857 57.8075 91.0054C57.8075 91.2093 57.7809 91.9496 57.7279 93.2263C57.626 95.5962 56.8102 97.6479 55.2806 99.3814C53.804 101.09 51.9685 101.945 49.774 101.945C47.7101 101.945 45.9521 101.219 44.5 99.7669C43.0439 98.2862 42.3158 96.5017 42.3158 94.4133C42.3158 93.3161 42.7379 92.3841 43.5823 91.6172C44.447 90.8544 45.4525 90.4731 46.5986 90.4731C47.6183 90.4731 48.4729 90.8687 49.1622 91.66C49.876 92.3983 50.2329 93.3161 50.2329 94.4133C50.2329 95.4045 49.876 96.257 49.1622 96.9708C48.4484 97.6846 47.5939 98.0415 46.5986 98.0415C46.1907 98.0415 45.7971 97.966 45.4178 97.8151C46.5395 99.4711 48.0303 100.299 49.8903 100.299C51.6483 100.299 53.0882 99.5854 54.2099 98.1578C55.3846 96.6812 56.023 94.9599 56.1249 92.9939C56.1739 91.7702 56.1984 91.0706 56.1984 90.8952C56.1984 89.4676 56.1474 88.295 56.0454 87.3772C54.7728 87.5811 53.6388 87.6831 52.6436 87.6831C49.099 87.6831 46.0786 86.2799 43.5823 83.4737C41.1349 80.6429 39.9113 77.2778 39.9113 73.3784C39.9113 72.5626 39.9867 71.7346 40.1376 70.8943C40.2926 70.205 40.4843 69.4524 40.7128 68.6366C40.8392 68.1757 41.1839 67.4354 41.7468 66.4156C41.9507 66.1097 42.1802 65.7273 42.4351 65.2685C42.69 64.8096 42.8685 64.5047 42.9704 64.3538C43.2233 63.8439 43.7189 63.1546 44.4572 62.2858C44.6611 62.0573 44.8722 61.8034 45.0905 61.524C45.3087 61.2446 45.4942 61.0152 45.6472 60.8357C45.8002 60.6562 45.9144 60.5155 45.9899 60.4135C46.0653 60.3116 46.6394 59.6365 47.7122 58.3883C47.965 58.1314 48.2128 57.8571 48.4555 57.5654C48.6982 57.2738 48.8961 57.0444 49.049 56.8771C49.202 56.7099 49.3172 56.5896 49.3947 56.5161C48.477 53.4814 47.9018 51.0586 47.6693 49.2475C47.4939 47.7954 47.4063 45.8069 47.4063 43.2821C47.4063 41.0632 47.9161 38.985 48.9358 37.0474C49.927 35.0367 51.3159 33.3928 53.1024 32.1159C53.2044 32.0388 53.3309 32 53.4818 32C53.6613 32 53.7897 32.0388 53.8673 32.1159C55.2419 33.7723 56.4268 35.9259 57.422 38.5771C58.4417 41.2284 58.9516 43.639 58.9516 45.809C58.9516 48.2563 58.3663 50.5507 57.1957 52.6922C55.87 54.96 54.1609 57.3054 52.0684 59.7283C52.6028 61.4088 53.3166 64.0458 54.2099 67.6393ZM57.4587 85.4254C58.7844 84.94 59.8184 84.112 60.5607 82.9414C61.3765 81.8197 61.7844 80.5572 61.7844 79.1541C61.7844 77.3431 61.1726 75.736 59.9489 74.3328C58.6967 72.8807 57.1018 72.0649 55.1644 71.8855C56.2616 77.2656 57.0264 81.7789 57.4587 85.4254ZM42.6645 76.5905C42.6645 79.1153 43.6842 81.3343 45.7237 83.2473C47.8121 85.1073 50.1575 86.0372 52.7598 86.0372C53.8285 86.0372 54.8727 85.9597 55.8924 85.8048C55.4845 81.9298 54.681 77.29 53.4818 71.8855C52.0297 72.0405 50.8713 72.5503 50.0066 73.415C49.1622 74.3083 48.7401 75.3158 48.7401 76.4375C48.7401 78.375 49.774 79.9434 51.8421 81.1426C52.0175 81.322 52.1052 81.5137 52.1052 81.7177C52.1052 81.9216 52.0175 82.1113 51.8421 82.2867C51.6871 82.4662 51.4954 82.5559 51.2669 82.5559C51.2425 82.5559 51.1283 82.5314 50.9243 82.4825C49.4682 81.6912 48.3464 80.6714 47.5592 79.4233C46.8168 78.0936 46.4457 76.7537 46.4457 75.4035C46.4457 73.6455 46.9943 72.0527 48.0915 70.6251C49.2377 69.1975 50.7285 68.2797 52.564 67.8718C51.8502 65.0166 51.2649 62.7854 50.8081 61.1783C50.4002 61.6392 49.9097 62.194 49.3366 62.8425C48.7635 63.4911 48.426 63.8806 48.324 64.0111C47.4063 65.2063 46.7047 66.1362 46.2193 66.8011C45.3505 68.0003 44.7121 69.0323 44.3043 69.897C43.8719 70.8678 43.4905 71.9263 43.1601 73.0724C42.8297 74.1697 42.6645 75.3423 42.6645 76.5905ZM55.4336 37.7021C53.5205 38.6444 52.0175 39.9945 50.9243 41.7525C49.8026 43.5636 49.2418 45.5133 49.2418 47.6017C49.2418 49.4372 49.7006 51.9111 50.6184 55.0233C52.4539 52.8043 53.8305 50.7526 54.7483 48.8682C55.715 46.8777 56.1984 44.7995 56.1984 42.6336C56.1984 41.002 55.9434 39.3582 55.4336 37.7021Z" fill="black"/>
<path d="M83.1923 48.7548C83.9551 48.7548 84.6046 48.6661 85.141 48.4886C85.6774 48.3112 86.021 48.2225 86.172 48.2225C86.3515 48.2225 86.4921 48.2735 86.5942 48.3755C86.6716 48.4489 86.7226 48.5366 86.7471 48.6385C86.7471 48.6916 86.7206 48.7691 86.6676 48.871L75.5444 61.7991H82.0788V56.672C82.0788 56.3416 82.1685 56.0601 82.348 55.8276C82.6539 55.5747 82.9088 55.4218 83.1128 55.3687C83.4432 55.2178 83.8511 54.8609 84.3364 54.298C84.7444 53.8412 85.2297 53.0397 85.7926 51.8935C85.8661 51.7385 85.9802 51.661 86.1353 51.661C86.4412 51.661 86.6186 51.8405 86.6676 52.1994V61.7991H89.4637C89.8185 61.7991 90.0225 61.9888 90.0755 62.3682C90.0755 62.7516 89.8715 62.9433 89.4637 62.9433H86.6676V63.2492C86.6676 64.2689 86.9225 65.1357 87.4324 65.8495C88.0197 66.5633 88.7091 66.9202 89.5003 66.9202C89.8063 66.9202 89.9592 67.0732 89.9592 67.3791C89.9592 67.685 89.8063 67.838 89.5003 67.838C88.966 67.838 88.0993 67.7625 86.9001 67.6116C85.8028 67.4321 84.9483 67.3424 84.3364 67.3424C83.7001 67.3424 82.8456 67.4321 81.7729 67.6116C80.6267 67.7625 79.7742 67.838 79.2154 67.838C78.9095 67.838 78.7565 67.685 78.7565 67.3791C78.7565 67.0732 78.9095 66.9202 79.2154 66.9202C80.0026 66.9202 80.6899 66.5633 81.2773 65.8495C81.8116 65.1112 82.0788 64.2444 82.0788 63.2492V62.9433H75.5444C75.1079 62.9433 74.802 62.8413 74.6266 62.6374C74.4186 62.4864 74.3146 62.2825 74.3146 62.0255C74.3146 61.948 74.5063 61.6809 74.8897 61.224C75.3261 60.7142 75.785 60.0901 76.2663 59.3518C76.8292 58.483 77.3656 57.5897 77.8755 56.672C78.4343 55.6278 78.8809 54.4286 79.2154 53.0744C79.5947 51.6998 79.7844 50.2986 79.7844 48.871C79.7844 48.4631 79.9639 48.2592 80.3228 48.2592C80.4003 48.2592 80.5655 48.298 80.8184 48.3755C80.8959 48.3999 81.056 48.4376 81.2987 48.4886C81.5414 48.5396 81.7382 48.5896 81.8891 48.6385C82.35 48.7161 82.7844 48.7548 83.1923 48.7548Z" fill="black"/>
<path d="M83.1923 68.401C83.9551 68.401 84.6046 68.3123 85.141 68.1348C85.6774 67.9574 86.021 67.8687 86.172 67.8687C86.3515 67.8687 86.4921 67.9197 86.5942 68.0216C86.6716 68.0951 86.7226 68.1827 86.7471 68.2847C86.7471 68.3378 86.7206 68.4153 86.6676 68.5172L75.5444 81.4453H82.0788V76.3181C82.0788 75.9877 82.1685 75.7063 82.348 75.4738C82.6539 75.2209 82.9088 75.0679 83.1128 75.0149C83.4432 74.864 83.8511 74.5071 84.3364 73.9442C84.7444 73.4874 85.2297 72.6859 85.7926 71.5397C85.8661 71.3847 85.9802 71.3072 86.1353 71.3072C86.4412 71.3072 86.6186 71.4867 86.6676 71.8456V81.4453H89.4637C89.8185 81.4453 90.0225 81.635 90.0755 82.0144C90.0755 82.3977 89.8715 82.5895 89.4637 82.5895H86.6676V82.8954C86.6676 83.9151 86.9225 84.7819 87.4324 85.4957C88.0197 86.2095 88.7091 86.5664 89.5003 86.5664C89.8063 86.5664 89.9592 86.7194 89.9592 87.0253C89.9592 87.3312 89.8063 87.4841 89.5003 87.4841C88.966 87.4841 88.0993 87.4087 86.9001 87.2578C85.8028 87.0783 84.9483 86.9886 84.3364 86.9886C83.7001 86.9886 82.8456 87.0783 81.7729 87.2578C80.6267 87.4087 79.7742 87.4841 79.2154 87.4841C78.9095 87.4841 78.7565 87.3312 78.7565 87.0253C78.7565 86.7194 78.9095 86.5664 79.2154 86.5664C80.0026 86.5664 80.6899 86.2095 81.2773 85.4957C81.8116 84.7574 82.0788 83.8906 82.0788 82.8954V82.5895H75.5444C75.1079 82.5895 74.802 82.4875 74.6266 82.2836C74.4186 82.1326 74.3146 81.9287 74.3146 81.6717C74.3146 81.5942 74.5063 81.327 74.8897 80.8702C75.3261 80.3603 75.785 79.7363 76.2663 78.998C76.8292 78.1292 77.3656 77.2359 77.8755 76.3181C78.4343 75.2739 78.8809 74.0747 79.2154 72.7205C79.5947 71.346 79.7844 69.9448 79.7844 68.5172C79.7844 68.1093 79.9639 67.9054 80.3228 67.9054C80.4003 67.9054 80.5655 67.9441 80.8184 68.0216C80.8959 68.0461 81.056 68.0838 81.2987 68.1348C81.5414 68.1858 81.7382 68.2358 81.8891 68.2847C82.35 68.3622 82.7844 68.401 83.1923 68.401Z" fill="black"/>
<path fill-rule="evenodd" clip-rule="evenodd" d="M115.146 65.4813L168.717 62.9742V67.8742L115.146 70.3813V65.4813Z" fill="black"/>
<path fill-rule="evenodd" clip-rule="evenodd" d="M219.744 55.7654L306.003 45.8296V50.7565L219.744 60.6926V55.7654Z" fill="black"/>
<path fill-rule="evenodd" clip-rule="evenodd" d="M272.043 57.0832L306.003 53.1715V58.0984L272.043 62.0105V57.0832Z" fill="black"/>
</svg>
