<svg width="512" height="154" viewBox="0 0 512 154" fill="none" xmlns="http://www.w3.org/2000/svg">
<path fill-rule="evenodd" clip-rule="evenodd" d="M480 53.1763H32V52.1846H480V53.1763Z" fill="black"/>
<path fill-rule="evenodd" clip-rule="evenodd" d="M480 65.5953H32V64.6035H480V65.5953Z" fill="black"/>
<path fill-rule="evenodd" clip-rule="evenodd" d="M480 78.024H32V77.0322H480V78.024Z" fill="black"/>
<path fill-rule="evenodd" clip-rule="evenodd" d="M480 90.4439H32V89.4521H480V90.4439Z" fill="black"/>
<path fill-rule="evenodd" clip-rule="evenodd" d="M480 102.863H32V101.871H480V102.863Z" fill="black"/>
<path fill-rule="evenodd" clip-rule="evenodd" d="M466.835 102.872V52.1846H468.824V102.872H466.835Z" fill="black"/>
<path fill-rule="evenodd" clip-rule="evenodd" d="M473.791 102.872V52.1846H480.001V102.872H473.791Z" fill="black"/>
<path fill-rule="evenodd" clip-rule="evenodd" d="M118.053 113.803H143.852V115.791H118.053V113.803Z" fill="black"/>
<path fill-rule="evenodd" clip-rule="evenodd" d="M138.324 70.5098C138.769 70.5098 139.13 70.8708 139.13 71.3162V112.465C139.13 112.91 138.769 113.271 138.324 113.271C137.878 113.271 137.517 112.91 137.517 112.465V71.3162C137.517 70.8708 137.878 70.5098 138.324 70.5098Z" fill="black"/>
<path fill-rule="evenodd" clip-rule="evenodd" d="M317.947 64.2959C318.392 64.2959 318.753 64.6569 318.753 65.1023V106.251C318.753 106.696 318.392 107.057 317.947 107.057C317.502 107.057 317.141 106.696 317.141 106.251V65.1023C317.141 64.6569 317.502 64.2959 317.947 64.2959Z" fill="black"/>
<path d="M133.693 107.956C135.246 107.956 136.559 108.36 137.63 109.167C138.629 110.042 139.129 111.142 139.129 112.467C139.129 114.698 137.982 116.784 135.689 118.726C133.36 120.667 130.867 121.637 128.212 121.637C126.659 121.637 125.349 121.234 124.283 120.426C123.278 119.551 122.776 118.451 122.776 117.126C122.776 114.895 123.941 112.809 126.27 110.868C128.538 108.927 131.012 107.956 133.693 107.956Z" fill="black"/>
<path d="M313.317 101.741C314.87 101.741 316.182 102.145 317.254 102.952C318.253 103.827 318.752 104.927 318.752 106.252C318.752 108.483 317.606 110.57 315.312 112.511C312.983 114.452 310.491 115.422 307.835 115.422C306.282 115.422 304.973 115.019 303.906 114.211C302.902 113.336 302.4 112.236 302.4 110.911C302.4 108.68 303.565 106.594 305.894 104.653C308.161 102.712 310.636 101.741 313.317 101.741Z" fill="black"/>
<path d="M60.1835 77.2286C60.1835 77.2286 60.2819 77.2286 60.4785 77.2286C60.6079 77.1976 60.7193 77.1821 60.8124 77.1821C64.4359 77.1821 67.4123 78.4606 69.7417 81.0177C72.0711 83.5387 73.2358 86.4815 73.2358 89.8461C73.2358 94.0235 71.5069 97.4218 68.049 100.041C67.1432 100.755 65.9604 101.338 64.5006 101.788C64.6663 103.89 64.7491 105.588 64.7491 106.882C64.7491 107.141 64.7154 108.08 64.6481 109.7C64.5187 112.708 63.4835 115.311 61.5423 117.511C59.6684 119.68 57.3391 120.765 54.5541 120.765C51.9349 120.765 49.7038 119.843 47.8611 118.001C46.0131 116.122 45.0891 113.857 45.0891 111.207C45.0891 109.814 45.6248 108.631 46.6964 107.658C47.7938 106.69 49.0698 106.206 50.5243 106.206C51.8184 106.206 52.9029 106.708 53.7777 107.712C54.6835 108.649 55.1365 109.814 55.1365 111.207C55.1365 112.464 54.6835 113.546 53.7777 114.452C52.8718 115.358 51.7873 115.811 50.5243 115.811C50.0067 115.811 49.5072 115.715 49.0257 115.524C50.4493 117.625 52.3412 118.676 54.7017 118.676C56.9327 118.676 58.76 117.77 60.1835 115.959C61.6743 114.085 62.4844 111.9 62.6138 109.405C62.6759 107.852 62.707 106.965 62.707 106.742C62.707 104.93 62.6423 103.442 62.5129 102.277C60.8979 102.536 59.4588 102.666 58.1958 102.666C53.6975 102.666 49.8643 100.885 46.6964 97.3235C43.5905 93.731 42.0376 89.4605 42.0376 84.5118C42.0376 83.4766 42.1334 82.4258 42.3249 81.3594C42.5216 80.4846 42.7649 79.5296 43.0548 78.4943C43.2152 77.9093 43.6526 76.9698 44.367 75.6757C44.6258 75.2875 44.917 74.8022 45.2405 74.2199C45.564 73.6375 45.7905 73.2506 45.9199 73.059C46.2408 72.412 46.8698 71.5372 47.8067 70.4346C48.0655 70.1447 48.3334 69.8225 48.6103 69.4679C48.8873 69.1133 49.1228 68.8222 49.3169 68.5944C49.511 68.3666 49.656 68.188 49.7518 68.0586C49.8475 67.9292 50.5761 67.0725 51.9375 65.4885C52.2584 65.1624 52.5729 64.8143 52.8809 64.4442C53.1889 64.0741 53.4399 63.783 53.6341 63.5707C53.8282 63.3585 53.9744 63.2058 54.0728 63.1126C52.908 59.2613 52.1782 56.1866 51.8831 53.8882C51.6605 52.0455 51.5493 49.5219 51.5493 46.3177C51.5493 43.5018 52.1963 40.8644 53.4904 38.4055C54.7483 35.8537 56.5108 33.7676 58.7781 32.1471C58.9075 32.0492 59.068 32 59.2595 32C59.4873 32 59.6503 32.0492 59.7487 32.1471C61.4931 34.2491 62.9969 36.9823 64.2599 40.3468C65.554 43.7114 66.201 46.7707 66.201 49.5245C66.201 52.6303 65.4582 55.5421 63.9726 58.2597C62.2903 61.1378 60.1214 64.1142 57.4659 67.189C58.144 69.3217 59.0499 72.6683 60.1835 77.2286ZM64.3065 99.8003C65.9888 99.1843 67.3011 98.1336 68.2431 96.6479C69.2784 95.2244 69.7961 93.6223 69.7961 91.8416C69.7961 89.5433 69.0196 87.5038 67.4667 85.7231C65.8775 83.8803 63.8536 82.845 61.3948 82.6173C62.7872 89.445 63.7578 95.1726 64.3065 99.8003ZM45.5317 88.5883C45.5317 91.7925 46.8258 94.6084 49.414 97.0362C52.0643 99.3966 55.0407 100.577 58.3433 100.577C59.6995 100.577 61.0247 100.478 62.3187 100.282C61.8011 95.3642 60.7814 89.476 59.2595 82.6173C57.4167 82.814 55.9466 83.461 54.8492 84.5584C53.7777 85.6921 53.2419 86.9706 53.2419 88.3942C53.2419 90.8529 54.5541 92.8433 57.1786 94.3651C57.4012 94.5929 57.5125 94.8362 57.5125 95.095C57.5125 95.3538 57.4012 95.5945 57.1786 95.8171C56.9819 96.0449 56.7386 96.1588 56.4487 96.1588C56.4176 96.1588 56.2727 96.1277 56.0139 96.0656C54.1659 95.0614 52.7424 93.7673 51.7434 92.1833C50.8012 90.4958 50.3302 88.7953 50.3302 87.0819C50.3302 84.8509 51.0264 82.8295 52.4189 81.0177C53.8734 79.206 55.7654 78.0414 58.0948 77.5237C57.1889 73.9002 56.4461 71.0687 55.8664 69.0292C55.3487 69.6141 54.7263 70.3181 53.999 71.1412C53.2717 71.9642 52.8433 72.4586 52.7139 72.6242C51.5493 74.1409 50.6589 75.3211 50.0429 76.1649C48.9404 77.6867 48.1302 78.9964 47.6126 80.0938C47.0639 81.3258 46.5799 82.6691 46.1606 84.1236C45.7413 85.5161 45.5317 87.0043 45.5317 88.5883ZM61.7364 39.2364C59.3087 40.4322 57.4012 42.1456 56.0139 44.3766C54.5904 46.6749 53.8786 49.1492 53.8786 51.7996C53.8786 54.129 54.461 57.2684 55.6257 61.218C57.9551 58.402 59.7021 55.7983 60.8668 53.4068C62.0936 50.8807 62.707 48.2434 62.707 45.4947C62.707 43.4241 62.3834 41.3381 61.7364 39.2364Z" fill="black"/>
<path d="M96.9647 53.2683C97.9327 53.2683 98.757 53.1558 99.4377 52.9305C100.118 52.7054 100.555 52.5928 100.746 52.5928C100.974 52.5928 101.152 52.6575 101.282 52.7869C101.38 52.8801 101.445 52.9914 101.476 53.1208C101.476 53.1881 101.442 53.2864 101.375 53.4158L87.2589 69.8225H95.5515V63.3157C95.5515 62.8964 95.6654 62.5393 95.8932 62.2442C96.2814 61.9233 96.6049 61.7292 96.8637 61.6619C97.283 61.4703 97.8007 61.0174 98.4167 60.3031C98.9343 59.7233 99.5503 58.7061 100.265 57.2515C100.358 57.0549 100.503 56.9565 100.699 56.9565C101.088 56.9565 101.313 57.1843 101.375 57.6398V69.8225H104.923C105.374 69.8225 105.633 70.0632 105.7 70.5446C105.7 71.0311 105.441 71.2744 104.923 71.2744H101.375V71.6627C101.375 72.9568 101.699 74.0568 102.346 74.9626C103.091 75.8685 103.966 76.3215 104.97 76.3215C105.358 76.3215 105.552 76.5156 105.552 76.9038C105.552 77.292 105.358 77.4861 104.97 77.4861C104.292 77.4861 103.192 77.3904 101.67 77.1988C100.278 76.9711 99.1931 76.8572 98.4167 76.8572C97.6091 76.8572 96.5247 76.9711 95.1633 77.1988C93.7087 77.3904 92.6269 77.4861 91.9177 77.4861C91.5295 77.4861 91.3353 77.292 91.3353 76.9038C91.3353 76.5156 91.5295 76.3215 91.9177 76.3215C92.9167 76.3215 93.789 75.8685 94.5344 74.9626C95.2125 74.0257 95.5515 72.9257 95.5515 71.6627V71.2744H87.2589C86.7051 71.2744 86.3168 71.145 86.0942 70.8862C85.8302 70.6947 85.6982 70.4359 85.6982 70.1098C85.6982 70.0114 85.9415 69.6723 86.4281 69.0926C86.982 68.4455 87.5643 67.6535 88.1752 66.7166C88.8895 65.614 89.5702 64.4804 90.2172 63.3157C90.9264 61.9906 91.4932 60.4687 91.9177 58.7501C92.3991 57.0057 92.6398 55.2276 92.6398 53.4158C92.6398 52.8982 92.8676 52.6394 93.3231 52.6394C93.4214 52.6394 93.6311 52.6886 93.952 52.7869C94.0504 52.818 94.2535 52.8658 94.5615 52.9305C94.8695 52.9952 95.1193 53.0586 95.3108 53.1208C95.8958 53.2192 96.4471 53.2683 96.9647 53.2683Z" fill="black"/>
<path d="M96.9647 78.1951C97.9327 78.1951 98.757 78.0825 99.4377 77.8573C100.118 77.6321 100.555 77.5195 100.746 77.5195C100.974 77.5195 101.152 77.5843 101.282 77.7137C101.38 77.8069 101.445 77.9181 101.476 78.0475C101.476 78.1149 101.442 78.2132 101.375 78.3426L87.2589 94.7492H95.5515V88.2425C95.5515 87.8232 95.6654 87.466 95.8932 87.171C96.2814 86.85 96.6049 86.6559 96.8637 86.5886C97.283 86.3971 97.8007 85.9442 98.4167 85.2298C98.9343 84.65 99.5503 83.6329 100.265 82.1783C100.358 81.9816 100.503 81.8833 100.699 81.8833C101.088 81.8833 101.313 82.111 101.375 82.5666V94.7492H104.923C105.374 94.7492 105.633 94.9899 105.7 95.4714C105.7 95.9579 105.441 96.2012 104.923 96.2012H101.375V96.5895C101.375 97.8835 101.699 98.9835 102.346 99.8894C103.091 100.795 103.966 101.248 104.97 101.248C105.358 101.248 105.552 101.442 105.552 101.831C105.552 102.219 105.358 102.413 104.97 102.413C104.292 102.413 103.192 102.317 101.67 102.126C100.278 101.898 99.1931 101.784 98.4167 101.784C97.6091 101.784 96.5247 101.898 95.1633 102.126C93.7087 102.317 92.6269 102.413 91.9177 102.413C91.5295 102.413 91.3353 102.219 91.3353 101.831C91.3353 101.442 91.5295 101.248 91.9177 101.248C92.9167 101.248 93.789 100.795 94.5344 99.8894C95.2125 98.9525 95.5515 97.8525 95.5515 96.5895V96.2012H87.2589C86.7051 96.2012 86.3168 96.0718 86.0942 95.813C85.8302 95.6214 85.6982 95.3626 85.6982 95.0365C85.6982 94.9382 85.9415 94.5991 86.4281 94.0193C86.982 93.3723 87.5643 92.5803 88.1752 91.6434C88.8895 90.5408 89.5702 89.4072 90.2172 88.2425C90.9264 86.9173 91.4932 85.3955 91.9177 83.6769C92.3991 81.9325 92.6398 80.1543 92.6398 78.3426C92.6398 77.8249 92.8676 77.5661 93.3231 77.5661C93.4214 77.5661 93.6311 77.6153 93.952 77.7137C94.0504 77.7447 94.2535 77.7926 94.5615 77.8573C94.8695 77.922 95.1193 77.9854 95.3108 78.0475C95.8958 78.1459 96.4471 78.1951 96.9647 78.1951Z" fill="black"/>
<path d="M221.47 67.3281C222.407 67.3281 223.118 67.5869 223.605 68.1046C224.092 68.6895 224.35 69.2408 224.381 69.7584C224.449 70.245 224.612 70.7937 224.871 71.4045C225.16 71.9222 225.531 72.181 225.981 72.181C226.338 72.181 226.874 71.7772 227.588 70.9697C228.235 70.2605 228.704 69.629 228.994 69.0751C229.154 68.7542 229.379 68.5937 229.669 68.5937H229.723C230.044 68.6248 230.27 68.7853 230.399 69.0751L224.288 89.9464C223.962 90.2726 223.508 90.4356 222.926 90.4356C222.343 90.4356 221.892 90.2726 221.571 89.9464L227.394 73.7339C225.324 74.4793 223.577 74.852 222.153 74.852C220.988 74.852 219.984 74.4793 219.14 73.7339C218.266 73.0247 217.828 72.0878 217.828 70.9231C217.828 69.9189 218.185 69.0777 218.9 68.3996C219.609 67.6853 220.466 67.3281 221.47 67.3281Z" fill="black"/>
<path d="M363.826 77.5185H346.162C345.835 77.5185 345.672 77.3555 345.672 77.0293V70.2353C345.672 69.9144 345.835 69.7539 346.162 69.7539H363.826C364.147 69.7539 364.307 69.9144 364.307 70.2353V77.0293C364.307 77.3555 364.147 77.5185 363.826 77.5185Z" fill="black"/>
<path d="M318.694 65.1006C318.694 66.7519 319.051 68.4031 319.765 70.0544C320.443 71.6695 321.284 73.2043 322.289 74.6588L325.2 78.9293C326.168 80.2597 327.009 81.7971 327.724 83.5415C328.433 85.1617 328.788 86.7949 328.788 88.441C328.788 89.9629 328.399 91.5494 327.623 93.2007C328.596 95.1729 329.083 97.0985 329.083 98.9776C329.083 101.954 328.386 104.995 326.994 108.101C326.735 108.489 326.427 108.683 326.07 108.683C325.749 108.683 325.459 108.554 325.2 108.295C325.004 108.098 324.905 107.855 324.905 107.565C324.905 107.565 324.905 107.485 324.905 107.325C326.298 104.571 326.994 101.788 326.994 98.9776C326.994 97.7145 326.751 96.5499 326.264 95.4835C325.684 94.2205 324.973 93.0558 324.129 91.9894C323.062 90.597 322.221 89.5928 321.605 88.9768C320.767 88.1382 319.796 87.2168 318.694 86.2126V89.9473H317.141V65.1006H318.694ZM326.311 90.7704C326.538 90.0923 326.652 89.3158 326.652 88.441C326.652 87.3125 326.427 86.166 325.977 85.0013C325.49 83.8366 324.809 82.6538 323.935 81.4529C323.127 80.4538 322.301 79.4677 321.458 78.4945C320.811 77.7853 319.889 76.8484 318.694 75.6838C318.694 77.0089 318.968 78.4143 319.517 79.9C320.102 81.2924 320.702 82.5062 321.318 83.5415C322.027 84.6441 322.899 85.8903 323.935 87.2802C324.97 88.6701 325.762 89.8334 326.311 90.7704Z" fill="black"/>
<path d="M235.722 73.3014C235.171 72.7501 234.896 72.0862 234.896 71.3098C234.896 70.5333 235.171 69.8694 235.722 69.3181C236.274 68.7669 236.938 68.4912 237.714 68.4912C238.491 68.4912 239.153 68.7669 239.702 69.3181C240.25 69.8694 240.525 70.5333 240.525 71.3098C240.525 72.0862 240.25 72.7501 239.702 73.3014C239.153 73.8527 238.491 74.1283 237.714 74.1283C236.938 74.1283 236.274 73.8527 235.722 73.3014Z" fill="black"/>
</svg>
