<svg width="512" height="126" viewBox="0 0 512 126" fill="none" xmlns="http://www.w3.org/2000/svg">
<path fill-rule="evenodd" clip-rule="evenodd" d="M480 46.4374H32V45.7611H480V46.4374Z" fill="black"/>
<path fill-rule="evenodd" clip-rule="evenodd" d="M480 54.9087H32V54.2324H480V54.9087Z" fill="black"/>
<path fill-rule="evenodd" clip-rule="evenodd" d="M480 63.3803H32V62.7041H480V63.3803Z" fill="black"/>
<path fill-rule="evenodd" clip-rule="evenodd" d="M480 71.8517H32V71.1754H480V71.8517Z" fill="black"/>
<path fill-rule="evenodd" clip-rule="evenodd" d="M480 80.323H32V79.6467H480V80.323Z" fill="black"/>
<path fill-rule="evenodd" clip-rule="evenodd" d="M277.867 80.3237V45.7604H279.223V80.3237H277.867Z" fill="black"/>
<path fill-rule="evenodd" clip-rule="evenodd" d="M471.019 80.3237V45.7604H472.375V80.3237H471.019Z" fill="black"/>
<path fill-rule="evenodd" clip-rule="evenodd" d="M475.765 80.3237V45.7604H480V80.3237H475.765Z" fill="black"/>
<path fill-rule="evenodd" clip-rule="evenodd" d="M181.055 87.7783H198.646V89.1342H181.055V87.7783Z" fill="black"/>
<path fill-rule="evenodd" clip-rule="evenodd" d="M101.283 39.1959C101.586 39.1959 101.833 39.4421 101.833 39.7457V65.6867C101.833 65.9904 101.586 66.2366 101.283 66.2366C100.979 66.2366 100.733 65.9904 100.733 65.6867V39.7457C100.733 39.4421 100.979 39.1959 101.283 39.1959Z" fill="black"/>
<path fill-rule="evenodd" clip-rule="evenodd" d="M138.028 64.0832C138.331 64.0832 138.578 64.3294 138.578 64.6331V89.515C138.578 89.8186 138.331 90.0648 138.028 90.0648C137.724 90.0648 137.478 89.8186 137.478 89.515V64.6331C137.478 64.3294 137.724 64.0832 138.028 64.0832Z" fill="black"/>
<path fill-rule="evenodd" clip-rule="evenodd" d="M194.877 58.2565C195.18 58.2565 195.426 58.5027 195.426 58.8064V86.8653C195.426 87.169 195.18 87.4152 194.877 87.4152C194.573 87.4152 194.327 87.169 194.327 86.8653V58.8064C194.327 58.5027 194.573 58.2565 194.877 58.2565Z" fill="black"/>
<path fill-rule="evenodd" clip-rule="evenodd" d="M241.673 54.0206C241.977 54.0206 242.223 54.2668 242.223 54.5705V82.6294C242.223 82.9331 241.977 83.1793 241.673 83.1793C241.37 83.1793 241.123 82.9331 241.123 82.6294V54.5705C241.123 54.2668 241.37 54.0206 241.673 54.0206Z" fill="black"/>
<path fill-rule="evenodd" clip-rule="evenodd" d="M298.297 49.7852C298.601 49.7852 298.847 50.0313 298.847 50.335V78.394C298.847 78.6976 298.601 78.9438 298.297 78.9438C297.993 78.9438 297.747 78.6976 297.747 78.394V50.335C297.747 50.0313 297.993 49.7852 298.297 49.7852Z" fill="black"/>
<path fill-rule="evenodd" clip-rule="evenodd" d="M344.127 45.5493C344.43 45.5493 344.677 45.7955 344.677 46.0992V74.1581C344.677 74.4618 344.43 74.708 344.127 74.708C343.823 74.708 343.577 74.4618 343.577 74.1581V46.0992C343.577 45.7955 343.823 45.5493 344.127 45.5493Z" fill="black"/>
<path fill-rule="evenodd" clip-rule="evenodd" d="M389.959 42.3726C390.262 42.3726 390.509 42.6188 390.509 42.9225V69.9223C390.509 70.226 390.262 70.4721 389.959 70.4721C389.655 70.4721 389.409 70.226 389.409 69.9223V42.9225C389.409 42.6188 389.655 42.3726 389.959 42.3726Z" fill="black"/>
<path d="M98.1247 62.6132C99.1836 62.6132 100.078 62.8885 100.809 63.4391C101.49 64.0357 101.831 64.7857 101.831 65.6894C101.831 67.2107 101.049 68.6332 99.4854 69.9568C97.897 71.2805 96.1975 71.9423 94.3867 71.9423C93.3278 71.9423 92.4347 71.667 91.7076 71.1163C91.0229 70.5198 90.6805 69.7697 90.6805 68.8661C90.6805 67.3448 91.4747 65.9223 93.063 64.5987C94.6091 63.275 96.2963 62.6132 98.1247 62.6132Z" fill="black"/>
<path d="M144.921 58.3777C145.98 58.3777 146.875 58.653 147.606 59.2036C148.287 59.8001 148.628 60.5502 148.628 61.4538C148.628 62.9751 147.846 64.3976 146.282 65.7213C144.694 67.0449 142.994 67.7067 141.183 67.7067C140.125 67.7067 139.231 67.4314 138.504 66.8808C137.82 66.2843 137.477 65.5342 137.477 64.6306C137.477 63.1093 138.271 61.6868 139.86 60.3631C141.406 59.0395 143.093 58.3777 144.921 58.3777Z" fill="black"/>
<path d="M191.718 83.7917C192.777 83.7917 193.672 84.067 194.403 84.6177C195.084 85.2142 195.424 85.9643 195.424 86.8679C195.424 88.3892 194.643 89.8117 193.079 91.1353C191.491 92.459 189.791 93.1208 187.98 93.1208C186.921 93.1208 186.028 92.8455 185.301 92.2949C184.616 91.6983 184.274 90.9483 184.274 90.0446C184.274 88.5233 185.068 87.1008 186.657 85.7772C188.203 84.4535 189.89 83.7917 191.718 83.7917Z" fill="black"/>
<path d="M238.515 79.5562C239.574 79.5562 240.469 79.8315 241.2 80.3821C241.881 80.9786 242.221 81.7287 242.221 82.6323C242.221 84.1536 241.44 85.5761 239.876 86.8998C238.288 88.2234 236.588 88.8853 234.777 88.8853C233.718 88.8853 232.825 88.6099 232.098 88.0593C231.413 87.4628 231.071 86.7127 231.071 85.8091C231.071 84.2878 231.865 82.8653 233.454 81.5416C235 80.218 236.687 79.5562 238.515 79.5562Z" fill="black"/>
<path d="M295.139 75.3203C296.198 75.3203 297.092 75.5956 297.823 76.1463C298.504 76.7428 298.845 77.4928 298.845 78.3965C298.845 79.9178 298.063 81.3403 296.499 82.6639C294.911 83.9876 293.211 84.6494 291.401 84.6494C290.342 84.6494 289.449 84.3741 288.721 83.8234C288.037 83.2269 287.694 82.4768 287.694 81.5732C287.694 80.0519 288.489 78.6294 290.077 77.3058C291.623 75.9821 293.31 75.3203 295.139 75.3203Z" fill="black"/>
<path d="M340.969 71.0845C342.028 71.0845 342.923 71.3598 343.654 71.9105C344.335 72.507 344.676 73.2571 344.676 74.1607C344.676 75.682 343.894 77.1045 342.33 78.4281C340.742 79.7518 339.042 80.4136 337.231 80.4136C336.173 80.4136 335.279 80.1383 334.552 79.5877C333.868 78.9911 333.525 78.2411 333.525 77.3374C333.525 75.8161 334.319 74.3936 335.908 73.07C337.454 71.7463 339.141 71.0845 340.969 71.0845Z" fill="black"/>
<path d="M386.801 66.849C387.86 66.849 388.755 67.1243 389.486 67.6749C390.167 68.2714 390.508 69.0215 390.508 69.9251C390.508 71.4465 389.726 72.8689 388.162 74.1926C386.574 75.5162 384.874 76.1781 383.063 76.1781C382.004 76.1781 381.111 75.9027 380.384 75.3521C379.699 74.7556 379.357 74.0055 379.357 73.1019C379.357 71.5806 380.151 70.1581 381.74 68.8344C383.286 67.5108 384.973 66.849 386.801 66.849Z" fill="black"/>
<path d="M51.2196 62.841C51.2196 62.841 51.2867 62.841 51.4208 62.841C51.5091 62.8198 51.585 62.8092 51.6485 62.8092C54.1193 62.8092 56.1489 63.6811 57.7373 65.4248C59.3257 67.1438 60.1199 69.1504 60.1199 71.4448C60.1199 74.2933 58.9409 76.6105 56.5831 78.3966C55.9654 78.8837 55.1588 79.2808 54.1634 79.5879C54.2764 81.0209 54.3329 82.1787 54.3329 83.0611C54.3329 83.2376 54.3099 83.8783 54.264 84.9831C54.1758 87.0339 53.4698 88.8093 52.1462 90.3095C50.8684 91.7884 49.28 92.5279 47.381 92.5279C45.595 92.5279 44.0737 91.8996 42.8171 90.643C41.557 89.3617 40.9269 87.8175 40.9269 86.0103C40.9269 85.0607 41.2922 84.2542 42.0229 83.5906C42.7712 82.9305 43.6413 82.6005 44.6331 82.6005C45.5156 82.6005 46.255 82.9429 46.8516 83.6277C47.4693 84.2665 47.7781 85.0607 47.7781 86.0103C47.7781 86.868 47.4693 87.6057 46.8516 88.2234C46.2339 88.8411 45.4944 89.1499 44.6331 89.1499C44.2802 89.1499 43.9395 89.0847 43.6113 88.9541C44.5819 90.3871 45.8721 91.1037 47.4816 91.1037C49.003 91.1037 50.249 90.486 51.2196 89.2506C52.2362 87.9728 52.7886 86.4832 52.8768 84.7819C52.9192 83.723 52.9404 83.1176 52.9404 82.9658C52.9404 81.7304 52.8963 80.7156 52.808 79.9214C51.7067 80.0979 50.7255 80.1862 49.8642 80.1862C46.7969 80.1862 44.1831 78.9719 42.0229 76.5435C39.905 74.0938 38.8461 71.1818 38.8461 67.8074C38.8461 67.1014 38.9114 66.3849 39.042 65.6577C39.1761 65.0612 39.342 64.41 39.5397 63.704C39.6491 63.3052 39.9474 62.6645 40.4345 61.7821C40.611 61.5173 40.8095 61.1864 41.0301 60.7894C41.2507 60.3922 41.4052 60.1284 41.4934 59.9978C41.7123 59.5566 42.1411 58.96 42.78 58.2082C42.9565 58.0105 43.1392 57.7908 43.328 57.549C43.5169 57.3072 43.6774 57.1087 43.8098 56.9534C43.9422 56.7981 44.041 56.6763 44.1063 56.5881C44.1716 56.4998 44.6684 55.9156 45.5967 54.8355C45.8156 54.6132 46.03 54.3758 46.24 54.1234C46.45 53.871 46.6212 53.6725 46.7536 53.5278C46.886 53.3831 46.9857 53.2789 47.0528 53.2154C46.2586 50.5893 45.7609 48.4926 45.5597 46.9254C45.4079 45.6688 45.332 43.948 45.332 41.7631C45.332 39.843 45.7732 38.0446 46.6557 36.3678C47.5134 34.6278 48.7153 33.2053 50.2613 32.1003C50.3495 32.0335 50.459 32 50.5896 32C50.7449 32 50.856 32.0335 50.9231 32.1003C52.1127 33.5337 53.138 35.3974 53.9993 37.6916C54.8817 39.9859 55.3229 42.072 55.3229 43.9498C55.3229 46.0676 54.8164 48.0531 53.8034 49.9063C52.6562 51.8688 51.1773 53.8984 49.3665 55.9951C49.8289 57.4493 50.4466 59.7313 51.2196 62.841ZM54.0311 78.2324C55.1782 77.8124 56.073 77.0959 56.7154 76.0828C57.4214 75.1122 57.7744 74.0197 57.7744 72.8055C57.7744 71.2383 57.2449 69.8475 56.186 68.6333C55.1023 67.3767 53.7222 66.6708 52.0456 66.5155C52.9951 71.1712 53.6569 75.0768 54.0311 78.2324ZM41.2287 70.587C41.2287 72.7719 42.1111 74.6921 43.876 76.3476C45.6832 77.9571 47.7128 78.7619 49.9648 78.7619C50.8896 78.7619 51.7932 78.6948 52.6756 78.5607C52.3227 75.2074 51.6273 71.1924 50.5896 66.5155C49.333 66.6496 48.3305 67.0908 47.5822 67.8391C46.8516 68.6121 46.4862 69.484 46.4862 70.4547C46.4862 72.1313 47.381 73.4885 49.1706 74.5262C49.3224 74.6815 49.3983 74.8474 49.3983 75.0239C49.3983 75.2004 49.3224 75.3645 49.1706 75.5163C49.0365 75.6716 48.8706 75.7493 48.6729 75.7493C48.6517 75.7493 48.5529 75.7281 48.3764 75.6857C47.1163 75.001 46.1456 74.1185 45.4644 73.0384C44.822 71.8877 44.5008 70.7282 44.5008 69.5599C44.5008 68.0386 44.9755 66.6602 45.925 65.4248C46.9169 64.1894 48.207 63.3952 49.7954 63.0422C49.1777 60.5714 48.6711 58.6406 48.2758 57.2499C47.9228 57.6487 47.4984 58.1288 47.0025 58.69C46.5065 59.2513 46.2144 59.5883 46.1262 59.7013C45.332 60.7355 44.7249 61.5403 44.3049 62.1156C43.553 63.1534 43.0006 64.0464 42.6477 64.7947C42.2735 65.6348 41.9435 66.5508 41.6576 67.5426C41.3716 68.4921 41.2287 69.5069 41.2287 70.587ZM52.2786 36.9344C50.6231 37.7498 49.3224 38.9182 48.3764 40.4395C47.4057 42.0067 46.9204 43.6939 46.9204 45.5011C46.9204 47.0895 47.3175 49.2303 48.1117 51.9235C49.7001 50.0033 50.8914 48.2278 51.6856 46.5971C52.5221 44.8746 52.9404 43.0762 52.9404 41.2019C52.9404 39.79 52.7198 38.3675 52.2786 36.9344Z" fill="black"/>
<path d="M76.3 46.499C76.9601 46.499 77.5222 46.4222 77.9863 46.2687C78.4505 46.1151 78.7479 46.0384 78.8785 46.0384C79.0338 46.0384 79.1556 46.0825 79.2438 46.1708C79.3109 46.2343 79.355 46.3102 79.3762 46.3984C79.3762 46.4443 79.3533 46.5114 79.3074 46.5996L69.6817 57.7871H75.3364V53.3502C75.3364 53.0643 75.4141 52.8208 75.5694 52.6196C75.8341 52.4007 76.0547 52.2684 76.2312 52.2225C76.5171 52.0919 76.8701 51.783 77.2901 51.2959C77.6431 50.9006 78.0631 50.207 78.5502 49.2151C78.6138 49.081 78.7126 49.014 78.8467 49.014C79.1114 49.014 79.265 49.1692 79.3074 49.4799V57.7871H81.727C82.0341 57.7871 82.2106 57.9513 82.2565 58.2795C82.2565 58.6113 82.08 58.7772 81.727 58.7772H79.3074V59.042C79.3074 59.9244 79.528 60.6745 79.9692 61.2922C80.4775 61.9099 81.074 62.2187 81.7588 62.2187C82.0235 62.2187 82.1559 62.3511 82.1559 62.6158C82.1559 62.8806 82.0235 63.0129 81.7588 63.0129C81.2964 63.0129 80.5463 62.9476 79.5086 62.817C78.559 62.6617 77.8196 62.5841 77.2901 62.5841C76.7395 62.5841 76 62.6617 75.0717 62.817C74.0798 62.9476 73.3421 63.0129 72.8585 63.0129C72.5938 63.0129 72.4614 62.8806 72.4614 62.6158C72.4614 62.3511 72.5938 62.2187 72.8585 62.2187C73.5398 62.2187 74.1345 61.9099 74.6428 61.2922C75.1052 60.6533 75.3364 59.9032 75.3364 59.042V58.7772H69.6817C69.3041 58.7772 69.0393 58.689 68.8876 58.5125C68.7075 58.3819 68.6175 58.2054 68.6175 57.983C68.6175 57.916 68.7834 57.6848 69.1152 57.2894C69.4929 56.8482 69.89 56.3082 70.3065 55.6693C70.7936 54.9174 71.2578 54.1444 71.699 53.3502C72.1826 52.4466 72.5691 51.4089 72.8585 50.237C73.1868 49.0475 73.3509 47.835 73.3509 46.5996C73.3509 46.2466 73.5062 46.0701 73.8168 46.0701C73.8839 46.0701 74.0269 46.1037 74.2457 46.1708C74.3128 46.1919 74.4513 46.2246 74.6613 46.2687C74.8714 46.3128 75.0417 46.356 75.1723 46.3984C75.5711 46.4655 75.947 46.499 76.3 46.499Z" fill="black"/>
<path d="M76.3 63.5001C76.9601 63.5001 77.5222 63.4233 77.9863 63.2698C78.4505 63.1162 78.7479 63.0395 78.8785 63.0395C79.0338 63.0395 79.1556 63.0836 79.2438 63.1718C79.3109 63.2354 79.355 63.3113 79.3762 63.3995C79.3762 63.4454 79.3533 63.5125 79.3074 63.6007L69.6817 74.7882H75.3364V70.3513C75.3364 70.0654 75.4141 69.8219 75.5694 69.6207C75.8341 69.4018 76.0547 69.2695 76.2312 69.2236C76.5171 69.093 76.8701 68.7841 77.2901 68.297C77.6431 67.9017 78.0631 67.2081 78.5502 66.2162C78.6138 66.0821 78.7126 66.015 78.8467 66.015C79.1114 66.015 79.265 66.1703 79.3074 66.481V74.7882H81.727C82.0341 74.7882 82.2106 74.9524 82.2565 75.2806C82.2565 75.6124 82.08 75.7783 81.727 75.7783H79.3074V76.0431C79.3074 76.9255 79.528 77.6756 79.9692 78.2933C80.4775 78.911 81.074 79.2198 81.7588 79.2198C82.0235 79.2198 82.1559 79.3522 82.1559 79.6169C82.1559 79.8817 82.0235 80.014 81.7588 80.014C81.2964 80.014 80.5463 79.9487 79.5086 79.8181C78.559 79.6628 77.8196 79.5852 77.2901 79.5852C76.7395 79.5852 76 79.6628 75.0717 79.8181C74.0798 79.9487 73.3421 80.014 72.8585 80.014C72.5938 80.014 72.4614 79.8817 72.4614 79.6169C72.4614 79.3522 72.5938 79.2198 72.8585 79.2198C73.5398 79.2198 74.1345 78.911 74.6428 78.2933C75.1052 77.6544 75.3364 76.9043 75.3364 76.0431V75.7783H69.6817C69.3041 75.7783 69.0393 75.6901 68.8876 75.5136C68.7075 75.383 68.6175 75.2065 68.6175 74.9841C68.6175 74.9171 68.7834 74.6859 69.1152 74.2905C69.4929 73.8493 69.89 73.3093 70.3065 72.6704C70.7936 71.9185 71.2578 71.1455 71.699 70.3513C72.1826 69.4477 72.5691 68.41 72.8585 67.2381C73.1868 66.0486 73.3509 64.8361 73.3509 63.6007C73.3509 63.2477 73.5062 63.0712 73.8168 63.0712C73.8839 63.0712 74.0269 63.1048 74.2457 63.1718C74.3128 63.193 74.4513 63.2257 74.6613 63.2698C74.8714 63.3139 75.0417 63.3571 75.1723 63.3995C75.5711 63.4666 75.947 63.5001 76.3 63.5001Z" fill="black"/>
</svg>
