<svg width="512" height="174" viewBox="0 0 512 174" fill="none" xmlns="http://www.w3.org/2000/svg">
<path fill-rule="evenodd" clip-rule="evenodd" d="M479.887 64.0604H32V62.9463H479.887V64.0604Z" fill="black"/>
<path fill-rule="evenodd" clip-rule="evenodd" d="M479.887 78.1278H32V77.0137H479.887V78.1278Z" fill="black"/>
<path fill-rule="evenodd" clip-rule="evenodd" d="M479.887 92.1942H32V91.0801H479.887V92.1942Z" fill="black"/>
<path fill-rule="evenodd" clip-rule="evenodd" d="M479.887 106.261H32V105.146H479.887V106.261Z" fill="black"/>
<path fill-rule="evenodd" clip-rule="evenodd" d="M479.887 120.328H32V119.214H479.887V120.328Z" fill="black"/>
<path fill-rule="evenodd" clip-rule="evenodd" d="M467.517 120.334V62.9414H469.751V120.334H467.517Z" fill="black"/>
<path fill-rule="evenodd" clip-rule="evenodd" d="M473.023 120.334V62.9414H480V120.334H473.023Z" fill="black"/>
<path fill-rule="evenodd" clip-rule="evenodd" d="M128.521 132.366H157.503V134.6H128.521V132.366Z" fill="black"/>
<path fill-rule="evenodd" clip-rule="evenodd" d="M151.291 90.709C151.791 90.709 152.197 91.1146 152.197 91.6149V130.862C152.197 131.362 151.791 131.768 151.291 131.768C150.791 131.768 150.385 131.362 150.385 130.862V91.6149C150.385 91.1146 150.791 90.709 151.291 90.709Z" fill="black"/>
<path fill-rule="evenodd" clip-rule="evenodd" d="M212.611 83.7305C213.111 83.7305 213.517 84.1361 213.517 84.6364V123.883C213.517 124.384 213.111 124.789 212.611 124.789C212.111 124.789 211.705 124.384 211.705 123.883V84.6364C211.705 84.1361 212.111 83.7305 212.611 83.7305Z" fill="black"/>
<path fill-rule="evenodd" clip-rule="evenodd" d="M273.931 76.7529C274.431 76.7529 274.837 77.1585 274.837 77.6588V116.906C274.837 117.407 274.431 117.812 273.931 117.812C273.43 117.812 273.025 117.407 273.025 116.906V77.6588C273.025 77.1585 273.43 76.7529 273.931 76.7529Z" fill="black"/>
<path d="M146.089 125.799C147.833 125.799 149.307 126.252 150.511 127.16C151.633 128.142 152.194 129.378 152.194 130.867C152.194 133.373 150.906 135.716 148.33 137.897C145.714 140.078 142.914 141.168 139.93 141.168C138.186 141.168 136.715 140.714 135.517 139.807C134.389 138.824 133.825 137.589 133.825 136.1C133.825 133.594 135.133 131.25 137.75 129.07C140.297 126.889 143.076 125.799 146.089 125.799Z" fill="black"/>
<path d="M207.408 118.821C209.152 118.821 210.627 119.275 211.83 120.182C212.953 121.165 213.514 122.4 213.514 123.889C213.514 126.395 212.226 128.739 209.65 130.919C207.033 133.1 204.233 134.19 201.25 134.19C199.505 134.19 198.034 133.737 196.836 132.83C195.708 131.847 195.144 130.611 195.144 129.123C195.144 126.616 196.452 124.273 199.069 122.092C201.616 119.912 204.396 118.821 207.408 118.821Z" fill="black"/>
<path d="M268.727 111.843C270.472 111.843 271.946 112.296 273.15 113.203C274.272 114.186 274.833 115.422 274.833 116.911C274.833 119.417 273.545 121.76 270.969 123.941C268.352 126.122 265.552 127.212 262.569 127.212C260.825 127.212 259.353 126.758 258.156 125.851C257.027 124.868 256.463 123.633 256.463 122.144C256.463 119.638 257.772 117.294 260.389 115.114C262.936 112.933 265.715 111.843 268.727 111.843Z" fill="black"/>
<path d="M63.512 91.2841C63.512 91.2841 63.6225 91.2841 63.8435 91.2841C63.9888 91.2492 64.1139 91.2318 64.2185 91.2318C68.289 91.2318 71.6327 92.6681 74.2494 95.5407C76.8662 98.3727 78.1746 101.678 78.1746 105.458C78.1746 110.151 76.2324 113.969 72.3479 116.911C71.3303 117.713 70.0016 118.368 68.3618 118.874C68.5478 121.234 68.6409 123.142 68.6409 124.595C68.6409 124.886 68.603 125.942 68.5274 127.762C68.3821 131.14 67.2191 134.065 65.0384 136.537C62.9334 138.973 60.3167 140.191 57.1882 140.191C54.2458 140.191 51.7395 139.156 49.6694 137.086C47.5934 134.975 46.5554 132.431 46.5554 129.454C46.5554 127.89 47.1573 126.561 48.361 125.468C49.5938 124.38 51.0272 123.837 52.6612 123.837C54.1149 123.837 55.3332 124.401 56.3159 125.529C57.3335 126.581 57.8424 127.89 57.8424 129.454C57.8424 130.867 57.3335 132.082 56.3159 133.1C55.2983 134.118 54.08 134.626 52.6612 134.626C52.0797 134.626 51.5185 134.519 50.9777 134.304C52.5768 136.665 54.7022 137.845 57.3539 137.845C59.8602 137.845 61.9129 136.827 63.512 134.792C65.1868 132.687 66.0968 130.233 66.2422 127.43C66.312 125.686 66.3468 124.689 66.3468 124.439C66.3468 122.403 66.2742 120.731 66.1288 119.423C64.3145 119.714 62.6979 119.859 61.2791 119.859C56.2258 119.859 51.9197 117.859 48.361 113.858C44.872 109.822 43.1274 105.025 43.1274 99.4659C43.1274 98.3029 43.235 97.1224 43.4502 95.9245C43.6711 94.9418 43.9445 93.8689 44.2701 92.7059C44.4504 92.0488 44.9417 90.9934 45.7442 89.5396C46.035 89.1035 46.3621 88.5583 46.7255 87.9042C47.0889 87.25 47.3433 86.8153 47.4887 86.6001C47.8492 85.8732 48.5558 84.8905 49.6083 83.6519C49.899 83.3263 50.2 82.9643 50.5111 82.566C50.8222 82.1676 51.0867 81.8406 51.3048 81.5847C51.5229 81.3288 51.6857 81.1282 51.7933 80.9828C51.9009 80.8374 52.7193 79.875 54.2487 78.0956C54.6092 77.7293 54.9624 77.3383 55.3084 76.9225C55.6544 76.5067 55.9365 76.1796 56.1546 75.9412C56.3726 75.7028 56.5369 75.5312 56.6474 75.4266C55.339 71.1002 54.5191 67.6461 54.1876 65.0642C53.9376 62.9941 53.8126 60.1592 53.8126 56.5597C53.8126 53.3964 54.5394 50.4336 55.9932 47.6713C57.4063 44.8048 59.3862 42.4613 61.9332 40.6408C62.0786 40.5309 62.2589 40.4756 62.474 40.4756C62.7299 40.4756 62.913 40.5309 63.0236 40.6408C64.9832 43.0022 66.6725 46.0725 68.0913 49.8521C69.5451 53.6318 70.272 57.0686 70.272 60.1621C70.272 63.6511 69.4375 66.9221 67.7686 69.975C65.8787 73.2081 63.4423 76.5518 60.4591 80.0059C61.2209 82.4017 62.2385 86.1611 63.512 91.2841ZM68.1437 116.641C70.0335 115.949 71.5077 114.768 72.566 113.099C73.729 111.5 74.3105 109.7 74.3105 107.7C74.3105 105.118 73.4382 102.827 71.6937 100.827C69.9085 98.7565 67.6349 97.5934 64.8727 97.3376C66.4369 105.008 67.5273 111.442 68.1437 116.641ZM47.0526 104.045C47.0526 107.645 48.5063 110.808 51.4139 113.535C54.3911 116.187 57.7348 117.513 61.4447 117.513C62.9683 117.513 64.457 117.402 65.9107 117.181C65.3292 111.657 64.1837 105.042 62.474 97.3376C60.4039 97.5585 58.7524 98.2854 57.5196 99.5182C56.3159 100.792 55.7141 102.228 55.7141 103.827C55.7141 106.589 57.1882 108.825 60.1364 110.535C60.3864 110.791 60.5115 111.064 60.5115 111.355C60.5115 111.645 60.3864 111.916 60.1364 112.166C59.9154 112.422 59.6421 112.55 59.3165 112.55C59.2816 112.55 59.1188 112.515 58.828 112.445C56.7521 111.317 55.1529 109.863 54.0306 108.084C52.9723 106.188 52.4431 104.278 52.4431 102.353C52.4431 99.8468 53.2252 97.576 54.7895 95.5407C56.4235 93.5055 58.5489 92.1971 61.1656 91.6156C60.148 87.5451 59.3135 84.3643 58.6623 82.0731C58.0808 82.7302 57.3815 83.5211 56.5645 84.4456C55.7475 85.3703 55.2663 85.9256 55.1209 86.1117C53.8126 87.8155 52.8124 89.1413 52.1204 90.0891C50.8818 91.7988 49.9717 93.2699 49.3902 94.5028C48.7738 95.8867 48.2301 97.3957 47.7591 99.0297C47.2881 100.594 47.0526 102.266 47.0526 104.045ZM65.2565 48.6047C62.5292 49.9481 60.3864 51.8728 58.828 54.3791C57.2288 56.961 56.4293 59.7405 56.4293 62.7179C56.4293 65.3346 57.0835 68.8614 58.3919 73.2983C61.0087 70.1349 62.9712 67.2099 64.2796 64.5234C65.6577 61.6857 66.3468 58.7229 66.3468 55.6352C66.3468 53.3091 65.9834 50.9657 65.2565 48.6047Z" fill="black"/>
<path d="M104.831 64.3614C105.918 64.3614 106.844 64.235 107.609 63.982C108.374 63.729 108.863 63.6025 109.079 63.6025C109.334 63.6025 109.535 63.6753 109.68 63.8206C109.791 63.9253 109.864 64.0503 109.899 64.1957C109.899 64.2713 109.861 64.3818 109.785 64.5272L93.9275 82.9579H103.243V75.6484C103.243 75.1774 103.371 74.7761 103.627 74.4447C104.063 74.0841 104.427 73.8661 104.717 73.7905C105.188 73.5753 105.77 73.0665 106.462 72.264C107.043 71.6128 107.735 70.4701 108.538 68.8361C108.642 68.6151 108.805 68.5046 109.026 68.5046C109.462 68.5046 109.715 68.7605 109.785 69.2722V82.9579H113.771C114.277 82.9579 114.568 83.2283 114.644 83.7691C114.644 84.3157 114.353 84.589 113.771 84.589H109.785V85.0251C109.785 86.4789 110.149 87.7146 110.875 88.7322C111.713 89.7498 112.696 90.2587 113.824 90.2587C114.26 90.2587 114.478 90.4767 114.478 90.9128C114.478 91.349 114.26 91.567 113.824 91.567C113.062 91.567 111.826 91.4594 110.117 91.2443C108.552 90.9884 107.334 90.8605 106.462 90.8605C105.555 90.8605 104.336 90.9884 102.807 91.2443C101.173 91.4594 99.9577 91.567 99.1611 91.567C98.725 91.567 98.5069 91.349 98.5069 90.9128C98.5069 90.4767 98.725 90.2587 99.1611 90.2587C100.283 90.2587 101.263 89.7498 102.101 88.7322C102.862 87.6797 103.243 86.444 103.243 85.0251V84.589H93.9275C93.3053 84.589 92.8692 84.4436 92.6192 84.1529C92.3226 83.9377 92.1743 83.6469 92.1743 83.2806C92.1743 83.1701 92.4476 82.7892 92.9942 82.138C93.6164 81.4111 94.2706 80.5214 94.9568 79.4689C95.7593 78.2303 96.524 76.9568 97.2508 75.6484C98.0475 74.1597 98.6842 72.4501 99.1611 70.5196C99.7019 68.5599 99.9722 66.5624 99.9722 64.5272C99.9722 63.9456 100.228 63.6549 100.74 63.6549C100.85 63.6549 101.086 63.7102 101.446 63.8206C101.557 63.8555 101.785 63.9093 102.131 63.982C102.477 64.0547 102.758 64.1259 102.973 64.1957C103.63 64.3062 104.249 64.3614 104.831 64.3614Z" fill="black"/>
<path d="M104.831 92.3702C105.918 92.3702 106.844 92.2438 107.609 91.9908C108.374 91.7378 108.863 91.6113 109.079 91.6113C109.334 91.6113 109.535 91.6841 109.68 91.8294C109.791 91.9341 109.864 92.0591 109.899 92.2045C109.899 92.2801 109.861 92.3906 109.785 92.5359L93.9275 110.967H103.243V103.657C103.243 103.186 103.371 102.785 103.627 102.453C104.063 102.093 104.427 101.875 104.717 101.799C105.188 101.584 105.77 101.075 106.462 100.273C107.043 99.6215 107.735 98.4789 108.538 96.8448C108.642 96.6239 108.805 96.5134 109.026 96.5134C109.462 96.5134 109.715 96.7693 109.785 97.281V110.967H113.771C114.277 110.967 114.568 111.237 114.644 111.778C114.644 112.324 114.353 112.598 113.771 112.598H109.785V113.034C109.785 114.488 110.149 115.723 110.875 116.741C111.713 117.759 112.696 118.267 113.824 118.267C114.26 118.267 114.478 118.485 114.478 118.922C114.478 119.358 114.26 119.576 113.824 119.576C113.062 119.576 111.826 119.468 110.117 119.253C108.552 118.997 107.334 118.869 106.462 118.869C105.555 118.869 104.336 118.997 102.807 119.253C101.173 119.468 99.9577 119.576 99.1611 119.576C98.725 119.576 98.5069 119.358 98.5069 118.922C98.5069 118.485 98.725 118.267 99.1611 118.267C100.283 118.267 101.263 117.759 102.101 116.741C102.862 115.688 103.243 114.453 103.243 113.034V112.598H93.9275C93.3053 112.598 92.8692 112.452 92.6192 112.162C92.3226 111.946 92.1743 111.656 92.1743 111.289C92.1743 111.179 92.4476 110.798 92.9942 110.147C93.6164 109.42 94.2706 108.53 94.9568 107.478C95.7593 106.239 96.524 104.966 97.2508 103.657C98.0475 102.169 98.6842 100.459 99.1611 98.5283C99.7019 96.5687 99.9722 94.5712 99.9722 92.5359C99.9722 91.9544 100.228 91.6637 100.74 91.6637C100.85 91.6637 101.086 91.719 101.446 91.8294C101.557 91.8643 101.785 91.9181 102.131 91.9908C102.477 92.0634 102.758 92.1347 102.973 92.2045C103.63 92.315 104.249 92.3702 104.831 92.3702Z" fill="black"/>
<path fill-rule="evenodd" clip-rule="evenodd" d="M150.384 88.3099L274.838 74.1475V81.1702L150.384 95.3327V88.3099Z" fill="black"/>
<path d="M208.891 40.4755C213.374 39.7424 215.616 38.1838 215.616 35.798C215.616 35.03 215.386 34.4122 214.926 33.9429C214.466 33.4742 213.861 33.2396 213.111 33.2396C211.967 33.2396 210.919 33.867 209.963 35.1212L209.506 34.9805C209.975 34.0661 210.618 33.3409 211.436 32.8046C212.253 32.2684 213.148 32 214.121 32C215.247 32 216.185 32.3427 216.935 33.0286C217.685 33.7145 218.06 34.5821 218.06 35.6309C218.06 36.5863 217.756 37.3555 217.146 37.939C216.536 38.522 215.379 39.142 213.673 39.7981V39.8774C215.472 40.704 216.372 42.1017 216.372 44.071C216.372 46.0229 215.65 47.7109 214.205 49.1351C212.76 50.5592 210.866 51.2715 208.521 51.2715C206.423 51.2715 205.374 50.7207 205.374 49.619C205.374 48.8858 205.787 48.5195 206.614 48.5195C207.082 48.5195 207.711 48.8008 208.499 49.3635C209.287 49.9262 209.934 50.2075 210.438 50.2075C211.452 50.2075 212.319 49.7816 213.04 48.9286C213.761 48.0756 214.121 46.9637 214.121 45.5919C214.121 43.8279 213.681 42.6086 212.798 41.9346C211.916 41.2605 210.614 40.9234 208.891 40.9234V40.4755Z" fill="black"/>
<path fill-rule="evenodd" clip-rule="evenodd" d="M133.126 41.5122L133.824 40.8145H198.671V42.2099H134.522V56.1659H133.126V41.5122Z" fill="black"/>
<path fill-rule="evenodd" clip-rule="evenodd" d="M224.736 40.8145H281.816L282.514 41.5122V56.1659H281.118V42.2099H224.736V40.8145Z" fill="black"/>
</svg>
